<svg xmlns="http://www.w3.org/2000/svg"  viewBox="0 0 80 80" width="80px" height="80px"><path d="M 30 8 C 21.804688 8 15 13.742188 15 21 C 15 28.257813 21.804688 34 30 34 C 32.429688 34 34.734375 33.484375 36.78125 32.585938 C 39.542969 35.296875 43.539063 37 48 37 C 56.195313 37 63 31.257813 63 24 C 63 16.742188 56.195313 11 48 11 C 45.566406 11 43.273438 11.511719 41.238281 12.40625 C 38.476563 9.699219 34.449219 8 30 8 Z M 30 10 C 37.269531 10 43 15.003906 43 21 C 43 26.996094 37.269531 32 30 32 C 22.730469 32 17 26.996094 17 21 C 17 15.003906 22.730469 10 30 10 Z M 30 12 C 29.449219 12 29 12.449219 29 13 C 29 13.550781 29.449219 14 30 14 C 30.550781 14 31 13.550781 31 13 C 31 12.449219 30.550781 12 30 12 Z M 48 13 C 55.269531 13 61 18.003906 61 24 C 61 29.996094 55.269531 35 48 35 C 44.300781 35 40.992188 33.683594 38.640625 31.609375 C 42.464844 29.269531 45 25.421875 45 21 C 45 18.410156 44.121094 16.019531 42.632813 14.003906 C 44.269531 13.371094 46.078125 13 48 13 Z M 24.976563 13.074219 C 24.808594 13.078125 24.644531 13.121094 24.5 13.207031 C 24.023438 13.484375 23.855469 14.09375 24.132813 14.574219 C 24.265625 14.800781 24.484375 14.96875 24.742188 15.039063 C 24.996094 15.105469 25.269531 15.070313 25.5 14.9375 C 25.976563 14.660156 26.140625 14.050781 25.863281 13.574219 C 25.683594 13.253906 25.34375 13.0625 24.976563 13.074219 Z M 34.953125 13.074219 C 34.613281 13.089844 34.304688 13.277344 34.132813 13.574219 C 34 13.800781 33.964844 14.074219 34.03125 14.332031 C 34.101563 14.589844 34.269531 14.808594 34.5 14.9375 C 34.976563 15.214844 35.589844 15.050781 35.863281 14.574219 C 36.140625 14.09375 35.976563 13.484375 35.5 13.207031 C 35.332031 13.109375 35.144531 13.066406 34.953125 13.074219 Z M 48 15 C 47.449219 15 47 15.449219 47 16 C 47 16.550781 47.449219 17 48 17 C 48.550781 17 49 16.550781 49 16 C 49 15.449219 48.550781 15 48 15 Z M 38.902344 16 C 38.734375 16.003906 38.574219 16.050781 38.425781 16.132813 C 38.199219 16.265625 38.03125 16.484375 37.960938 16.742188 C 37.890625 16.996094 37.925781 17.269531 38.0625 17.5 C 38.191406 17.730469 38.410156 17.898438 38.667969 17.964844 C 38.925781 18.035156 39.199219 18 39.425781 17.863281 C 39.90625 17.589844 40.070313 16.976563 39.792969 16.5 C 39.609375 16.183594 39.269531 15.992188 38.902344 16 Z M 21.027344 16 C 20.683594 16.015625 20.375 16.203125 20.203125 16.5 C 19.929688 16.976563 20.09375 17.589844 20.574219 17.863281 C 21.050781 18.140625 21.660156 17.976563 21.9375 17.5 C 22.214844 17.023438 22.050781 16.410156 21.574219 16.136719 C 21.40625 16.039063 21.214844 15.992188 21.027344 16 Z M 52.953125 16.074219 C 52.613281 16.089844 52.304688 16.277344 52.132813 16.574219 C 52 16.800781 51.964844 17.074219 52.03125 17.332031 C 52.101563 17.589844 52.269531 17.808594 52.5 17.9375 C 52.976563 18.214844 53.589844 18.050781 53.863281 17.574219 C 54.140625 17.09375 53.976563 16.484375 53.5 16.207031 C 53.332031 16.109375 53.144531 16.066406 52.953125 16.074219 Z M 56.902344 19 C 56.734375 19.003906 56.570313 19.050781 56.425781 19.136719 C 55.949219 19.410156 55.785156 20.023438 56.0625 20.5 C 56.335938 20.976563 56.949219 21.140625 57.425781 20.863281 C 57.902344 20.589844 58.070313 19.976563 57.792969 19.5 C 57.609375 19.183594 57.269531 18.992188 56.902344 19 Z M 20 21 C 19.449219 21 19 21.449219 19 22 C 19 22.550781 19.449219 23 20 23 C 20.550781 23 21 22.550781 21 22 C 21 21.449219 20.550781 21 20 21 Z M 40 21 C 39.449219 21 39 21.449219 39 22 C 39 22.550781 39.449219 23 40 23 C 40.550781 23 41 22.550781 41 22 C 41 21.449219 40.550781 21 40 21 Z M 58 24 C 57.449219 24 57 24.449219 57 25 C 57 25.550781 57.449219 26 58 26 C 58.550781 26 59 25.550781 59 25 C 59 24.449219 58.550781 24 58 24 Z M 13 29 C 10.316406 29 8 30.949219 8 33.5 C 8 36.050781 10.316406 38 13 38 C 15.683594 38 18 36.050781 18 33.5 C 18 30.949219 15.683594 29 13 29 Z M 13 31 C 14.734375 31 16 32.183594 16 33.5 C 16 34.816406 14.734375 36 13 36 C 11.265625 36 10 34.816406 10 33.5 C 10 32.183594 11.265625 31 13 31 Z M 67 31 C 64.316406 31 62 32.949219 62 35.5 C 62 38.050781 64.316406 40 67 40 C 69.683594 40 72 38.050781 72 35.5 C 72 32.949219 69.683594 31 67 31 Z M 67 33 C 68.734375 33 70 34.183594 70 35.5 C 70 36.816406 68.734375 38 67 38 C 65.265625 38 64 36.816406 64 35.5 C 64 34.183594 65.265625 33 67 33 Z M 24.320313 38 C 21.5625 38 19.167969 39.484375 17.441406 40.890625 C 16.832031 41.390625 16.335938 41.867188 15.902344 42.300781 C 15.527344 40.910156 14.0625 40 12.5 40 C 10.6875 40 9 41.21875 9 43 C 9 44.78125 10.6875 46 12.5 46 C 13.375 46 14.214844 45.710938 14.859375 45.21875 L 15.117188 45.292969 C 15.117188 45.292969 15.285156 45.328125 15.558594 45.609375 C 15.828125 45.886719 16.144531 46.351563 16.144531 47.402344 C 16.144531 48.847656 16.34375 50.542969 16.457031 51.535156 C 16.199219 51.855469 16 52.234375 16 52.691406 C 16 53.171875 16.121094 53.460938 16.207031 53.753906 C 16.25 53.902344 16.292969 54.039063 16.316406 54.128906 C 16.339844 54.21875 16.332031 54.324219 16.332031 54.132813 C 16.332031 55.054688 17.078125 55.726563 17.953125 55.84375 C 18.328125 57.359375 19.117188 58.671875 20.265625 59.65625 L 20.265625 61.347656 C 19.425781 61.609375 17.816406 62.089844 15.835938 63.089844 C 14.6875 63.667969 13.546875 64.351563 12.640625 65.191406 C 11.730469 66.03125 11 67.082031 11 68.355469 L 11 72 L 39 72 L 39 68.355469 C 39 67.082031 38.269531 66.03125 37.359375 65.191406 C 36.453125 64.351563 35.3125 63.667969 34.164063 63.089844 C 32.183594 62.089844 30.570313 61.609375 29.734375 61.347656 L 29.734375 59.65625 C 30.878906 58.671875 31.671875 57.363281 32.046875 55.847656 C 32.917969 55.730469 33.667969 55.054688 33.667969 54.132813 C 33.667969 54.324219 33.660156 54.21875 33.683594 54.128906 C 33.707031 54.039063 33.75 53.902344 33.792969 53.753906 C 33.878906 53.460938 34 53.171875 34 52.691406 C 34 52.234375 33.800781 51.855469 33.542969 51.535156 C 33.691406 50.207031 34 47.464844 34 45.933594 C 34 43.90625 33.222656 42.378906 32.15625 41.441406 C 31.242188 40.636719 30.1875 40.3125 29.21875 40.21875 C 29.042969 39.945313 28.960938 39.714844 28.402344 39.277344 C 27.5625 38.621094 26.210938 38 24.320313 38 Z M 54.320313 38 C 51.5625 38 49.167969 39.484375 47.441406 40.890625 C 45.714844 42.300781 44.609375 43.71875 44.609375 43.71875 L 43.707031 44.875 L 45.117188 45.292969 C 45.117188 45.292969 45.285156 45.328125 45.558594 45.609375 C 45.828125 45.886719 46.144531 46.351563 46.144531 47.402344 C 46.144531 48.847656 46.34375 50.542969 46.457031 51.535156 C 46.199219 51.855469 46 52.234375 46 52.691406 C 46 53.171875 46.121094 53.460938 46.207031 53.753906 C 46.25 53.902344 46.292969 54.039063 46.316406 54.128906 C 46.339844 54.21875 46.332031 54.324219 46.332031 54.132813 C 46.332031 55.054688 47.078125 55.726563 47.953125 55.84375 C 48.328125 57.359375 49.117188 58.671875 50.265625 59.65625 L 50.265625 61.347656 C 49.425781 61.609375 47.816406 62.089844 45.835938 63.089844 C 44.6875 63.667969 43.546875 64.351563 42.640625 65.191406 C 41.730469 66.03125 41 67.082031 41 68.355469 L 41 72 L 69 72 L 69 68.355469 C 69 67.082031 68.269531 66.03125 67.359375 65.191406 C 66.453125 64.351563 65.3125 63.667969 64.164063 63.089844 C 62.183594 62.089844 60.570313 61.609375 59.734375 61.347656 L 59.734375 59.65625 C 60.878906 58.671875 61.671875 57.363281 62.046875 55.847656 C 62.917969 55.730469 63.667969 55.054688 63.667969 54.132813 C 63.667969 54.324219 63.660156 54.21875 63.683594 54.128906 C 63.707031 54.039063 63.75 53.902344 63.792969 53.753906 C 63.878906 53.460938 64 53.171875 64 52.691406 C 64 52.234375 63.800781 51.855469 63.542969 51.535156 C 63.691406 50.207031 64 47.464844 64 45.933594 C 64 43.90625 63.222656 42.378906 62.15625 41.441406 C 61.242188 40.636719 60.1875 40.3125 59.21875 40.21875 C 59.042969 39.945313 58.960938 39.714844 58.402344 39.277344 C 57.5625 38.621094 56.210938 38 54.320313 38 Z M 24.320313 40 C 25.789063 40 26.644531 40.445313 27.171875 40.855469 C 27.699219 41.265625 27.835938 41.578125 27.835938 41.578125 L 28.109375 42.132813 L 28.734375 42.132813 C 29.328125 42.132813 30.1875 42.375 30.835938 42.941406 C 31.484375 43.511719 32 44.386719 32 45.933594 C 32 47.269531 31.640625 50.664063 31.515625 51.773438 L 31.441406 52.421875 L 31.984375 52.738281 C 31.980469 52.71875 31.945313 52.945313 31.875 53.191406 C 31.832031 53.328125 31.789063 53.46875 31.75 53.609375 C 31.730469 53.695313 31.71875 53.824219 31.699219 53.933594 L 30.445313 53.933594 L 30.332031 54.808594 C 30.140625 56.328125 29.332031 57.628906 28.144531 58.484375 L 27.734375 58.78125 L 27.734375 62.777344 L 28.453125 62.984375 C 28.882813 63.113281 31.164063 63.8125 33.265625 64.875 C 34.3125 65.402344 35.320313 66.027344 36.003906 66.660156 C 36.6875 67.292969 37 67.875 37 68.355469 L 37 70 L 13 70 L 13 68.355469 C 13 67.875 13.3125 67.292969 13.996094 66.660156 C 14.679688 66.027344 15.6875 65.402344 16.734375 64.875 C 18.835938 63.8125 21.117188 63.113281 21.546875 62.984375 L 22.265625 62.777344 L 22.265625 58.78125 L 21.851563 58.484375 C 20.667969 57.628906 19.855469 56.328125 19.664063 54.808594 L 19.550781 53.933594 L 18.296875 53.933594 C 18.28125 53.824219 18.269531 53.695313 18.246094 53.609375 C 18.207031 53.46875 18.167969 53.328125 18.125 53.191406 C 18.054688 52.949219 18.019531 52.722656 18.011719 52.738281 L 18.558594 52.417969 L 18.480469 51.769531 C 18.378906 50.933594 18.144531 48.800781 18.144531 47.402344 C 18.144531 45.894531 17.589844 44.832031 16.988281 44.214844 C 16.972656 44.195313 16.96875 44.207031 16.953125 44.1875 C 17.335938 43.742188 17.628906 43.320313 18.703125 42.441406 C 20.246094 41.183594 22.308594 40 24.320313 40 Z M 54.320313 40 C 55.789063 40 56.644531 40.445313 57.171875 40.855469 C 57.699219 41.265625 57.835938 41.578125 57.835938 41.578125 L 58.109375 42.132813 L 58.734375 42.132813 C 59.328125 42.132813 60.1875 42.375 60.835938 42.941406 C 61.484375 43.511719 62 44.386719 62 45.933594 C 62 47.269531 61.640625 50.664063 61.515625 51.773438 L 61.441406 52.421875 L 61.984375 52.738281 C 61.980469 52.71875 61.945313 52.945313 61.875 53.191406 C 61.832031 53.328125 61.789063 53.46875 61.75 53.609375 C 61.730469 53.695313 61.71875 53.824219 61.699219 53.933594 L 60.445313 53.933594 L 60.332031 54.808594 C 60.140625 56.328125 59.332031 57.628906 58.144531 58.484375 L 57.734375 58.78125 L 57.734375 62.777344 L 58.453125 62.984375 C 58.882813 63.113281 61.164063 63.8125 63.265625 64.875 C 64.3125 65.402344 65.320313 66.027344 66.003906 66.660156 C 66.6875 67.292969 67 67.875 67 68.355469 L 67 70 L 43 70 L 43 68.355469 C 43 67.875 43.3125 67.292969 43.996094 66.660156 C 44.679688 66.027344 45.6875 65.402344 46.734375 64.875 C 48.835938 63.8125 51.117188 63.113281 51.546875 62.984375 L 52.265625 62.777344 L 52.265625 58.78125 L 51.851563 58.484375 C 50.667969 57.628906 49.855469 56.328125 49.664063 54.808594 L 49.550781 53.933594 L 48.296875 53.933594 C 48.28125 53.824219 48.269531 53.695313 48.246094 53.609375 C 48.207031 53.46875 48.167969 53.328125 48.125 53.191406 C 48.054688 52.949219 48.019531 52.722656 48.011719 52.738281 L 48.558594 52.417969 L 48.480469 51.769531 C 48.378906 50.933594 48.144531 48.800781 48.144531 47.402344 C 48.144531 45.894531 47.589844 44.832031 46.988281 44.214844 C 46.972656 44.195313 46.96875 44.207031 46.953125 44.1875 C 47.335938 43.742188 47.628906 43.320313 48.703125 42.441406 C 50.246094 41.183594 52.308594 40 54.320313 40 Z M 12.5 42 C 13.449219 42 14 42.570313 14 43 C 14 43.429688 13.449219 44 12.5 44 C 11.550781 44 11 43.429688 11 43 C 11 42.570313 11.550781 42 12.5 42 Z M 69.5 42 C 67.6875 42 66 43.21875 66 45 C 66 46.78125 67.6875 48 69.5 48 C 71.3125 48 73 46.78125 73 45 C 73 43.21875 71.3125 42 69.5 42 Z M 69.5 44 C 70.449219 44 71 44.570313 71 45 C 71 45.429688 70.449219 46 69.5 46 C 68.550781 46 68 45.429688 68 45 C 68 44.570313 68.550781 44 69.5 44 Z M 17 66 C 16.449219 66 16 66.449219 16 67 C 16 67.550781 16.449219 68 17 68 C 17.550781 68 18 67.550781 18 67 C 18 66.449219 17.550781 66 17 66 Z M 21 66 C 20.449219 66 20 66.449219 20 67 C 20 67.550781 20.449219 68 21 68 C 21.550781 68 22 67.550781 22 67 C 22 66.449219 21.550781 66 21 66 Z M 25 66 C 24.449219 66 24 66.449219 24 67 C 24 67.550781 24.449219 68 25 68 C 25.550781 68 26 67.550781 26 67 C 26 66.449219 25.550781 66 25 66 Z M 29 66 C 28.449219 66 28 66.449219 28 67 C 28 67.550781 28.449219 68 29 68 C 29.550781 68 30 67.550781 30 67 C 30 66.449219 29.550781 66 29 66 Z M 33 66 C 32.449219 66 32 66.449219 32 67 C 32 67.550781 32.449219 68 33 68 C 33.550781 68 34 67.550781 34 67 C 34 66.449219 33.550781 66 33 66 Z M 47 66 C 46.449219 66 46 66.449219 46 67 C 46 67.550781 46.449219 68 47 68 C 47.550781 68 48 67.550781 48 67 C 48 66.449219 47.550781 66 47 66 Z M 51 66 C 50.449219 66 50 66.449219 50 67 C 50 67.550781 50.449219 68 51 68 C 51.550781 68 52 67.550781 52 67 C 52 66.449219 51.550781 66 51 66 Z M 55 66 C 54.449219 66 54 66.449219 54 67 C 54 67.550781 54.449219 68 55 68 C 55.550781 68 56 67.550781 56 67 C 56 66.449219 55.550781 66 55 66 Z M 59 66 C 58.449219 66 58 66.449219 58 67 C 58 67.550781 58.449219 68 59 68 C 59.550781 68 60 67.550781 60 67 C 60 66.449219 59.550781 66 59 66 Z M 63 66 C 62.449219 66 62 66.449219 62 67 C 62 67.550781 62.449219 68 63 68 C 63.550781 68 64 67.550781 64 67 C 64 66.449219 63.550781 66 63 66 Z"/></svg>