<svg xmlns="http://www.w3.org/2000/svg" xmlns:xlink="http://www.w3.org/1999/xlink" viewBox="0,0,256,256" width="30px" height="30px" fill-rule="nonzero"><g fill="#fdf9f9" fill-rule="nonzero" stroke="none" stroke-width="1" stroke-linecap="butt" stroke-linejoin="miter" stroke-miterlimit="10" stroke-dasharray="" stroke-dashoffset="0" font-family="none" font-weight="none" font-size="none" text-anchor="none" style="mix-blend-mode: normal"><g transform="scale(3.2,3.2)"><path d="M30,8c-8.19531,0 -15,5.74219 -15,13c0,7.25781 6.80469,13 15,13c2.42969,0 4.73438,-0.51562 6.78125,-1.41406c2.76172,2.71094 6.75781,4.41406 11.21875,4.41406c8.19531,0 15,-5.74219 15,-13c0,-7.25781 -6.80469,-13 -15,-13c-2.43359,0 -4.72656,0.51172 -6.76172,1.40625c-2.76172,-2.70703 -6.78906,-4.40625 -11.23828,-4.40625zM30,10c7.26953,0 13,5.00391 13,11c0,5.99609 -5.73047,11 -13,11c-7.26953,0 -13,-5.00391 -13,-11c0,-5.99609 5.73047,-11 13,-11zM30,12c-0.55078,0 -1,0.44922 -1,1c0,0.55078 0.44922,1 1,1c0.55078,0 1,-0.44922 1,-1c0,-0.55078 -0.44922,-1 -1,-1zM48,13c7.26953,0 13,5.00391 13,11c0,5.99609 -5.73047,11 -13,11c-3.69922,0 -7.00781,-1.31641 -9.35937,-3.39062c3.82422,-2.33984 6.35938,-6.1875 6.35938,-10.60937c0,-2.58984 -0.87891,-4.98047 -2.36719,-6.99609c1.63672,-0.63281 3.44531,-1.00391 5.36719,-1.00391zM24.97656,13.07422c-0.16797,0.00391 -0.33203,0.04688 -0.47656,0.13281c-0.47656,0.27734 -0.64453,0.88672 -0.36719,1.36719c0.13281,0.22656 0.35156,0.39453 0.60938,0.46484c0.25391,0.06641 0.52734,0.03125 0.75781,-0.10156c0.47656,-0.27734 0.64063,-0.88672 0.36328,-1.36328c-0.17969,-0.32031 -0.51953,-0.51172 -0.88672,-0.5zM34.95313,13.07422c-0.33984,0.01563 -0.64844,0.20313 -0.82031,0.5c-0.13281,0.22656 -0.16797,0.5 -0.10156,0.75781c0.07031,0.25781 0.23828,0.47656 0.46875,0.60547c0.47656,0.27734 1.08984,0.11328 1.36328,-0.36328c0.27734,-0.48047 0.11328,-1.08984 -0.36328,-1.36719c-0.16797,-0.09766 -0.35547,-0.14062 -0.54687,-0.13281zM48,15c-0.55078,0 -1,0.44922 -1,1c0,0.55078 0.44922,1 1,1c0.55078,0 1,-0.44922 1,-1c0,-0.55078 -0.44922,-1 -1,-1zM38.90234,16c-0.16797,0.00391 -0.32812,0.05078 -0.47656,0.13281c-0.22656,0.13281 -0.39453,0.35156 -0.46484,0.60938c-0.07031,0.25391 -0.03516,0.52734 0.10156,0.75781c0.12891,0.23047 0.34766,0.39844 0.60547,0.46484c0.25781,0.07031 0.53125,0.03516 0.75781,-0.10156c0.48047,-0.27344 0.64453,-0.88672 0.36719,-1.36328c-0.18359,-0.31641 -0.52344,-0.50781 -0.89062,-0.5zM21.02734,16c-0.34375,0.01563 -0.65234,0.20313 -0.82422,0.5c-0.27344,0.47656 -0.10937,1.08984 0.37109,1.36328c0.47656,0.27734 1.08594,0.11328 1.36328,-0.36328c0.27734,-0.47656 0.11328,-1.08984 -0.36328,-1.36328c-0.16797,-0.09766 -0.35937,-0.14453 -0.54687,-0.13672zM52.95313,16.07422c-0.33984,0.01563 -0.64844,0.20313 -0.82031,0.5c-0.13281,0.22656 -0.16797,0.5 -0.10156,0.75781c0.07031,0.25781 0.23828,0.47656 0.46875,0.60547c0.47656,0.27734 1.08984,0.11328 1.36328,-0.36328c0.27734,-0.48047 0.11328,-1.08984 -0.36328,-1.36719c-0.16797,-0.09766 -0.35547,-0.14062 -0.54687,-0.13281zM56.90234,19c-0.16797,0.00391 -0.33203,0.05078 -0.47656,0.13672c-0.47656,0.27344 -0.64062,0.88672 -0.36328,1.36328c0.27344,0.47656 0.88672,0.64063 1.36328,0.36328c0.47656,-0.27344 0.64453,-0.88672 0.36719,-1.36328c-0.18359,-0.31641 -0.52344,-0.50781 -0.89062,-0.5zM20,21c-0.55078,0 -1,0.44922 -1,1c0,0.55078 0.44922,1 1,1c0.55078,0 1,-0.44922 1,-1c0,-0.55078 -0.44922,-1 -1,-1zM40,21c-0.55078,0 -1,0.44922 -1,1c0,0.55078 0.44922,1 1,1c0.55078,0 1,-0.44922 1,-1c0,-0.55078 -0.44922,-1 -1,-1zM58,24c-0.55078,0 -1,0.44922 -1,1c0,0.55078 0.44922,1 1,1c0.55078,0 1,-0.44922 1,-1c0,-0.55078 -0.44922,-1 -1,-1zM13,29c-2.68359,0 -5,1.94922 -5,4.5c0,2.55078 2.31641,4.5 5,4.5c2.68359,0 5,-1.94922 5,-4.5c0,-2.55078 -2.31641,-4.5 -5,-4.5zM13,31c1.73438,0 3,1.18359 3,2.5c0,1.31641 -1.26562,2.5 -3,2.5c-1.73437,0 -3,-1.18359 -3,-2.5c0,-1.31641 1.26563,-2.5 3,-2.5zM67,31c-2.68359,0 -5,1.94922 -5,4.5c0,2.55078 2.31641,4.5 5,4.5c2.68359,0 5,-1.94922 5,-4.5c0,-2.55078 -2.31641,-4.5 -5,-4.5zM67,33c1.73438,0 3,1.18359 3,2.5c0,1.31641 -1.26562,2.5 -3,2.5c-1.73437,0 -3,-1.18359 -3,-2.5c0,-1.31641 1.26563,-2.5 3,-2.5zM24.32031,38c-2.75781,0 -5.15234,1.48438 -6.87891,2.89063c-0.60937,0.5 -1.10547,0.97656 -1.53906,1.41016c-0.375,-1.39062 -1.83984,-2.30078 -3.40234,-2.30078c-1.8125,0 -3.5,1.21875 -3.5,3c0,1.78125 1.6875,3 3.5,3c0.875,0 1.71484,-0.28906 2.35938,-0.78125l0.25781,0.07422c0,0 0.16797,0.03516 0.44141,0.31641c0.26953,0.27734 0.58594,0.74219 0.58594,1.79297c0,1.44531 0.19922,3.14063 0.3125,4.13281c-0.25781,0.32031 -0.45703,0.69922 -0.45703,1.15625c0,0.48047 0.12109,0.76953 0.20703,1.0625c0.04297,0.14844 0.08594,0.28516 0.10938,0.375c0.02344,0.08984 0.01563,0.19531 0.01563,0.00391c0,0.92188 0.74609,1.59375 1.62109,1.71094c0.375,1.51563 1.16406,2.82813 2.3125,3.8125v1.69141c-0.83984,0.26172 -2.44922,0.74219 -4.42969,1.74219c-1.14844,0.57813 -2.28906,1.26172 -3.19531,2.10156c-0.91016,0.83984 -1.64062,1.89063 -1.64062,3.16406v3.64453h28v-3.64453c0,-1.27344 -0.73047,-2.32422 -1.64062,-3.16406c-0.90625,-0.83984 -2.04687,-1.52344 -3.19531,-2.10156c-1.98047,-1 -3.59375,-1.48047 -4.42969,-1.74219v-1.69141c1.14453,-0.98437 1.9375,-2.29297 2.3125,-3.80859c0.87109,-0.11719 1.62109,-0.79297 1.62109,-1.71484c0,0.19141 -0.00781,0.08594 0.01563,-0.00391c0.02344,-0.08984 0.06641,-0.22656 0.10938,-0.375c0.08594,-0.29297 0.20703,-0.58203 0.20703,-1.0625c0,-0.45703 -0.19922,-0.83594 -0.45703,-1.15625c0.14844,-1.32812 0.45703,-4.07031 0.45703,-5.60156c0,-2.02734 -0.77734,-3.55469 -1.84375,-4.49219c-0.91406,-0.80469 -1.96875,-1.12891 -2.9375,-1.22266c-0.17578,-0.27344 -0.25781,-0.50391 -0.81641,-0.94141c-0.83984,-0.65625 -2.19141,-1.27734 -4.08203,-1.27734zM54.32031,38c-2.75781,0 -5.15234,1.48438 -6.87891,2.89063c-1.72656,1.41016 -2.83203,2.82813 -2.83203,2.82813l-0.90234,1.15625l1.41016,0.41797c0,0 0.16797,0.03516 0.44141,0.31641c0.26953,0.27734 0.58594,0.74219 0.58594,1.79297c0,1.44531 0.19922,3.14063 0.3125,4.13281c-0.25781,0.32031 -0.45703,0.69922 -0.45703,1.15625c0,0.48047 0.12109,0.76953 0.20703,1.0625c0.04297,0.14844 0.08594,0.28516 0.10938,0.375c0.02344,0.08984 0.01563,0.19531 0.01563,0.00391c0,0.92188 0.74609,1.59375 1.62109,1.71094c0.375,1.51563 1.16406,2.82813 2.3125,3.8125v1.69141c-0.83984,0.26172 -2.44922,0.74219 -4.42969,1.74219c-1.14844,0.57813 -2.28906,1.26172 -3.19531,2.10156c-0.91016,0.83984 -1.64062,1.89063 -1.64062,3.16406v3.64453h28v-3.64453c0,-1.27344 -0.73047,-2.32422 -1.64062,-3.16406c-0.90625,-0.83984 -2.04687,-1.52344 -3.19531,-2.10156c-1.98047,-1 -3.59375,-1.48047 -4.42969,-1.74219v-1.69141c1.14453,-0.98437 1.9375,-2.29297 2.3125,-3.80859c0.87109,-0.11719 1.62109,-0.79297 1.62109,-1.71484c0,0.19141 -0.00781,0.08594 0.01563,-0.00391c0.02344,-0.08984 0.06641,-0.22656 0.10938,-0.375c0.08594,-0.29297 0.20703,-0.58203 0.20703,-1.0625c0,-0.45703 -0.19922,-0.83594 -0.45703,-1.15625c0.14844,-1.32812 0.45703,-4.07031 0.45703,-5.60156c0,-2.02734 -0.77734,-3.55469 -1.84375,-4.49219c-0.91406,-0.80469 -1.96875,-1.12891 -2.9375,-1.22266c-0.17578,-0.27344 -0.25781,-0.50391 -0.81641,-0.94141c-0.83984,-0.65625 -2.19141,-1.27734 -4.08203,-1.27734zM24.32031,40c1.46875,0 2.32422,0.44531 2.85156,0.85547c0.52734,0.41016 0.66406,0.72266 0.66406,0.72266l0.27344,0.55469h0.625c0.59375,0 1.45313,0.24219 2.10156,0.80859c0.64844,0.57031 1.16406,1.44531 1.16406,2.99219c0,1.33594 -0.35937,4.73047 -0.48437,5.83984l-0.07422,0.64844l0.54297,0.31641c-0.00391,-0.01953 -0.03906,0.20703 -0.10937,0.45313c-0.04297,0.13672 -0.08594,0.27734 -0.125,0.41797c-0.01953,0.08594 -0.03125,0.21484 -0.05078,0.32422h-1.25391l-0.11328,0.875c-0.19141,1.51953 -1,2.82031 -2.1875,3.67578l-0.41016,0.29688v3.99609l0.71875,0.20703c0.42969,0.12891 2.71094,0.82813 4.8125,1.89063c1.04688,0.52734 2.05469,1.15234 2.73828,1.78516c0.68359,0.63281 0.99609,1.21484 0.99609,1.69531v1.64453h-24v-1.64453c0,-0.48047 0.3125,-1.0625 0.99609,-1.69531c0.68359,-0.63281 1.69141,-1.25781 2.73828,-1.78516c2.10156,-1.0625 4.38281,-1.76172 4.8125,-1.89062l0.71875,-0.20703v-3.99609l-0.41406,-0.29687c-1.18359,-0.85547 -1.99609,-2.15625 -2.1875,-3.67578l-0.11328,-0.875h-1.25391c-0.01562,-0.10937 -0.02734,-0.23828 -0.05078,-0.32422c-0.03906,-0.14062 -0.07812,-0.28125 -0.12109,-0.41797c-0.07031,-0.24219 -0.10547,-0.46875 -0.11328,-0.45312l0.54688,-0.32031l-0.07812,-0.64844c-0.10156,-0.83594 -0.33594,-2.96875 -0.33594,-4.36719c0,-1.50781 -0.55469,-2.57031 -1.15625,-3.1875c-0.01562,-0.01953 -0.01953,-0.00781 -0.03516,-0.02734c0.38281,-0.44531 0.67578,-0.86719 1.75,-1.74609c1.54297,-1.25781 3.60547,-2.44141 5.61719,-2.44141zM54.32031,40c1.46875,0 2.32422,0.44531 2.85156,0.85547c0.52734,0.41016 0.66406,0.72266 0.66406,0.72266l0.27344,0.55469h0.625c0.59375,0 1.45313,0.24219 2.10156,0.80859c0.64844,0.57031 1.16406,1.44531 1.16406,2.99219c0,1.33594 -0.35937,4.73047 -0.48437,5.83984l-0.07422,0.64844l0.54297,0.31641c-0.00391,-0.01953 -0.03906,0.20703 -0.10937,0.45313c-0.04297,0.13672 -0.08594,0.27734 -0.125,0.41797c-0.01953,0.08594 -0.03125,0.21484 -0.05078,0.32422h-1.25391l-0.11328,0.875c-0.19141,1.51953 -1,2.82031 -2.1875,3.67578l-0.41016,0.29688v3.99609l0.71875,0.20703c0.42969,0.12891 2.71094,0.82813 4.8125,1.89063c1.04688,0.52734 2.05469,1.15234 2.73828,1.78516c0.68359,0.63281 0.99609,1.21484 0.99609,1.69531v1.64453h-24v-1.64453c0,-0.48047 0.3125,-1.0625 0.99609,-1.69531c0.68359,-0.63281 1.69141,-1.25781 2.73828,-1.78516c2.10156,-1.0625 4.38281,-1.76172 4.8125,-1.89062l0.71875,-0.20703v-3.99609l-0.41406,-0.29687c-1.18359,-0.85547 -1.99609,-2.15625 -2.1875,-3.67578l-0.11328,-0.875h-1.25391c-0.01562,-0.10937 -0.02734,-0.23828 -0.05078,-0.32422c-0.03906,-0.14062 -0.07812,-0.28125 -0.12109,-0.41797c-0.07031,-0.24219 -0.10547,-0.46875 -0.11328,-0.45312l0.54688,-0.32031l-0.07812,-0.64844c-0.10156,-0.83594 -0.33594,-2.96875 -0.33594,-4.36719c0,-1.50781 -0.55469,-2.57031 -1.15625,-3.1875c-0.01562,-0.01953 -0.01953,-0.00781 -0.03516,-0.02734c0.38281,-0.44531 0.67578,-0.86719 1.75,-1.74609c1.54297,-1.25781 3.60547,-2.44141 5.61719,-2.44141zM12.5,42c0.94922,0 1.5,0.57031 1.5,1c0,0.42969 -0.55078,1 -1.5,1c-0.94922,0 -1.5,-0.57031 -1.5,-1c0,-0.42969 0.55078,-1 1.5,-1zM69.5,42c-1.8125,0 -3.5,1.21875 -3.5,3c0,1.78125 1.6875,3 3.5,3c1.8125,0 3.5,-1.21875 3.5,-3c0,-1.78125 -1.6875,-3 -3.5,-3zM69.5,44c0.94922,0 1.5,0.57031 1.5,1c0,0.42969 -0.55078,1 -1.5,1c-0.94922,0 -1.5,-0.57031 -1.5,-1c0,-0.42969 0.55078,-1 1.5,-1zM17,66c-0.55078,0 -1,0.44922 -1,1c0,0.55078 0.44922,1 1,1c0.55078,0 1,-0.44922 1,-1c0,-0.55078 -0.44922,-1 -1,-1zM21,66c-0.55078,0 -1,0.44922 -1,1c0,0.55078 0.44922,1 1,1c0.55078,0 1,-0.44922 1,-1c0,-0.55078 -0.44922,-1 -1,-1zM25,66c-0.55078,0 -1,0.44922 -1,1c0,0.55078 0.44922,1 1,1c0.55078,0 1,-0.44922 1,-1c0,-0.55078 -0.44922,-1 -1,-1zM29,66c-0.55078,0 -1,0.44922 -1,1c0,0.55078 0.44922,1 1,1c0.55078,0 1,-0.44922 1,-1c0,-0.55078 -0.44922,-1 -1,-1zM33,66c-0.55078,0 -1,0.44922 -1,1c0,0.55078 0.44922,1 1,1c0.55078,0 1,-0.44922 1,-1c0,-0.55078 -0.44922,-1 -1,-1zM47,66c-0.55078,0 -1,0.44922 -1,1c0,0.55078 0.44922,1 1,1c0.55078,0 1,-0.44922 1,-1c0,-0.55078 -0.44922,-1 -1,-1zM51,66c-0.55078,0 -1,0.44922 -1,1c0,0.55078 0.44922,1 1,1c0.55078,0 1,-0.44922 1,-1c0,-0.55078 -0.44922,-1 -1,-1zM55,66c-0.55078,0 -1,0.44922 -1,1c0,0.55078 0.44922,1 1,1c0.55078,0 1,-0.44922 1,-1c0,-0.55078 -0.44922,-1 -1,-1zM59,66c-0.55078,0 -1,0.44922 -1,1c0,0.55078 0.44922,1 1,1c0.55078,0 1,-0.44922 1,-1c0,-0.55078 -0.44922,-1 -1,-1zM63,66c-0.55078,0 -1,0.44922 -1,1c0,0.55078 0.44922,1 1,1c0.55078,0 1,-0.44922 1,-1c0,-0.55078 -0.44922,-1 -1,-1z"></path></g></g></svg>