<svg width="4660" height="4660" viewBox="0 0 4660 4660" fill="none" xmlns="http://www.w3.org/2000/svg">
<circle cx="2330" cy="2330" r="2330" fill="white"/>
<path d="M1287.04 1718.75C1341.3 1627.37 1405.2 1545.91 1479.02 1471.81L848.97 780.557C691.423 928.753 556.119 1106.42 450.285 1298.96L1287.04 1718.75Z" fill="#63B335"/>
<path d="M2830.43 1229.81C2926.35 1274.3 3015.04 1328.56 3093.67 1395.29L3723.86 704.038C3558.95 560.801 3369.38 439.807 3165.08 353.383L2830.43 1229.81Z" fill="#E5B735"/>
<path d="M4275.19 1437.2L3438.43 1854.44C3477.82 1948.23 3507.29 2046.98 3522.02 2150.69L4452.43 2061.86C4425.37 1842.11 4363.74 1632.29 4275.19 1437.2Z" fill="#C51C2E"/>
<path d="M3379.3 1733.44L4216.05 1316.19C4112.63 1123.65 3979.73 948.392 3824.74 795.379L3194.69 1486.63C3266.1 1560.59 3327.59 1644.6 3379.3 1733.44Z" fill="#4C9F37"/>
<mask id="mask0_1590_5434" style="mask-type:luminance" maskUnits="userSpaceOnUse" x="187" y="2181" width="992" height="690">
<path d="M187 2181.04H1178.61V2870.16H187V2181.04Z" fill="white"/>
</mask>
<g mask="url(#mask0_1590_5434)">
<path d="M1119.81 2330.86C1119.81 2311.17 1119.81 2293.88 1122.36 2274.05L191.959 2190.17C189.55 2237.07 187 2283.97 187 2330.86C187 2511.08 209.244 2683.93 251.039 2849.26L1149.43 2590.13C1129.73 2506.12 1119.81 2419.69 1119.81 2330.86Z" fill="#3F7F45"/>
</g>
<path d="M3261.09 3096.26C3194.65 3177.73 3118.28 3249.28 3034.69 3311.05L3526.88 4108.42C3708.94 3985.01 3871.45 3832 4009.3 3659.15L3261.09 3096.26Z" fill="#FCC310"/>
<path d="M3536.63 2330.97C3536.63 2419.81 3526.86 2506.23 3509.57 2587.7L4407.96 2846.97C4449.76 2681.63 4472 2508.78 4472 2330.97C4472 2286.49 4469.45 2242.14 4467.04 2200.21L3534.23 2286.49C3534.23 2301.36 3536.63 2316.24 3536.63 2330.97Z" fill="#E8422E"/>
<path d="M1410.26 3116L667.016 3683.85C804.869 3854.29 969.642 4004.76 1151.84 4125.75L1644.03 3328.38C1555.48 3266.61 1479.12 3195.06 1410.26 3116Z" fill="#F59D2D"/>
<path d="M1137.08 2138.4C1154.22 2032.28 1183.83 1930.98 1225.63 1837.19L388.873 1419.94C295.365 1617.44 233.735 1829.82 204.266 2054.52L1137.08 2138.4Z" fill="#1896D4"/>
<path d="M3411.2 4182.54L2921.42 3385.17C2832.87 3434.48 2736.95 3476.42 2635.94 3501.21L2808.22 4421.98C3022.44 4375.08 3226.74 4291.21 3411.2 4182.54Z" fill="#A31B43"/>
<path d="M3472.8 2718.6C3440.78 2814.8 3396.43 2903.78 3342.31 2987.65L4088.11 3553.09C4208.68 3377.69 4304.6 3185.15 4371.19 2977.87L3472.8 2718.6Z" fill="#2EBCE0"/>
<path d="M2502.91 3528.25C2446.38 3535.76 2387.3 3540.72 2328.22 3540.72C2281.47 3540.72 2234.71 3538.17 2187.96 3533.21L2015.68 4454.13C2118.96 4468.86 2222.39 4476.37 2328.22 4476.37C2446.38 4476.37 2561.99 4466.45 2675.19 4449.17L2502.91 3528.25Z" fill="#ED6930"/>
<path d="M2404.56 1121.2C2507.99 1128.57 2608.86 1148.26 2702.37 1178.01L3037.16 303.994C2840.23 232.446 2626.15 190.367 2404.56 183V1121.2Z" fill="#E6243C"/>
<path d="M2055.02 3510.97C1949.33 3486.32 1850.86 3449.34 1759.76 3397.48L1267.43 4194.85C1457 4303.52 1663.71 4384.98 1882.74 4431.88L2055.02 3510.97Z" fill="#DE1868"/>
<path d="M1966.49 1175.46C2062.54 1145.85 2165.83 1126.16 2271.66 1121.2V183C2047.67 187.959 1831.18 229.896 1629.29 301.585L1966.49 1175.46Z" fill="#1A496A"/>
<path d="M1329.1 3007.4C1270.02 2918.43 1220.71 2822.23 1186.28 2720.93L287.898 2980.2C356.896 3194.99 457.772 3394.89 585.708 3575.11L1329.1 3007.4Z" fill="#C99A2D"/>
<path d="M1580.09 1380.4C1658.87 1318.77 1745.01 1264.37 1838.52 1222.43L1501.32 348.557C1299.43 432.431 1114.82 548.466 949.906 686.744L1580.09 1380.4Z" fill="#02699E"/>
</svg>
