<svg width="5184" height="2300" viewBox="0 0 5184 2300" fill="none" xmlns="http://www.w3.org/2000/svg">
<rect width="5184" height="2300" fill="white"/>
<path d="M1379.13 1054.14C1376.23 1051.24 1370.84 1047.3 1362.96 1042.33C1355.5 1037.35 1346.17 1032.58 1334.97 1028.02C1324.19 1023.46 1312.37 1019.52 1299.52 1016.2C1286.66 1012.47 1273.6 1010.6 1260.33 1010.6C1237.11 1010.6 1219.49 1014.96 1207.46 1023.67C1195.85 1032.37 1190.05 1044.61 1190.05 1060.36C1190.05 1072.39 1193.78 1081.93 1201.24 1088.98C1208.71 1096.03 1219.9 1102.04 1234.83 1107.01C1249.76 1111.99 1268.42 1117.38 1290.81 1123.19C1319.84 1130.24 1344.92 1138.94 1366.07 1149.31C1387.63 1159.26 1404.01 1172.53 1415.21 1189.12C1426.82 1205.29 1432.63 1226.85 1432.63 1253.81C1432.63 1277.44 1428.27 1297.76 1419.56 1314.76C1410.86 1331.35 1398.83 1344.83 1383.49 1355.19C1368.15 1365.56 1350.73 1373.23 1331.24 1378.21C1311.75 1382.77 1291.02 1385.05 1269.04 1385.05C1247.06 1385.05 1225.09 1382.77 1203.11 1378.21C1181.13 1373.64 1159.98 1367.22 1139.66 1358.92C1119.35 1350.22 1100.69 1339.85 1083.68 1327.82L1121.63 1253.81C1125.36 1257.54 1131.99 1262.51 1141.53 1268.73C1151.07 1274.54 1162.68 1280.55 1176.36 1286.77C1190.05 1292.58 1204.97 1297.55 1221.15 1301.7C1237.32 1305.85 1253.7 1307.92 1270.28 1307.92C1293.51 1307.92 1311.13 1303.98 1323.15 1296.1C1335.18 1288.22 1341.19 1277.03 1341.19 1262.51C1341.19 1249.24 1336.42 1238.88 1326.89 1231.41C1317.35 1223.95 1304.08 1217.52 1287.08 1212.13C1270.08 1206.33 1249.97 1200.11 1226.74 1193.47C1198.96 1185.59 1175.74 1176.89 1157.08 1167.35C1138.42 1157.4 1124.53 1144.96 1115.41 1130.03C1106.28 1115.1 1101.72 1096.44 1101.72 1074.05C1101.72 1043.78 1108.77 1018.48 1122.87 998.164C1137.38 977.431 1156.87 961.881 1181.34 951.514C1205.8 940.733 1232.96 935.342 1262.82 935.342C1283.55 935.342 1303.04 937.623 1321.29 942.184C1339.95 946.746 1357.36 952.758 1373.54 960.222C1389.71 967.686 1404.22 975.772 1417.08 984.48L1379.13 1054.14ZM1503.71 1380.07V938.452H1664.18C1712.29 938.452 1752.51 948.404 1784.85 968.308C1817.2 987.798 1841.45 1014.34 1857.63 1047.92C1873.8 1081.1 1881.88 1118 1881.88 1158.64C1881.88 1203.42 1872.97 1242.4 1855.14 1275.58C1837.31 1308.75 1812.01 1334.46 1779.25 1352.7C1746.91 1370.95 1708.55 1380.07 1664.18 1380.07H1503.71ZM1795.43 1158.64C1795.43 1130.03 1790.24 1104.94 1779.88 1083.38C1769.51 1061.4 1754.58 1044.4 1735.09 1032.37C1715.6 1019.93 1691.97 1013.71 1664.18 1013.71H1589.54V1304.81H1664.18C1692.38 1304.81 1716.23 1298.59 1735.71 1286.15C1755.2 1273.3 1769.92 1255.88 1779.88 1233.9C1790.24 1211.51 1795.43 1186.42 1795.43 1158.64ZM2138.66 1383.18C2110.05 1383.18 2082.89 1377.38 2057.18 1365.77C2031.88 1354.16 2009.49 1338.19 1990 1317.87C1970.93 1297.14 1956 1273.09 1945.22 1245.72C1934.44 1218.35 1929.05 1188.7 1929.05 1156.77C1929.05 1126.5 1934.44 1098.1 1945.22 1071.56C1956 1044.61 1971.13 1020.97 1990.62 1000.65C2010.11 980.334 2032.92 964.369 2059.04 952.758C2085.17 941.148 2113.57 935.342 2144.26 935.342C2185.72 935.342 2221.18 944.258 2250.62 962.088C2280.48 979.504 2302.87 1002.73 2317.8 1031.75L2253.73 1079.02C2242.53 1057.05 2226.78 1040.25 2206.46 1028.64C2186.55 1017.03 2164.78 1011.23 2141.15 1011.23C2122.49 1011.23 2105.49 1015.17 2090.14 1023.04C2074.8 1030.92 2061.53 1041.7 2050.34 1055.39C2039.14 1069.07 2030.43 1084.83 2024.21 1102.66C2018.41 1120.49 2015.5 1139.36 2015.5 1159.26C2015.5 1180.41 2018.61 1199.9 2024.83 1217.73C2031.47 1235.56 2040.59 1251.11 2052.2 1264.38C2064.23 1277.65 2078.12 1288.22 2093.88 1296.1C2109.63 1303.57 2127.05 1307.3 2146.12 1307.3C2168.52 1307.3 2189.87 1301.49 2210.19 1289.88C2230.92 1278.27 2250.2 1261.27 2268.04 1238.88V1323.47C2231.13 1363.28 2188 1383.18 2138.66 1383.18ZM2261.82 1215.86H2172.87V1153.04H2332.72V1380.07H2261.82V1215.86ZM2567.74 1380.07V938.452H2653.58V1380.07H2567.74ZM3112.07 1380.07V1090.22L2998.87 1306.05H2950.98L2837.77 1090.22V1380.07H2751.94V938.452H2843.99L2974.61 1189.74L3106.48 938.452H3197.91V1380.07H3112.07ZM3296.33 1380.07V938.452H3483.55C3503.87 938.452 3522.53 942.599 3539.53 950.892C3556.54 959.186 3571.26 970.382 3583.7 984.48C3596.55 998.579 3606.5 1014.34 3613.55 1031.75C3620.6 1049.17 3624.13 1067 3624.13 1085.24C3624.13 1110.12 3618.32 1133.76 3606.71 1156.15C3595.1 1178.54 3579.14 1196.79 3558.82 1210.89C3538.5 1224.99 3514.45 1232.04 3486.66 1232.04H3382.17V1380.07H3296.33ZM3382.17 1156.77H3481.69C3492.06 1156.77 3501.39 1153.87 3509.68 1148.07C3517.97 1142.26 3524.61 1133.97 3529.58 1123.19C3534.56 1111.99 3537.05 1099.34 3537.05 1085.24C3537.05 1069.9 3534.14 1056.84 3528.34 1046.06C3522.95 1035.28 3515.69 1027.19 3506.57 1021.8C3497.86 1016.41 3488.32 1013.71 3477.96 1013.71H3382.17V1156.77ZM3777.94 938.452H3865.02L4027.36 1380.07H3939.04L3897.99 1269.98H3743.73L3703.3 1380.07H3614.98L3777.94 938.452ZM3882.44 1209.64L3821.48 1027.4L3758.04 1209.64H3882.44ZM4038.27 1156.15C4038.27 1129.2 4043.04 1102.87 4052.57 1077.16C4062.52 1051.03 4076.83 1027.4 4095.49 1006.25C4114.15 984.688 4136.96 967.686 4163.91 955.246C4190.86 942.392 4221.55 935.964 4255.97 935.964C4296.6 935.964 4331.64 944.88 4361.08 962.71C4390.94 980.541 4413.13 1003.76 4427.64 1032.37L4361.71 1077.78C4354.24 1061.19 4344.5 1048.13 4332.47 1038.59C4320.45 1028.64 4307.59 1021.8 4293.91 1018.07C4280.22 1013.92 4266.75 1011.85 4253.48 1011.85C4231.92 1011.85 4213.05 1016.2 4196.88 1024.91C4181.12 1033.62 4167.85 1045.02 4157.07 1059.12C4146.29 1073.22 4138.2 1088.98 4132.81 1106.39C4127.83 1123.81 4125.35 1141.22 4125.35 1158.64C4125.35 1178.13 4128.46 1197 4134.68 1215.24C4140.9 1233.07 4149.6 1249.04 4160.8 1263.14C4172.41 1276.82 4186.1 1287.81 4201.85 1296.1C4218.02 1303.98 4235.65 1307.92 4254.72 1307.92C4268.41 1307.92 4282.3 1305.64 4296.4 1301.08C4310.5 1296.52 4323.56 1289.26 4335.58 1279.31C4347.61 1269.36 4356.94 1256.5 4363.57 1240.74L4433.86 1281.17C4425.15 1303.15 4410.84 1321.81 4390.94 1337.15C4371.45 1352.5 4349.47 1364.11 4325.01 1371.99C4300.54 1379.86 4276.29 1383.8 4252.23 1383.8C4220.72 1383.8 4191.9 1377.38 4165.78 1364.52C4139.65 1351.25 4117.05 1333.84 4097.98 1312.27C4079.32 1290.3 4064.6 1265.83 4053.82 1238.88C4043.45 1211.51 4038.27 1183.93 4038.27 1156.15ZM4827.92 1013.71H4686.73V1380.07H4601.52V1013.71H4460.32V938.452H4827.92V1013.71Z" fill="#1A496A"/>
<path d="M3300.2 1484.4C3298.6 1487.2 3296.87 1489.27 3295 1490.6C3293.27 1491.8 3291.07 1492.4 3288.4 1492.4C3285.6 1492.4 3282.53 1491.4 3279.2 1489.4C3276 1487.27 3272.13 1484.93 3267.6 1482.4C3263.07 1479.87 3257.73 1477.6 3251.6 1475.6C3245.6 1473.47 3238.47 1472.4 3230.2 1472.4C3222.73 1472.4 3216.2 1473.33 3210.6 1475.2C3205 1476.93 3200.27 1479.4 3196.4 1482.6C3192.67 1485.8 3189.87 1489.67 3188 1494.2C3186.13 1498.6 3185.2 1503.47 3185.2 1508.8C3185.2 1515.6 3187.07 1521.27 3190.8 1525.8C3194.67 1530.33 3199.73 1534.2 3206 1537.4C3212.27 1540.6 3219.4 1543.47 3227.4 1546C3235.4 1548.53 3243.6 1551.27 3252 1554.2C3260.4 1557 3268.6 1560.33 3276.6 1564.2C3284.6 1567.93 3291.73 1572.73 3298 1578.6C3304.27 1584.33 3309.27 1591.4 3313 1599.8C3316.87 1608.2 3318.8 1618.4 3318.8 1630.4C3318.8 1643.47 3316.53 1655.73 3312 1667.2C3307.6 1678.53 3301.07 1688.47 3292.4 1697C3283.87 1705.4 3273.4 1712.07 3261 1717C3248.6 1721.8 3234.4 1724.2 3218.4 1724.2C3209.2 1724.2 3200.13 1723.27 3191.2 1721.4C3182.27 1719.67 3173.67 1717.13 3165.4 1713.8C3157.27 1710.47 3149.6 1706.47 3142.4 1701.8C3135.2 1697.13 3128.8 1691.93 3123.2 1686.2L3139 1660.4C3140.33 1658.53 3142.07 1657 3144.2 1655.8C3146.33 1654.47 3148.6 1653.8 3151 1653.8C3154.33 1653.8 3157.93 1655.2 3161.8 1658C3165.67 1660.67 3170.27 1663.67 3175.6 1667C3180.93 1670.33 3187.13 1673.4 3194.2 1676.2C3201.4 1678.87 3210 1680.2 3220 1680.2C3235.33 1680.2 3247.2 1676.6 3255.6 1669.4C3264 1662.07 3268.2 1651.6 3268.2 1638C3268.2 1630.4 3266.27 1624.2 3262.4 1619.4C3258.67 1614.6 3253.67 1610.6 3247.4 1607.4C3241.13 1604.07 3234 1601.27 3226 1599C3218 1596.73 3209.87 1594.27 3201.6 1591.6C3193.33 1588.93 3185.2 1585.73 3177.2 1582C3169.2 1578.27 3162.07 1573.4 3155.8 1567.4C3149.53 1561.4 3144.47 1553.93 3140.6 1545C3136.87 1535.93 3135 1524.8 3135 1511.6C3135 1501.07 3137.07 1490.8 3141.2 1480.8C3145.47 1470.8 3151.6 1461.93 3159.6 1454.2C3167.6 1446.47 3177.47 1440.27 3189.2 1435.6C3200.93 1430.93 3214.4 1428.6 3229.6 1428.6C3246.67 1428.6 3262.4 1431.27 3276.8 1436.6C3291.2 1441.93 3303.47 1449.4 3313.6 1459L3300.2 1484.4ZM3486.13 1677.6C3496.53 1677.6 3505.8 1675.87 3513.93 1672.4C3522.2 1668.93 3529.13 1664.07 3534.73 1657.8C3540.33 1651.53 3544.6 1643.93 3547.53 1635C3550.6 1626.07 3552.13 1616.07 3552.13 1605V1431.8H3605.93V1605C3605.93 1622.2 3603.13 1638.13 3597.53 1652.8C3592.06 1667.33 3584.13 1679.93 3573.73 1690.6C3563.46 1701.13 3550.93 1709.4 3536.13 1715.4C3521.33 1721.27 3504.66 1724.2 3486.13 1724.2C3467.46 1724.2 3450.73 1721.27 3435.93 1715.4C3421.13 1709.4 3408.53 1701.13 3398.13 1690.6C3387.86 1679.93 3379.93 1667.33 3374.33 1652.8C3368.86 1638.13 3366.13 1622.2 3366.13 1605V1431.8H3419.93V1604.8C3419.93 1615.87 3421.4 1625.87 3424.33 1634.8C3427.4 1643.73 3431.73 1651.4 3437.33 1657.8C3443.06 1664.07 3450 1668.93 3458.13 1672.4C3466.4 1675.87 3475.73 1677.6 3486.13 1677.6ZM3984.21 1431.8V1721H3936.81V1534.2C3936.81 1526.73 3937.21 1518.67 3938.01 1510L3850.61 1674.2C3846.47 1682.07 3840.14 1686 3831.61 1686H3824.01C3815.47 1686 3809.14 1682.07 3805.01 1674.2L3716.61 1509.4C3717.01 1513.8 3717.34 1518.13 3717.61 1522.4C3717.87 1526.67 3718.01 1530.6 3718.01 1534.2V1721H3670.61V1431.8H3711.21C3713.61 1431.8 3715.67 1431.87 3717.41 1432C3719.14 1432.13 3720.67 1432.47 3722.01 1433C3723.47 1433.53 3724.74 1434.4 3725.81 1435.6C3727.01 1436.8 3728.14 1438.4 3729.21 1440.4L3815.81 1601C3818.07 1605.27 3820.14 1609.67 3822.01 1614.2C3824.01 1618.73 3825.94 1623.4 3827.81 1628.2C3829.67 1623.27 3831.61 1618.53 3833.61 1614C3835.61 1609.33 3837.74 1604.87 3840.01 1600.6L3925.41 1440.4C3926.47 1438.4 3927.61 1436.8 3928.81 1435.6C3930.01 1434.4 3931.27 1433.53 3932.61 1433C3934.07 1432.47 3935.67 1432.13 3937.41 1432C3939.14 1431.87 3941.21 1431.8 3943.61 1431.8H3984.21ZM4366.33 1431.8V1721H4318.93V1534.2C4318.93 1526.73 4319.33 1518.67 4320.13 1510L4232.73 1674.2C4228.6 1682.07 4222.26 1686 4213.73 1686H4206.13C4197.6 1686 4191.26 1682.07 4187.13 1674.2L4098.73 1509.4C4099.13 1513.8 4099.46 1518.13 4099.73 1522.4C4100 1526.67 4100.13 1530.6 4100.13 1534.2V1721H4052.73V1431.8H4093.33C4095.73 1431.8 4097.8 1431.87 4099.53 1432C4101.26 1432.13 4102.8 1432.47 4104.13 1433C4105.6 1433.53 4106.86 1434.4 4107.93 1435.6C4109.13 1436.8 4110.26 1438.4 4111.33 1440.4L4197.93 1601C4200.2 1605.27 4202.26 1609.67 4204.13 1614.2C4206.13 1618.73 4208.06 1623.4 4209.93 1628.2C4211.8 1623.27 4213.73 1618.53 4215.73 1614C4217.73 1609.33 4219.86 1604.87 4222.13 1600.6L4307.53 1440.4C4308.6 1438.4 4309.73 1436.8 4310.93 1435.6C4312.13 1434.4 4313.4 1433.53 4314.73 1433C4316.2 1432.47 4317.8 1432.13 4319.53 1432C4321.26 1431.87 4323.33 1431.8 4325.73 1431.8H4366.33ZM4488.86 1721H4434.86V1431.8H4488.86V1721ZM4759.61 1476H4672.41V1721H4618.61V1476H4531.41V1431.8H4759.61V1476Z" fill="#1A496A"/>
<path d="M401.184 1009.68C389.731 1079.87 386.849 1151.4 392.708 1222.28L814.572 1175.8C812.966 1147.11 814.117 1118.09 818.019 1089.61L401.184 1009.68Z" fill="#3F7F45"/>
<path d="M855.709 960.986L480.969 761.76C449.308 825.458 425.52 892.934 410.198 962.408L826.99 1042.36C833.958 1014.44 843.599 987.069 855.709 960.986Z" fill="#1896D4"/>
<path d="M929.702 849.254L630.345 548.409C581.328 599.942 538.677 657.445 503.563 719.293L878.303 918.52C893.172 893.879 910.457 870.587 929.702 849.254Z" fill="#63B335"/>
<path d="M861.057 1351.15L471.67 1519.9C501.74 1584.38 539.684 1645.06 584.436 1700.33L906.792 1424.3C889.239 1401.5 873.889 1376.92 861.057 1351.15Z" fill="#F59D2D"/>
<path d="M615.705 1736.87C663.446 1789.62 717.559 1836.41 776.645 1876.04L1003.33 1517.26C979.863 1500.63 957.941 1481.66 938.095 1460.84L615.705 1736.87Z" fill="#DE1868"/>
<path d="M1033.34 764.249L835.955 388.53C773.931 423.328 716.237 465.667 664.453 514.439L963.811 815.283C985.252 796.118 1008.63 778.979 1033.34 764.249Z" fill="#02699E"/>
<path d="M397.957 1270.12C407.698 1340.59 426.027 1409.76 452.502 1475.76L841.889 1307C831.865 1280.06 824.442 1252.02 819.787 1223.63L397.957 1270.12Z" fill="#C99A2D"/>
<path d="M817.294 1901.8C878.45 1938.11 943.987 1966.91 1012.11 1987.35L1122.97 1577.68C1095.68 1568.68 1069.11 1557.03 1043.99 1542.98L817.294 1901.8Z" fill="#ED6930"/>
<path d="M1991.37 667.301C1952.06 608.045 1905.49 553.673 1852.98 505.674L1575.35 826.653C1596.06 846.606 1614.95 868.633 1631.46 892.174L1991.37 667.301Z" fill="#C51C2E"/>
<path d="M1157.44 713.592L1079.56 296.411C1010.02 311.382 942.417 334.859 878.549 366.192L1075.9 741.901C1102.11 729.883 1129.5 720.382 1157.44 713.592Z" fill="#1A496A"/>
<path d="M1816.62 474.232C1761.55 429.202 1701.06 390.976 1636.76 360.581L1466.08 749.159C1491.75 762.11 1516.26 777.602 1538.99 795.211L1816.62 474.232Z" fill="#4C9F37"/>
<path d="M1290.94 701.729L1339.51 280.104C1268.66 273.927 1197.11 276.421 1126.89 287.547L1204.76 704.728C1233.26 701.018 1262.24 700 1290.94 701.729Z" fill="#E6243C"/>
<path d="M1433.45 1566.85L1572.62 1967.78C1639.14 1942.61 1702.51 1909.32 1760.98 1868.84L1509.84 1526.75C1485.74 1542.48 1460.08 1555.97 1433.45 1566.85Z" fill="#2EBCE0"/>
<path d="M1548.58 1498.24L1799.73 1840.33C1855.87 1796.7 1906.62 1746.22 1950.53 1690.26L1609.71 1437.39C1591.38 1459.56 1570.84 1479.99 1548.58 1498.24Z" fill="#E8422E"/>
<path d="M1303.19 1598.44L1318.01 2022.58C1388.99 2018.14 1459.35 2005 1527.17 1983.56L1388 1582.63C1360.38 1590.56 1331.84 1595.91 1303.19 1598.44Z" fill="#FCC310"/>
<path d="M1169.41 1590.25L1058.55 1999.92C1127.69 2016.61 1198.76 2024.79 1269.92 2024.28L1255.1 1600.15C1226.34 1599.57 1197.54 1596.28 1169.41 1590.25Z" fill="#A31B43"/>
<path d="M1387.32 285.647L1338.75 707.271C1367.1 712.087 1395.11 719.666 1422.02 729.803L1592.7 341.225C1526.81 314.425 1457.73 295.733 1387.32 285.647Z" fill="#E5B735"/>
<path d="M1882.68 1475.64C1882.68 1468.36 1878.48 1463.6 1869.52 1463.6H1854.68V1487.96H1869.52C1878.48 1487.96 1882.68 1483.34 1882.68 1475.64ZM1830.74 1443.72H1870.92C1895 1443.72 1907.04 1457.58 1907.04 1474.66C1907.04 1486.98 1900.32 1498.6 1885.2 1503.08L1907.88 1542H1880.86L1860.42 1504.9H1854.68V1542H1830.74V1443.72ZM2014.61 1492.58C2014.61 1522.12 1992.21 1542.98 1964.35 1542.98C1936.49 1542.98 1913.81 1522.12 1913.81 1492.58C1913.81 1463.04 1936.49 1442.32 1964.35 1442.32C1992.35 1442.32 2014.61 1463.04 2014.61 1492.58ZM1938.31 1492.58C1938.31 1509.8 1948.39 1521.14 1964.35 1521.14C1980.03 1521.14 1990.25 1509.8 1990.25 1492.58C1990.25 1475.08 1980.03 1464.02 1964.35 1464.02C1948.39 1464.02 1938.31 1475.08 1938.31 1492.58ZM2090.79 1542L2084.91 1524.64H2048.23L2042.35 1542H2017.29L2052.85 1443.72H2080.57L2116.13 1542H2090.79ZM2078.75 1506.16L2066.57 1470.18L2054.53 1506.16H2078.75ZM2159.57 1443.72C2190.93 1443.72 2211.09 1463.6 2211.09 1492.86C2211.09 1521.98 2190.93 1542 2159.57 1542H2122.75V1443.72H2159.57ZM2146.69 1521.28H2158.03C2176.09 1521.28 2186.73 1510.92 2186.73 1492.86C2186.73 1474.8 2176.09 1464.16 2158.03 1464.16H2146.69V1521.28ZM2220.27 1542V1443.72H2248.55L2276.13 1511.76L2303.43 1443.72H2331.57V1542H2307.63V1483.06L2285.65 1542H2266.33L2244.21 1482.92V1542H2220.27ZM2411.64 1542L2405.76 1524.64H2369.08L2363.2 1542H2338.14L2373.7 1443.72H2401.42L2436.98 1542H2411.64ZM2399.6 1506.16L2387.42 1470.18L2375.38 1506.16H2399.6ZM2467.54 1487.68H2480.56C2490.08 1487.68 2494.14 1482.92 2494.14 1475.36C2494.14 1467.8 2490.08 1463.04 2480.56 1463.04H2467.54V1487.68ZM2518.5 1475.36C2518.5 1491.6 2507.44 1506.72 2482.38 1506.72H2467.54V1542H2443.6V1443.72H2482.38C2506.46 1443.72 2518.5 1457.3 2518.5 1475.36ZM2546.92 1462.9V1443.72H2622.94V1462.9H2596.9V1542H2572.96V1462.9H2546.92ZM2727.49 1492.58C2727.49 1522.12 2705.09 1542.98 2677.23 1542.98C2649.37 1542.98 2626.69 1522.12 2626.69 1492.58C2626.69 1463.04 2649.37 1442.32 2677.23 1442.32C2705.23 1442.32 2727.49 1463.04 2727.49 1492.58ZM2651.19 1492.58C2651.19 1509.8 2661.27 1521.14 2677.23 1521.14C2692.91 1521.14 2703.13 1509.8 2703.13 1492.58C2703.13 1475.08 2692.91 1464.02 2677.23 1464.02C2661.27 1464.02 2651.19 1475.08 2651.19 1492.58ZM2758.86 1540.6V1522.82C2780.56 1504.9 2803.66 1487.12 2803.66 1469.9C2803.66 1462.48 2800.3 1457.72 2793.02 1457.72C2785.88 1457.72 2781.68 1463.32 2781.68 1472.98H2758.58C2759.28 1448.2 2775.38 1437.56 2794 1437.56C2817.24 1437.56 2827.6 1451.14 2827.6 1468.36C2827.6 1490.76 2807.58 1508.68 2791.34 1521.14H2829.14V1540.6H2758.86ZM2835.48 1489.5C2835.48 1459.54 2845.7 1437.7 2874.82 1437.7C2903.94 1437.7 2914.16 1459.54 2914.16 1489.5C2914.16 1519.74 2903.94 1541.58 2874.82 1541.58C2845.7 1541.58 2835.48 1519.74 2835.48 1489.5ZM2890.64 1489.5C2890.64 1473.82 2888.96 1460.1 2874.82 1460.1C2860.68 1460.1 2859 1473.82 2859 1489.5C2859 1505.74 2860.68 1519.18 2874.82 1519.18C2888.96 1519.18 2890.64 1505.74 2890.64 1489.5ZM2923.45 1468.64C2924.29 1448.48 2937.45 1437.42 2958.31 1437.42C2979.87 1437.42 2991.49 1449.74 2991.49 1465.14C2991.49 1478.58 2983.09 1485.72 2976.09 1488.1V1488.66C2986.31 1492.02 2993.31 1499.86 2993.31 1513.3C2993.31 1530.52 2980.99 1542.84 2959.57 1542.84C2938.29 1542.84 2922.89 1532.76 2922.19 1509.66H2945.43C2945.57 1517.64 2949.91 1522.96 2958.73 1522.96C2966.15 1522.96 2970.21 1518.2 2970.21 1511.48C2970.21 1502.38 2964.75 1498.74 2952.29 1498.74H2947.81V1479.28H2952.29C2960.41 1479.28 2968.25 1477.32 2968.25 1468.08C2968.25 1461.22 2964.19 1457.44 2957.75 1457.44C2950.05 1457.44 2947.25 1463.04 2946.83 1468.64H2923.45ZM3003.17 1489.5C3003.17 1459.54 3013.39 1437.7 3042.51 1437.7C3071.63 1437.7 3081.85 1459.54 3081.85 1489.5C3081.85 1519.74 3071.63 1541.58 3042.51 1541.58C3013.39 1541.58 3003.17 1519.74 3003.17 1489.5ZM3058.33 1489.5C3058.33 1473.82 3056.65 1460.1 3042.51 1460.1C3028.37 1460.1 3026.69 1473.82 3026.69 1489.5C3026.69 1505.74 3028.37 1519.18 3042.51 1519.18C3056.65 1519.18 3058.33 1505.74 3058.33 1489.5Z" fill="#203C1B"/>
</svg>
