<svg width="4490" height="1846" viewBox="0 0 4490 1846" fill="none" xmlns="http://www.w3.org/2000/svg">
<path d="M1032.13 827.144C1029.23 824.242 1023.84 820.302 1015.96 815.326C1008.5 810.35 999.168 805.582 987.972 801.02C977.191 796.459 965.373 792.52 952.518 789.202C939.663 785.47 926.601 783.604 913.332 783.604C890.111 783.604 872.487 787.958 860.462 796.666C848.851 805.374 843.046 817.607 843.046 833.364C843.046 845.39 846.778 854.927 854.242 861.976C861.706 869.026 872.902 875.038 887.83 880.014C902.758 884.99 921.418 890.381 943.81 896.186C972.837 903.236 997.924 911.944 1019.07 922.31C1040.63 932.262 1057.01 945.532 1068.21 962.118C1079.82 978.29 1085.63 999.853 1085.63 1026.81C1085.63 1050.44 1081.27 1070.76 1072.56 1087.76C1063.86 1104.35 1051.83 1117.83 1036.49 1128.19C1021.15 1138.56 1003.73 1146.23 984.24 1151.21C964.751 1155.77 944.017 1158.05 922.04 1158.05C900.063 1158.05 878.085 1155.77 856.108 1151.21C834.131 1146.64 812.983 1140.22 792.664 1131.92C772.345 1123.22 753.685 1112.85 736.684 1100.82L774.626 1026.81C778.358 1030.54 784.993 1035.51 794.53 1041.73C804.067 1047.54 815.678 1053.55 829.362 1059.77C843.046 1065.58 857.974 1070.55 874.146 1074.7C890.318 1078.85 906.697 1080.92 923.284 1080.92C946.505 1080.92 964.129 1076.98 976.154 1069.1C988.179 1061.22 994.192 1050.03 994.192 1035.51C994.192 1022.24 989.423 1011.88 979.886 1004.41C970.349 996.95 957.079 990.523 940.078 985.132C923.077 979.327 902.965 973.107 879.744 966.472C851.961 958.594 828.74 949.886 810.08 940.348C791.42 930.396 777.529 917.956 768.406 903.028C759.283 888.1 754.722 869.44 754.722 847.048C754.722 816.778 761.771 791.483 775.87 771.164C790.383 750.431 809.873 734.881 834.338 724.514C858.803 713.733 885.964 708.342 915.82 708.342C936.553 708.342 956.043 710.623 974.288 715.184C992.948 719.746 1010.36 725.758 1026.54 733.222C1042.71 740.686 1057.22 748.772 1070.08 757.48L1032.13 827.144ZM1156.71 1153.07V711.452H1317.18C1365.29 711.452 1405.51 721.404 1437.85 741.308C1470.2 760.798 1494.45 787.336 1510.63 820.924C1526.8 854.098 1534.88 891.003 1534.88 931.64C1534.88 976.424 1525.97 1015.4 1508.14 1048.58C1490.31 1081.75 1465.01 1107.46 1432.25 1125.7C1399.91 1143.95 1361.55 1153.07 1317.18 1153.07H1156.71ZM1448.43 931.64C1448.43 903.028 1443.24 877.941 1432.88 856.378C1422.51 834.401 1407.58 817.4 1388.09 805.374C1368.6 792.934 1344.97 786.714 1317.18 786.714H1242.54V1077.81H1317.18C1345.38 1077.81 1369.23 1071.59 1388.71 1059.15C1408.2 1046.3 1422.92 1028.88 1432.88 1006.9C1443.24 984.51 1448.43 959.423 1448.43 931.64ZM1791.66 1156.18C1763.05 1156.18 1735.89 1150.38 1710.18 1138.77C1684.88 1127.16 1662.49 1111.19 1643 1090.87C1623.93 1070.14 1609 1046.09 1598.22 1018.72C1587.44 991.352 1582.05 961.704 1582.05 929.774C1582.05 899.504 1587.44 871.099 1598.22 844.56C1609 817.607 1624.13 793.971 1643.62 773.652C1663.11 753.334 1685.92 737.369 1712.04 725.758C1738.17 714.148 1766.57 708.342 1797.26 708.342C1838.72 708.342 1874.18 717.258 1903.62 735.088C1933.48 752.504 1955.87 775.726 1970.8 804.752L1906.73 852.024C1895.53 830.047 1879.78 813.253 1859.46 801.642C1839.55 790.032 1817.78 784.226 1794.15 784.226C1775.49 784.226 1758.49 788.166 1743.14 796.044C1727.8 803.923 1714.53 814.704 1703.34 828.388C1692.14 842.072 1683.43 857.83 1677.21 875.66C1671.41 893.491 1668.5 912.358 1668.5 932.262C1668.5 953.41 1671.61 972.9 1677.83 990.73C1684.47 1008.56 1693.59 1024.11 1705.2 1037.38C1717.23 1050.65 1731.12 1061.22 1746.88 1069.1C1762.63 1076.57 1780.05 1080.3 1799.12 1080.3C1821.52 1080.3 1842.87 1074.49 1863.19 1062.88C1883.92 1051.27 1903.2 1034.27 1921.04 1011.88V1096.47C1884.13 1136.28 1841 1156.18 1791.66 1156.18ZM1914.82 988.864H1825.87V926.042H1985.72V1153.07H1914.82V988.864ZM2220.74 1153.07V711.452H2306.58V1153.07H2220.74ZM2765.07 1153.07V863.22L2651.87 1079.05H2603.98L2490.77 863.22V1153.07H2404.94V711.452H2496.99L2627.61 962.74L2759.48 711.452H2850.91V1153.07H2765.07ZM2949.33 1153.07V711.452H3136.55C3156.87 711.452 3175.53 715.599 3192.53 723.892C3209.54 732.186 3224.26 743.382 3236.7 757.48C3249.55 771.579 3259.5 787.336 3266.55 804.752C3273.6 822.168 3277.13 839.999 3277.13 858.244C3277.13 883.124 3271.32 906.76 3259.71 929.152C3248.1 951.544 3232.14 969.79 3211.82 983.888C3191.5 997.987 3167.45 1005.04 3139.66 1005.04H3035.17V1153.07H2949.33ZM3035.17 929.774H3134.69C3145.06 929.774 3154.39 926.872 3162.68 921.066C3170.97 915.261 3177.61 906.968 3182.58 896.186C3187.56 884.99 3190.05 872.343 3190.05 858.244C3190.05 842.902 3187.14 829.84 3181.34 819.058C3175.95 808.277 3168.69 800.191 3159.57 794.8C3150.86 789.41 3141.32 786.714 3130.96 786.714H3035.17V929.774ZM3430.94 711.452H3518.02L3680.36 1153.07H3592.04L3550.99 1042.98H3396.73L3356.3 1153.07H3267.98L3430.94 711.452ZM3535.44 982.644L3474.48 800.398L3411.04 982.644H3535.44ZM3691.27 929.152C3691.27 902.199 3696.04 875.868 3705.57 850.158C3715.52 824.034 3729.83 800.398 3748.49 779.25C3767.15 757.688 3789.96 740.686 3816.91 728.246C3843.86 715.392 3874.55 708.964 3908.97 708.964C3949.6 708.964 3984.64 717.88 4014.08 735.71C4043.94 753.541 4066.13 776.762 4080.64 805.374L4014.71 850.78C4007.24 834.194 3997.5 821.132 3985.47 811.594C3973.45 801.642 3960.59 794.8 3946.91 791.068C3933.22 786.922 3919.75 784.848 3906.48 784.848C3884.92 784.848 3866.05 789.202 3849.88 797.91C3834.12 806.618 3820.85 818.022 3810.07 832.12C3799.29 846.219 3791.2 861.976 3785.81 879.392C3780.83 896.808 3778.35 914.224 3778.35 931.64C3778.35 951.13 3781.46 969.997 3787.68 988.242C3793.9 1006.07 3802.6 1022.04 3813.8 1036.14C3825.41 1049.82 3839.1 1060.81 3854.85 1069.1C3871.02 1076.98 3888.65 1080.92 3907.72 1080.92C3921.41 1080.92 3935.3 1078.64 3949.4 1074.08C3963.5 1069.52 3976.56 1062.26 3988.58 1052.31C4000.61 1042.36 4009.94 1029.5 4016.57 1013.74L4086.86 1054.17C4078.15 1076.15 4063.84 1094.81 4043.94 1110.15C4024.45 1125.5 4002.47 1137.11 3978.01 1144.99C3953.54 1152.86 3929.29 1156.8 3905.23 1156.8C3873.72 1156.8 3844.9 1150.38 3818.78 1137.52C3792.65 1124.25 3770.05 1106.84 3750.98 1085.27C3732.32 1063.3 3717.6 1038.83 3706.82 1011.88C3696.45 984.51 3691.27 956.935 3691.27 929.152ZM4480.92 786.714H4339.73V1153.07H4254.52V786.714H4113.32V711.452H4480.92V786.714Z" fill="white"/>
<path d="M2953.2 1257.4C2951.6 1260.2 2949.87 1262.27 2948 1263.6C2946.27 1264.8 2944.07 1265.4 2941.4 1265.4C2938.6 1265.4 2935.53 1264.4 2932.2 1262.4C2929 1260.27 2925.13 1257.93 2920.6 1255.4C2916.07 1252.87 2910.73 1250.6 2904.6 1248.6C2898.6 1246.47 2891.47 1245.4 2883.2 1245.4C2875.73 1245.4 2869.2 1246.33 2863.6 1248.2C2858 1249.93 2853.27 1252.4 2849.4 1255.6C2845.67 1258.8 2842.87 1262.67 2841 1267.2C2839.13 1271.6 2838.2 1276.47 2838.2 1281.8C2838.2 1288.6 2840.07 1294.27 2843.8 1298.8C2847.67 1303.33 2852.73 1307.2 2859 1310.4C2865.27 1313.6 2872.4 1316.47 2880.4 1319C2888.4 1321.53 2896.6 1324.27 2905 1327.2C2913.4 1330 2921.6 1333.33 2929.6 1337.2C2937.6 1340.93 2944.73 1345.73 2951 1351.6C2957.27 1357.33 2962.27 1364.4 2966 1372.8C2969.87 1381.2 2971.8 1391.4 2971.8 1403.4C2971.8 1416.47 2969.53 1428.73 2965 1440.2C2960.6 1451.53 2954.07 1461.47 2945.4 1470C2936.87 1478.4 2926.4 1485.07 2914 1490C2901.6 1494.8 2887.4 1497.2 2871.4 1497.2C2862.2 1497.2 2853.13 1496.27 2844.2 1494.4C2835.27 1492.67 2826.67 1490.13 2818.4 1486.8C2810.27 1483.47 2802.6 1479.47 2795.4 1474.8C2788.2 1470.13 2781.8 1464.93 2776.2 1459.2L2792 1433.4C2793.33 1431.53 2795.07 1430 2797.2 1428.8C2799.33 1427.47 2801.6 1426.8 2804 1426.8C2807.33 1426.8 2810.93 1428.2 2814.8 1431C2818.67 1433.67 2823.27 1436.67 2828.6 1440C2833.93 1443.33 2840.13 1446.4 2847.2 1449.2C2854.4 1451.87 2863 1453.2 2873 1453.2C2888.33 1453.2 2900.2 1449.6 2908.6 1442.4C2917 1435.07 2921.2 1424.6 2921.2 1411C2921.2 1403.4 2919.27 1397.2 2915.4 1392.4C2911.67 1387.6 2906.67 1383.6 2900.4 1380.4C2894.13 1377.07 2887 1374.27 2879 1372C2871 1369.73 2862.87 1367.27 2854.6 1364.6C2846.33 1361.93 2838.2 1358.73 2830.2 1355C2822.2 1351.27 2815.07 1346.4 2808.8 1340.4C2802.53 1334.4 2797.47 1326.93 2793.6 1318C2789.87 1308.93 2788 1297.8 2788 1284.6C2788 1274.07 2790.07 1263.8 2794.2 1253.8C2798.47 1243.8 2804.6 1234.93 2812.6 1227.2C2820.6 1219.47 2830.47 1213.27 2842.2 1208.6C2853.93 1203.93 2867.4 1201.6 2882.6 1201.6C2899.67 1201.6 2915.4 1204.27 2929.8 1209.6C2944.2 1214.93 2956.47 1222.4 2966.6 1232L2953.2 1257.4ZM3139.13 1450.6C3149.53 1450.6 3158.8 1448.87 3166.93 1445.4C3175.2 1441.93 3182.13 1437.07 3187.73 1430.8C3193.33 1424.53 3197.6 1416.93 3200.53 1408C3203.6 1399.07 3205.13 1389.07 3205.13 1378V1204.8H3258.93V1378C3258.93 1395.2 3256.13 1411.13 3250.53 1425.8C3245.06 1440.33 3237.13 1452.93 3226.73 1463.6C3216.46 1474.13 3203.93 1482.4 3189.13 1488.4C3174.33 1494.27 3157.66 1497.2 3139.13 1497.2C3120.46 1497.2 3103.73 1494.27 3088.93 1488.4C3074.13 1482.4 3061.53 1474.13 3051.13 1463.6C3040.86 1452.93 3032.93 1440.33 3027.33 1425.8C3021.86 1411.13 3019.13 1395.2 3019.13 1378V1204.8H3072.93V1377.8C3072.93 1388.87 3074.4 1398.87 3077.33 1407.8C3080.4 1416.73 3084.73 1424.4 3090.33 1430.8C3096.06 1437.07 3103 1441.93 3111.13 1445.4C3119.4 1448.87 3128.73 1450.6 3139.13 1450.6ZM3637.21 1204.8V1494H3589.81V1307.2C3589.81 1299.73 3590.21 1291.67 3591.01 1283L3503.61 1447.2C3499.47 1455.07 3493.14 1459 3484.61 1459H3477.01C3468.47 1459 3462.14 1455.07 3458.01 1447.2L3369.61 1282.4C3370.01 1286.8 3370.34 1291.13 3370.61 1295.4C3370.87 1299.67 3371.01 1303.6 3371.01 1307.2V1494H3323.61V1204.8H3364.21C3366.61 1204.8 3368.67 1204.87 3370.41 1205C3372.14 1205.13 3373.67 1205.47 3375.01 1206C3376.47 1206.53 3377.74 1207.4 3378.81 1208.6C3380.01 1209.8 3381.14 1211.4 3382.21 1213.4L3468.81 1374C3471.07 1378.27 3473.14 1382.67 3475.01 1387.2C3477.01 1391.73 3478.94 1396.4 3480.81 1401.2C3482.67 1396.27 3484.61 1391.53 3486.61 1387C3488.61 1382.33 3490.74 1377.87 3493.01 1373.6L3578.41 1213.4C3579.47 1211.4 3580.61 1209.8 3581.81 1208.6C3583.01 1207.4 3584.27 1206.53 3585.61 1206C3587.07 1205.47 3588.67 1205.13 3590.41 1205C3592.14 1204.87 3594.21 1204.8 3596.61 1204.8H3637.21ZM4019.33 1204.8V1494H3971.93V1307.2C3971.93 1299.73 3972.33 1291.67 3973.13 1283L3885.73 1447.2C3881.6 1455.07 3875.26 1459 3866.73 1459H3859.13C3850.6 1459 3844.26 1455.07 3840.13 1447.2L3751.73 1282.4C3752.13 1286.8 3752.46 1291.13 3752.73 1295.4C3753 1299.67 3753.13 1303.6 3753.13 1307.2V1494H3705.73V1204.8H3746.33C3748.73 1204.8 3750.8 1204.87 3752.53 1205C3754.26 1205.13 3755.8 1205.47 3757.13 1206C3758.6 1206.53 3759.86 1207.4 3760.93 1208.6C3762.13 1209.8 3763.26 1211.4 3764.33 1213.4L3850.93 1374C3853.2 1378.27 3855.26 1382.67 3857.13 1387.2C3859.13 1391.73 3861.06 1396.4 3862.93 1401.2C3864.8 1396.27 3866.73 1391.53 3868.73 1387C3870.73 1382.33 3872.86 1377.87 3875.13 1373.6L3960.53 1213.4C3961.6 1211.4 3962.73 1209.8 3963.93 1208.6C3965.13 1207.4 3966.4 1206.53 3967.73 1206C3969.2 1205.47 3970.8 1205.13 3972.53 1205C3974.26 1204.87 3976.33 1204.8 3978.73 1204.8H4019.33ZM4141.86 1494H4087.86V1204.8H4141.86V1494ZM4412.61 1249H4325.41V1494H4271.61V1249H4184.41V1204.8H4412.61V1249Z" fill="white"/>
<path d="M54.1835 782.682C42.7305 852.874 39.8495 924.397 45.7077 995.283L467.572 948.803C465.966 920.106 467.117 891.094 471.019 862.607L54.1835 782.682Z" fill="#3F7F45"/>
<path d="M508.709 733.986L133.969 534.76C102.308 598.458 78.5203 665.934 63.1979 735.408L479.99 815.357C486.958 787.443 496.599 760.069 508.709 733.986Z" fill="#1896D4"/>
<path d="M582.702 622.254L283.345 321.409C234.328 372.942 191.677 430.445 156.563 492.293L531.303 691.52C546.172 666.879 563.457 643.587 582.702 622.254Z" fill="#63B335"/>
<path d="M514.057 1124.15L124.67 1292.9C154.74 1357.38 192.684 1418.06 237.436 1473.33L559.792 1197.3C542.239 1174.5 526.889 1149.92 514.057 1124.15Z" fill="#F59D2D"/>
<path d="M268.705 1509.87C316.446 1562.62 370.559 1609.41 429.645 1649.04L656.33 1290.26C632.863 1273.63 610.941 1254.66 591.095 1233.84L268.705 1509.87Z" fill="#DE1868"/>
<path d="M686.34 537.249L488.955 161.531C426.931 196.329 369.237 238.668 317.453 287.439L616.811 588.284C638.252 569.118 661.633 551.979 686.34 537.249Z" fill="#02699E"/>
<path d="M50.9567 1043.12C60.6975 1113.59 79.027 1182.76 105.502 1248.76L494.889 1080C484.865 1053.06 477.442 1025.02 472.787 996.631L50.9567 1043.12Z" fill="#C99A2D"/>
<path d="M470.294 1674.8C531.45 1711.11 596.987 1739.9 665.11 1760.35L775.971 1350.68C748.679 1341.68 722.108 1330.03 696.988 1315.98L470.294 1674.8Z" fill="#ED6930"/>
<path d="M1644.37 440.301C1605.06 381.045 1558.49 326.673 1505.98 278.674L1228.35 599.653C1249.06 619.606 1267.95 641.633 1284.46 665.174L1644.37 440.301Z" fill="#C51C2E"/>
<path d="M810.437 486.592L732.561 69.411C663.017 84.3816 595.417 107.859 531.549 139.192L728.9 514.901C755.106 502.883 782.498 493.382 810.437 486.592Z" fill="#1A496A"/>
<path d="M1469.62 247.232C1414.55 202.202 1354.06 163.976 1289.76 133.581L1119.08 522.159C1144.75 535.11 1169.26 550.602 1191.99 568.211L1469.62 247.232Z" fill="#4C9F37"/>
<path d="M943.945 474.729L992.509 53.1041C921.659 46.9275 850.11 49.4211 779.885 60.5469L857.761 477.728C886.258 474.018 915.235 473 943.945 474.729Z" fill="#E6243C"/>
<path d="M1086.45 1339.85L1225.62 1740.78C1292.14 1715.61 1355.51 1682.32 1413.98 1641.84L1162.84 1299.75C1138.74 1315.48 1113.08 1328.97 1086.45 1339.85Z" fill="#2EBCE0"/>
<path d="M1201.58 1271.24L1452.73 1613.33C1508.87 1569.69 1559.62 1519.22 1603.53 1463.26L1262.71 1210.39C1244.38 1232.56 1223.84 1252.99 1201.58 1271.24Z" fill="#E8422E"/>
<path d="M956.186 1371.44L971.007 1795.58C1041.99 1791.14 1112.35 1778 1180.17 1756.56L1041 1355.63C1013.38 1363.56 984.84 1368.91 956.186 1371.44Z" fill="#FCC310"/>
<path d="M822.407 1363.25L711.547 1772.92C780.685 1789.61 851.763 1797.79 922.923 1797.28L908.101 1373.15C879.335 1372.57 850.536 1369.28 822.407 1363.25Z" fill="#A31B43"/>
<path d="M1040.32 58.6468L991.751 480.271C1020.1 485.087 1048.11 492.666 1075.02 502.803L1245.7 114.225C1179.81 87.4249 1110.73 68.7325 1040.32 58.6468Z" fill="#E5B735"/>
<path d="M1535.68 1248.64C1535.68 1241.36 1531.48 1236.6 1522.52 1236.6H1507.68V1260.96H1522.52C1531.48 1260.96 1535.68 1256.34 1535.68 1248.64ZM1483.74 1216.72H1523.92C1548 1216.72 1560.04 1230.58 1560.04 1247.66C1560.04 1259.98 1553.32 1271.6 1538.2 1276.08L1560.88 1315H1533.86L1513.42 1277.9H1507.68V1315H1483.74V1216.72ZM1667.61 1265.58C1667.61 1295.12 1645.21 1315.98 1617.35 1315.98C1589.49 1315.98 1566.81 1295.12 1566.81 1265.58C1566.81 1236.04 1589.49 1215.32 1617.35 1215.32C1645.35 1215.32 1667.61 1236.04 1667.61 1265.58ZM1591.31 1265.58C1591.31 1282.8 1601.39 1294.14 1617.35 1294.14C1633.03 1294.14 1643.25 1282.8 1643.25 1265.58C1643.25 1248.08 1633.03 1237.02 1617.35 1237.02C1601.39 1237.02 1591.31 1248.08 1591.31 1265.58ZM1743.79 1315L1737.91 1297.64H1701.23L1695.35 1315H1670.29L1705.85 1216.72H1733.57L1769.13 1315H1743.79ZM1731.75 1279.16L1719.57 1243.18L1707.53 1279.16H1731.75ZM1812.57 1216.72C1843.93 1216.72 1864.09 1236.6 1864.09 1265.86C1864.09 1294.98 1843.93 1315 1812.57 1315H1775.75V1216.72H1812.57ZM1799.69 1294.28H1811.03C1829.09 1294.28 1839.73 1283.92 1839.73 1265.86C1839.73 1247.8 1829.09 1237.16 1811.03 1237.16H1799.69V1294.28ZM1873.27 1315V1216.72H1901.55L1929.13 1284.76L1956.43 1216.72H1984.57V1315H1960.63V1256.06L1938.65 1315H1919.33L1897.21 1255.92V1315H1873.27ZM2064.64 1315L2058.76 1297.64H2022.08L2016.2 1315H1991.14L2026.7 1216.72H2054.42L2089.98 1315H2064.64ZM2052.6 1279.16L2040.42 1243.18L2028.38 1279.16H2052.6ZM2120.54 1260.68H2133.56C2143.08 1260.68 2147.14 1255.92 2147.14 1248.36C2147.14 1240.8 2143.08 1236.04 2133.56 1236.04H2120.54V1260.68ZM2171.5 1248.36C2171.5 1264.6 2160.44 1279.72 2135.38 1279.72H2120.54V1315H2096.6V1216.72H2135.38C2159.46 1216.72 2171.5 1230.3 2171.5 1248.36ZM2199.92 1235.9V1216.72H2275.94V1235.9H2249.9V1315H2225.96V1235.9H2199.92ZM2380.49 1265.58C2380.49 1295.12 2358.09 1315.98 2330.23 1315.98C2302.37 1315.98 2279.69 1295.12 2279.69 1265.58C2279.69 1236.04 2302.37 1215.32 2330.23 1215.32C2358.23 1215.32 2380.49 1236.04 2380.49 1265.58ZM2304.19 1265.58C2304.19 1282.8 2314.27 1294.14 2330.23 1294.14C2345.91 1294.14 2356.13 1282.8 2356.13 1265.58C2356.13 1248.08 2345.91 1237.02 2330.23 1237.02C2314.27 1237.02 2304.19 1248.08 2304.19 1265.58ZM2411.86 1313.6V1295.82C2433.56 1277.9 2456.66 1260.12 2456.66 1242.9C2456.66 1235.48 2453.3 1230.72 2446.02 1230.72C2438.88 1230.72 2434.68 1236.32 2434.68 1245.98H2411.58C2412.28 1221.2 2428.38 1210.56 2447 1210.56C2470.24 1210.56 2480.6 1224.14 2480.6 1241.36C2480.6 1263.76 2460.58 1281.68 2444.34 1294.14H2482.14V1313.6H2411.86ZM2488.48 1262.5C2488.48 1232.54 2498.7 1210.7 2527.82 1210.7C2556.94 1210.7 2567.16 1232.54 2567.16 1262.5C2567.16 1292.74 2556.94 1314.58 2527.82 1314.58C2498.7 1314.58 2488.48 1292.74 2488.48 1262.5ZM2543.64 1262.5C2543.64 1246.82 2541.96 1233.1 2527.82 1233.1C2513.68 1233.1 2512 1246.82 2512 1262.5C2512 1278.74 2513.68 1292.18 2527.82 1292.18C2541.96 1292.18 2543.64 1278.74 2543.64 1262.5ZM2576.45 1241.64C2577.29 1221.48 2590.45 1210.42 2611.31 1210.42C2632.87 1210.42 2644.49 1222.74 2644.49 1238.14C2644.49 1251.58 2636.09 1258.72 2629.09 1261.1V1261.66C2639.31 1265.02 2646.31 1272.86 2646.31 1286.3C2646.31 1303.52 2633.99 1315.84 2612.57 1315.84C2591.29 1315.84 2575.89 1305.76 2575.19 1282.66H2598.43C2598.57 1290.64 2602.91 1295.96 2611.73 1295.96C2619.15 1295.96 2623.21 1291.2 2623.21 1284.48C2623.21 1275.38 2617.75 1271.74 2605.29 1271.74H2600.81V1252.28H2605.29C2613.41 1252.28 2621.25 1250.32 2621.25 1241.08C2621.25 1234.22 2617.19 1230.44 2610.75 1230.44C2603.05 1230.44 2600.25 1236.04 2599.83 1241.64H2576.45ZM2656.17 1262.5C2656.17 1232.54 2666.39 1210.7 2695.51 1210.7C2724.63 1210.7 2734.85 1232.54 2734.85 1262.5C2734.85 1292.74 2724.63 1314.58 2695.51 1314.58C2666.39 1314.58 2656.17 1292.74 2656.17 1262.5ZM2711.33 1262.5C2711.33 1246.82 2709.65 1233.1 2695.51 1233.1C2681.37 1233.1 2679.69 1246.82 2679.69 1262.5C2679.69 1278.74 2681.37 1292.18 2695.51 1292.18C2709.65 1292.18 2711.33 1278.74 2711.33 1262.5Z" fill="white"/>
</svg>
