<svg width="436" height="438" viewBox="0 0 436 438" fill="none" xmlns="http://www.w3.org/2000/svg">
<path d="M111.905 156.982C117.424 147.687 123.924 139.4 131.432 131.863L67.3458 61.5518C51.3206 76.6257 37.558 94.6972 26.793 114.282L111.905 156.982Z" fill="#63B335"/>
<path d="M268.895 107.249C278.651 111.774 287.672 117.293 295.67 124.081L359.771 53.769C342.996 39.1994 323.714 26.8923 302.933 18.1016L268.895 107.249Z" fill="#E5B735"/>
<path d="M415.85 128.344L330.738 170.784C334.745 180.325 337.742 190.369 339.241 200.918L433.878 191.882C431.126 169.531 424.857 148.188 415.85 128.344Z" fill="#C51C2E"/>
<path d="M324.719 158.476L409.831 116.036C399.311 96.451 385.793 78.6245 370.027 63.0605L305.941 133.372C313.205 140.895 319.459 149.441 324.719 158.476Z" fill="#4C9F37"/>
<mask id="mask0_1507_7076" style="mask-type:luminance" maskUnits="userSpaceOnUse" x="0" y="204" width="101" height="71">
<path d="M0.015625 204.005H100.879V274.1H0.015625V204.005Z" fill="white"/>
</mask>
<g mask="url(#mask0_1507_7076)">
<path d="M94.8982 219.244C94.8982 217.241 94.8982 215.483 95.1576 213.465L0.520013 204.934C0.275025 209.704 0.015625 214.474 0.015625 219.244C0.015625 237.575 2.27817 255.156 6.52943 271.974L97.9101 245.616C95.907 237.07 94.8982 228.28 94.8982 219.244Z" fill="#3F7F45"/>
</g>
<path d="M312.697 297.098C305.938 305.384 298.171 312.662 289.668 318.945L339.732 400.05C358.25 387.498 374.78 371.934 388.802 354.353L312.697 297.098Z" fill="#FCC310"/>
<path d="M340.725 219.255C340.725 228.29 339.731 237.081 337.973 245.367L429.353 271.74C433.605 254.922 435.867 237.34 435.867 219.255C435.867 214.729 435.608 210.219 435.363 205.953L340.48 214.729C340.48 216.243 340.725 217.756 340.725 219.255Z" fill="#E8422E"/>
<path d="M124.44 299.105L48.8398 356.865C62.8618 374.202 79.6219 389.506 98.1546 401.813L148.219 320.708C139.212 314.424 131.444 307.147 124.44 299.105Z" fill="#F59D2D"/>
<path d="M96.6521 199.667C98.3958 188.874 101.408 178.57 105.659 169.03L20.5472 126.589C11.0359 146.678 4.76704 168.28 1.76953 191.136L96.6521 199.667Z" fill="#1896D4"/>
<path d="M327.967 407.591L278.148 326.485C269.141 331.5 259.384 335.766 249.109 338.288L266.633 431.946C288.423 427.176 309.204 418.644 327.967 407.591Z" fill="#A31B43"/>
<path d="M334.234 258.685C330.977 268.47 326.466 277.52 320.961 286.051L396.821 343.566C409.085 325.725 418.841 306.14 425.614 285.057L334.234 258.685Z" fill="#2EBCE0"/>
<mask id="mask1_1507_7076" style="mask-type:luminance" maskUnits="userSpaceOnUse" x="185" y="340" width="71" height="98">
<path d="M185.719 340.5H255.814V437.703H185.719V340.5Z" fill="white"/>
</mask>
<g mask="url(#mask1_1507_7076)">
<path d="M235.579 341.038C229.829 341.802 223.82 342.306 217.81 342.306C213.055 342.306 208.299 342.047 203.543 341.542L186.02 435.214C196.525 436.713 207.045 437.477 217.81 437.477C229.829 437.477 241.589 436.468 253.103 434.71L235.579 341.038Z" fill="#ED6930"/>
</g>
<mask id="mask2_1507_7076" style="mask-type:luminance" maskUnits="userSpaceOnUse" x="222" y="0" width="71" height="105">
<path d="M222.621 0.535156H292.717V104.396H222.621V0.535156Z" fill="white"/>
</mask>
<g mask="url(#mask2_1507_7076)">
<path d="M225.574 96.1997C236.094 96.9491 246.355 98.9522 255.866 101.979L289.92 13.0766C269.888 5.799 248.113 1.51891 225.574 0.769531V96.1997Z" fill="#E6243C"/>
</g>
<path d="M190.021 339.28C179.271 336.772 169.255 333.011 159.989 327.736L109.91 408.842C129.192 419.895 150.218 428.182 172.497 432.952L190.021 339.28Z" fill="#DE1868"/>
<mask id="mask3_1507_7076" style="mask-type:luminance" maskUnits="userSpaceOnUse" x="145" y="0" width="71" height="105">
<path d="M145.148 0.535156H215.244V104.396H145.148V0.535156Z" fill="white"/>
</mask>
<g mask="url(#mask3_1507_7076)">
<path d="M181.017 101.719C190.788 98.7072 201.294 96.7041 212.059 96.1997V0.769531C189.275 1.27392 167.255 5.5396 146.719 12.8316L181.017 101.719Z" fill="#1A496A"/>
</g>
<path d="M116.184 288.06C110.175 279.01 105.16 269.225 101.658 258.921L10.2773 285.293C17.2955 307.14 27.5562 327.474 40.5694 345.805L116.184 288.06Z" fill="#C99A2D"/>
<path d="M141.71 122.567C149.722 116.298 158.484 110.765 167.996 106.499L133.697 17.6113C113.162 26.1427 94.3839 37.9454 77.6094 52.0106L141.71 122.567Z" fill="#02699E"/>
</svg>
