<svg width="521" height="521" viewBox="0 0 521 521" fill="none" xmlns="http://www.w3.org/2000/svg">
<mask id="mask0_1507_7067" style="mask-type:luminance" maskUnits="userSpaceOnUse" x="0" y="0" width="521" height="521">
<path d="M0.132812 0.0273438H520.315V520.21H0.132812V0.0273438Z" fill="white"/>
</mask>
<g mask="url(#mask0_1507_7067)">
<path d="M0.132812 0.0273438H520.315V520.21H0.132812V0.0273438Z" fill="#19486A"/>
</g>
<path d="M78.0426 43.6816V148.753H60.2593V68.2525L47.6641 81.1793V62.7475L63.8189 43.6816H78.0426ZM86.1272 43.6816H130.095V60.1679L107.139 148.753H89.6868L113.292 58.2224H86.1272V43.6816ZM392.291 315.561C392.291 279.029 363.195 249.299 326.98 248.002C317.612 221.817 292.393 202.737 262.966 202.737C233.553 202.737 208.333 221.486 198.966 248.002C162.751 249.299 133.655 279.029 133.655 315.561C133.655 337.235 144.002 356.633 159.84 368.911C158.226 374.733 157.26 381.204 157.26 387.66C157.26 425.172 187.639 455.55 225.151 455.55C239.375 455.55 252.633 451.025 263.297 443.589C273.961 450.708 286.902 454.902 300.795 454.902C338.307 454.902 368.685 424.523 368.685 387.011C368.685 380.555 367.72 374.402 366.106 368.594C382.275 356.633 392.291 337.235 392.291 315.561ZM317.281 270.627C317.281 297.792 297.235 320.101 271.05 323.977C270.733 321.383 270.402 318.472 270.402 315.561C270.402 288.411 290.448 266.102 316.632 262.226C316.964 264.805 317.281 267.716 317.281 270.627ZM263.614 426.137C253.598 416.439 247.128 402.532 247.128 387.343C247.128 372.47 253.267 358.895 262.966 348.865C272.996 358.564 279.466 372.47 279.466 387.66C279.466 402.863 273.313 416.439 263.614 426.137ZM209.947 262.226C236.132 266.102 256.178 288.411 256.178 315.561C256.178 318.472 255.861 321.066 255.529 323.977C229.345 320.101 209.299 297.792 209.299 270.627C209.299 267.716 209.299 264.805 209.947 262.226ZM250.37 339.815C241.306 357.598 223.205 369.876 202.194 369.876C193.144 369.876 184.728 367.614 177.292 363.737C186.356 345.954 204.457 333.676 225.799 333.676C234.201 333.676 242.934 335.938 250.37 339.815ZM276.224 339.498C283.66 335.607 292.062 333.344 301.126 333.344C322.455 333.344 340.886 345.637 349.619 363.737C342.183 367.614 333.45 369.876 324.717 369.876C303.389 369.876 284.957 357.598 276.224 339.498ZM263.297 216.312C285.605 216.312 304.671 229.57 312.756 248.967C290.779 252.844 272.347 267.399 263.297 287.114C254.247 267.399 235.815 252.844 213.838 248.967C221.908 229.902 240.989 216.312 263.297 216.312ZM147.879 315.561C147.879 287.762 169.222 264.805 196.055 261.894C195.723 264.805 195.406 267.716 195.406 270.627C195.406 290.356 203.808 308.125 217.383 320.735C194.758 323.329 175.678 336.904 165.331 355.984C154.666 345.954 147.879 331.73 147.879 315.561ZM171.153 387.991C171.153 384.1 171.484 380.555 172.45 376.664C181.5 380.872 191.198 383.466 201.863 383.466C213.838 383.466 224.819 380.555 234.518 375.05C233.87 378.927 233.236 383.135 233.236 387.66C233.236 406.091 240.672 422.578 252.301 434.87C244.217 439.713 234.85 442.307 225.151 442.307C195.406 441.975 171.153 417.736 171.153 387.991ZM355.441 387.343C355.441 417.087 331.188 441.327 301.443 441.327C291.745 441.327 282.694 438.747 274.61 434.222C286.254 421.929 293.359 405.774 293.359 387.66C293.359 383.135 293.042 378.927 292.062 374.733C301.775 380.224 313.087 383.135 325.049 383.135C335.713 383.135 345.728 380.555 354.462 376.347C354.793 380.224 355.441 383.783 355.441 387.343ZM309.196 320.101C322.455 307.808 330.871 290.025 330.871 270.31C330.871 267.399 330.539 264.488 330.222 261.577C357.373 264.488 378.384 287.445 378.384 315.244C378.384 331.082 371.596 345.306 360.601 355.336C350.902 336.587 331.836 322.997 309.196 320.101Z" fill="white"/>
<path d="M165.973 43.683H176.651C183.756 43.683 186.35 47.2281 186.35 53.0502V62.1004C186.35 67.9225 183.756 71.799 176.651 71.799H173.092V86.3542H165.973V43.683ZM173.409 49.4907V66.3084H176.003C178.582 66.3084 179.562 65.0114 179.562 62.7489V53.0502C179.562 50.7877 178.582 49.4907 176.003 49.4907H173.409ZM187.315 86.3542L195.4 44.0001H203.485L211.555 86.3542H204.119L202.836 78.5867H195.4L194.103 86.3542H187.315ZM196.366 72.779H202.188L199.277 55.6442L196.366 72.779ZM222.551 66.6255V86.0228H215.446V43.683H225.793C232.898 43.683 235.492 47.2281 235.492 53.0502V58.5553C235.492 63.0803 233.863 65.6599 229.67 66.6255L236.457 86.0228H229.021L222.551 66.6255ZM222.551 49.4907V62.7489H224.813C227.407 62.7489 228.373 61.4519 228.373 59.1893V53.0502C228.373 50.7877 227.407 49.4907 224.813 49.4907H222.551ZM238.071 43.683H257.152V49.4907H251.329V86.0228H244.21V49.4907H238.388V43.683H238.071ZM267.499 59.5208V86.3542H261.345V44.0001H268.464L276.217 68.2539V44.0001H282.039V86.3542H275.9L267.499 59.5208ZM288.179 43.683H305.313V49.4907H295.298V61.7833H302.402V67.6054H295.298V80.5322H305.313V86.3542H288.179V43.683ZM316.958 66.6255V86.0228H309.838V43.683H320.186C327.305 43.683 329.884 47.2281 329.884 53.0502V58.5553C329.884 63.0803 328.27 65.6599 324.062 66.6255L330.864 86.0228H323.428L316.958 66.6255ZM316.958 49.4907V62.7489H319.22C321.8 62.7489 322.78 61.4519 322.78 59.1893V53.0502C322.78 50.7877 321.8 49.4907 319.22 49.4907H316.958ZM333.444 76.9726V71.482H340.231V77.3041C340.231 79.5666 341.197 81.1807 343.791 81.1807C346.054 81.1807 347.019 79.5666 347.019 77.3041V75.69C347.019 73.096 346.054 71.799 343.791 69.5365L339.583 65.3429C335.389 61.4519 333.761 58.8723 333.761 54.0302V52.7332C333.761 47.5596 337.003 43.3516 343.791 43.3516C350.896 43.3516 353.807 46.9111 353.807 53.0502V56.6098H347.351V53.0502C347.351 50.4706 346.371 49.4907 344.108 49.4907C342.177 49.4907 340.88 50.4706 340.88 53.0502V54.0302C340.88 56.2927 342.177 57.9068 344.108 59.8378L348.633 64.3629C352.524 68.2539 354.455 70.8335 354.455 75.3586V77.3041C354.455 83.1262 351.227 87.3198 344.108 87.3198C336.355 86.6713 333.444 82.7947 333.444 76.9726ZM372.57 67.6054H365.768V86.3542H358.332V44.0001H365.451V62.1004H372.238V44.0001H379.358V86.3542H372.238V67.6054H372.57ZM384.531 43.683H391.636V86.0228H384.531V43.683ZM396.161 43.683H406.825C413.944 43.683 416.538 47.2281 416.538 53.0502V62.1004C416.538 67.9225 413.944 71.799 406.825 71.799H403.597V86.3542H396.492L396.161 43.683ZM403.597 49.4907V66.3084H406.191C408.771 66.3084 409.736 65.0114 409.736 62.7489V53.0502C409.736 50.7877 408.771 49.4907 406.191 49.4907H403.597ZM419.435 76.9726V71.482H426.237V77.3041C426.237 79.5666 427.202 81.1807 429.782 81.1807C432.044 81.1807 433.024 79.5666 433.024 77.3041V75.69C433.024 73.096 432.044 71.799 429.782 69.5365L425.588 65.3429C421.38 61.4519 419.766 58.8723 419.766 54.0302V52.7332C419.766 47.5596 422.994 43.3516 429.782 43.3516C436.901 43.3516 439.812 46.9111 439.812 53.0502V56.6098H433.341V53.0502C433.341 50.4706 432.376 49.4907 430.113 49.4907C428.168 49.4907 426.871 50.4706 426.871 53.0502V54.0302C426.871 56.2927 428.168 57.9068 430.113 59.8378L434.638 64.3629C438.515 68.2539 440.461 70.8335 440.461 75.3586V77.3041C440.461 83.1262 437.218 87.3198 430.113 87.3198C422.346 86.6713 419.435 82.7947 419.435 76.9726Z" fill="white"/>
<path d="M165.973 105.421H182.79V111.243H173.092V123.536H180.196V129.358H173.092V148.107H165.973V105.421ZM185.37 137.111V116.417C185.37 109.629 188.612 105.104 196.049 105.104C203.485 105.104 207.03 109.961 207.03 116.417V137.111C207.03 143.582 203.802 148.424 196.049 148.424C188.612 148.424 185.37 143.582 185.37 137.111ZM199.925 138.077V115.134C199.925 112.54 198.96 110.595 196.366 110.595C193.786 110.595 192.806 112.54 192.806 115.134V138.077C192.806 140.671 193.786 142.602 196.366 142.602C198.628 142.602 199.925 140.671 199.925 138.077ZM218.674 128.378V147.775H211.555V105.421H221.902C229.021 105.421 231.601 108.981 231.601 114.803V120.293C231.601 124.833 229.987 127.413 225.793 128.378L232.581 147.775H225.145L218.674 128.378ZM218.674 111.243V124.501H220.937C223.531 124.501 224.496 123.204 224.496 120.942V114.803C224.496 112.54 223.531 111.243 220.937 111.243H218.674ZM243.245 105.421H262.325V111.243H256.503V147.775H249.384V111.243H243.562V105.421H243.245ZM279.46 129.358H272.658V148.107H265.553V105.753H272.658V123.853H279.46V105.753H286.565V148.107H279.46V129.358ZM291.421 105.421H308.556V111.243H298.526V123.536H305.645V129.358H298.526V142.285H308.556V148.107H291.421V105.421ZM331.498 125.467H341.528V148.107H336.355V143.582C335.389 146.81 333.444 148.755 329.567 148.755C323.428 148.755 320.517 143.899 320.517 137.428V116.748C320.517 109.961 323.745 105.421 331.181 105.421C338.934 105.421 341.528 109.961 341.528 116.1V119.976H335.058V115.768C335.058 113.189 334.092 111.575 331.498 111.575C328.919 111.575 327.953 113.506 327.953 116.1V139.057C327.953 141.636 328.919 143.582 331.498 143.582C333.761 143.582 335.058 142.285 335.058 139.374V131.938H331.83V125.467H331.498ZM345.405 137.111V116.417C345.405 109.629 348.633 105.104 356.069 105.104C363.505 105.104 367.065 109.961 367.065 116.417V137.111C367.065 143.582 363.837 148.424 356.069 148.424C348.965 148.424 345.405 143.582 345.405 137.111ZM359.96 138.077V115.134C359.96 112.54 358.98 110.595 356.401 110.595C353.807 110.595 352.841 112.54 352.841 115.134V138.077C352.841 140.671 353.807 142.602 356.401 142.602C358.98 142.602 359.96 140.671 359.96 138.077ZM369.327 148.107L377.412 105.753H385.497L393.581 148.107H386.145L384.848 140.339H377.412L376.115 148.107H369.327ZM378.061 134.532H383.883L380.972 117.397L378.061 134.532ZM397.126 105.421H404.245V141.968H412.647V147.775H397.126V105.421ZM415.241 138.725V132.903H422.029V138.725C422.029 140.988 422.994 142.602 425.588 142.602C427.851 142.602 428.816 140.988 428.816 138.725V137.111C428.816 134.532 427.851 133.235 425.588 130.972L421.38 126.764C417.172 122.887 415.558 120.293 415.558 115.451V114.154C415.558 108.981 418.801 104.787 425.588 104.787C432.693 104.787 435.604 108.332 435.604 114.486V118.031H429.133V114.486C429.133 111.892 428.168 110.926 425.905 110.926C423.96 110.926 422.677 111.892 422.677 114.486V115.451C422.677 117.714 423.96 119.328 425.905 121.273L430.43 125.798C434.307 129.675 436.253 132.269 436.253 136.794V138.725C436.253 144.547 433.024 148.755 425.905 148.755C418.152 148.424 415.241 144.547 415.241 138.725Z" fill="white"/>
</svg>
