<svg width="521" height="521" viewBox="0 0 521 521" fill="none" xmlns="http://www.w3.org/2000/svg">
<mask id="mask0_1507_7020" style="mask-type:luminance" maskUnits="userSpaceOnUse" x="0" y="0" width="521" height="521">
<path d="M0.015625 0.481445H520.198V520.664H0.015625V0.481445Z" fill="white"/>
</mask>
<g mask="url(#mask0_1507_7020)">
<path d="M0.015625 0.481445H520.198V520.664H0.015625V0.481445Z" fill="#BF8B2E"/>
</g>
<path d="M52.0589 68.6943L52.376 149.195H69.8278V44.1234H55.9355L39.4492 63.2037V81.6355H39.7663L52.0589 68.6943ZM80.5064 65.7833V78.393H96.6612V65.1348C96.6612 58.6786 99.9037 57.0646 103.463 57.0646C107.008 57.0646 109.919 58.3471 109.919 64.8177V73.5508C109.919 82.2695 109.271 85.512 103.463 91.6512L93.4331 102.315C83.7345 112.663 80.1749 119.45 80.1749 129.797V149.195H126.089V134.654H96.9927V129.797C96.9927 121.713 99.9037 118.485 104.429 113.642L115.741 101.681C124.792 91.9682 126.737 85.8291 126.737 75.1649V64.8177C126.737 49.9455 119.618 42.8408 103.78 42.8408C88.2595 42.8408 80.5064 51.2425 80.5064 65.7833ZM405.087 279.168C383.759 262.35 358.539 260.736 348.509 260.736C343.336 260.736 338.494 261.053 334.934 262.033L333.637 262.35C320.062 265.578 297.753 270.752 271.568 303.408L270.92 304.388C270.603 305.022 270.271 305.67 270.271 306.319C270.271 306.967 270.271 307.616 270.603 307.933L271.251 308.913C275.445 316.017 279.005 322.488 281.916 327.661C282.881 329.593 285.792 330.241 287.406 328.31C287.738 327.978 287.738 327.661 288.055 327.661C310.695 296.303 328.478 292.095 340.108 289.515L341.405 289.184C343.019 288.867 345.613 288.535 348.509 288.535C354.014 288.535 372.763 289.515 387.635 301.145C400.894 311.492 407.35 327.978 407.35 350.287C407.35 387.784 389.249 402.34 374.06 407.83C368.238 410.093 362.099 411.073 355.628 411.073C340.108 411.073 327.829 404.919 327.829 404.602L326.849 403.954C313.923 398.132 294.208 386.502 275.777 349.321C237.947 273.346 206.272 266.227 185.246 261.385L184.281 261.053C182.667 260.736 178.141 259.771 170.705 259.771C158.413 259.771 135.139 262.033 115.093 278.188C101.518 289.184 85.0315 310.527 85.0315 349.321C85.0315 373.244 89.8736 388.764 102.483 405.251C104.746 408.479 126.737 436.609 168.76 436.609C174.899 436.609 181.37 435.961 187.84 434.664C195.593 433.05 207.237 429.49 220.496 419.791L231.477 429.822C232.774 430.787 234.719 430.787 236.002 429.49C236.65 428.856 236.982 428.208 236.65 427.559L245.067 374.858V374.209C245.067 373.244 244.735 372.595 244.087 371.947C243.438 371.298 242.804 370.981 241.824 370.981L190.42 385.205H189.454C188.806 385.205 188.157 385.522 187.84 386.17C187.192 386.819 186.875 387.784 186.875 388.433C186.875 389.413 187.192 390.047 187.84 390.696L198.504 400.394C193.014 403.954 187.192 406.216 182.018 407.182C177.493 408.162 172.968 408.479 168.443 408.479C139.347 408.479 125.123 389.413 124.475 388.433L124.143 388.116C115.424 376.472 112.182 366.456 112.182 348.99C112.182 326.681 118.653 309.878 131.579 299.531C146.134 287.887 164.566 287.253 169.74 287.253C172.636 287.253 175.23 287.57 176.844 287.887L178.141 288.218C194.945 292.095 217.902 297.268 249.909 361.282C266.726 395.221 287.738 417.212 314.24 428.856C317.482 430.47 333.637 438.223 354.98 438.223C364.678 438.223 374.377 436.609 383.427 433.05C398.948 427.228 434.832 407.513 434.832 348.99C435.812 311.492 418.994 290.149 405.087 279.168Z" fill="white"/>
<path d="M173.292 67.0731V86.4704H166.188V44.1163H176.535C183.639 44.1163 186.233 47.6758 186.233 53.4979V58.9885C186.233 63.5136 184.605 66.1076 180.411 67.0731L187.199 86.4704H179.763L173.292 67.0731ZM173.292 49.9383V63.1965H175.555C178.149 63.1965 179.114 61.8995 179.114 59.637V53.4979C179.114 51.2353 178.149 49.9383 175.555 49.9383H173.292ZM191.075 44.1163H208.21V49.9383H198.195V62.231H205.299V68.0387H198.195V80.9798H208.21V86.8019H191.075V44.1163ZM212.087 77.4203V71.5982H218.874V77.4203C218.874 79.6828 219.854 81.2969 222.434 81.2969C224.696 81.2969 225.676 79.6828 225.676 77.4203V75.8062C225.676 73.2122 224.696 71.9297 222.434 69.6671L218.24 65.4591C214.032 61.5825 212.418 58.9885 212.418 54.1464V52.8494C212.418 47.6758 215.646 43.4678 222.434 43.4678C229.553 43.4678 232.464 47.0273 232.464 53.1664V56.726H225.993V53.1664C225.993 50.5868 225.028 49.6213 222.765 49.6213C220.82 49.6213 219.523 50.5868 219.523 53.1664V54.1464C219.523 56.4089 220.82 58.023 222.765 59.9685L227.29 64.4935C231.167 68.3701 233.113 70.9497 233.113 75.4748V77.4203C233.113 83.2424 229.87 87.436 222.765 87.436C214.998 87.1189 212.087 82.9109 212.087 77.4203ZM236.989 44.1163H247.653C254.772 44.1163 257.352 47.6758 257.352 53.4979V62.548C257.352 68.3701 254.772 72.2467 247.653 72.2467H244.094V86.8019H236.989V44.1163ZM244.094 49.9383V66.7561H246.688C249.267 66.7561 250.247 65.4591 250.247 63.1965V53.4979C250.247 51.2353 249.267 49.9383 246.688 49.9383H244.094ZM261.877 75.4748V54.7949C261.877 47.9929 265.105 43.4678 272.541 43.4678C279.977 43.4678 283.537 48.3243 283.537 54.7949V75.4748C283.537 81.9454 280.309 86.8019 272.541 86.8019C265.105 87.1189 261.877 81.9454 261.877 75.4748ZM276.432 76.7718V53.8149C276.432 51.2353 275.452 49.2899 272.873 49.2899C270.279 49.2899 269.313 51.2353 269.313 53.8149V76.7718C269.313 79.3658 270.279 81.2969 272.873 81.2969C275.135 80.9798 276.432 79.3658 276.432 76.7718ZM294.216 59.637V86.4704H288.062V44.1163H295.181L302.934 68.3701V44.1163H308.756V86.4704H302.617L294.216 59.637ZM313.613 77.4203V71.5982H320.4V77.4203C320.4 79.6828 321.366 81.2969 323.946 81.2969C326.208 81.2969 327.188 79.6828 327.188 77.4203V75.8062C327.188 73.2122 326.208 71.9297 323.946 69.6671L319.752 65.4591C315.544 61.5825 313.93 58.9885 313.93 54.1464V52.8494C313.93 47.6758 317.158 43.4678 323.946 43.4678C331.065 43.4678 333.976 47.0273 333.976 53.1664V56.726H327.505V53.1664C327.505 50.5868 326.54 49.6213 324.277 49.6213C322.332 49.6213 321.049 50.5868 321.049 53.1664V54.1464C321.049 56.4089 322.332 58.023 324.277 59.9685L328.802 64.4935C332.679 68.3701 334.624 70.9497 334.624 75.4748V77.4203C334.624 83.2424 331.382 87.436 324.277 87.436C316.192 87.1189 313.613 82.9109 313.613 77.4203ZM338.184 44.1163H345.288V86.4704H338.184V44.1163ZM350.145 44.1163H360.478C367.597 44.1163 369.859 47.3588 369.859 53.4979V57.7059C369.859 61.2511 368.562 63.5136 365.651 64.4935C369.211 65.4591 370.825 67.7216 370.825 71.5982V77.1032C370.825 83.2424 368.245 86.4704 361.126 86.4704H350.145V44.1163ZM357.581 61.8995H360.161C362.423 61.8995 363.389 60.6025 363.389 58.34V53.1664C363.389 50.9039 362.423 49.6213 359.844 49.6213H357.25L357.581 61.8995ZM357.581 67.4046V80.6484H360.809C363.072 80.6484 364.369 79.3658 364.369 77.1032V70.6327C364.369 68.3701 363.389 67.0731 360.809 67.0731H357.581V67.4046ZM375.35 44.1163H382.469V80.6484H390.871V86.4704H375.35V44.1163ZM395.079 44.1163H412.213V49.9383H402.183V62.231H409.302V68.0387H402.183V80.9798H412.213V86.8019H395.079V44.1163Z" fill="white"/>
<path d="M166.188 137.88V117.186C166.188 110.398 169.416 105.873 176.852 105.873C184.605 105.873 186.882 110.398 186.882 116.537V121.711H180.411V116.22C180.411 113.641 179.446 112.012 176.852 112.012C174.272 112.012 173.292 113.958 173.292 116.537V139.494C173.292 142.088 174.272 144.019 176.852 144.019C179.446 144.019 180.411 142.405 180.411 139.826V132.058H186.882V139.494C186.882 145.648 184.288 150.173 176.852 150.173C169.416 149.524 166.188 144.668 166.188 137.88ZM191.407 137.88V117.186C191.407 110.398 194.635 105.873 202.071 105.873C209.507 105.873 213.067 110.73 213.067 117.186V137.88C213.067 144.351 209.824 149.193 202.071 149.193C194.635 149.524 191.407 144.668 191.407 137.88ZM205.948 139.177V116.22C205.948 113.641 204.982 111.695 202.388 111.695C199.809 111.695 198.843 113.641 198.843 116.22V139.177C198.843 141.757 199.809 143.702 202.388 143.702C204.982 143.371 205.948 141.757 205.948 139.177ZM223.731 122.359V149.193H217.592V106.839H224.696L232.464 131.092V106.839H238.272V149.193H232.133L223.731 122.359ZM242.811 139.826V134.003H249.599V139.826C249.599 142.088 250.564 143.702 253.144 143.702C255.406 143.702 256.386 142.088 256.386 139.826V138.212C256.386 135.618 255.406 134.321 253.144 132.058L248.95 127.864C244.742 123.973 243.128 121.394 243.128 116.537V115.255C243.128 110.081 246.356 105.873 253.144 105.873C260.263 105.873 263.174 109.433 263.174 115.572V119.131H256.703V115.572C256.703 112.992 255.738 112.012 253.475 112.012C251.53 112.012 250.247 112.992 250.247 115.572V116.537C250.247 118.8 251.53 120.428 253.475 122.359L258 126.884C261.877 130.775 263.823 133.355 263.823 137.88V139.826C263.823 145.648 260.58 149.841 253.475 149.841C245.708 149.524 242.811 145.316 242.811 139.826ZM288.393 106.522V138.529C288.393 144.999 285.482 149.524 278.363 149.524C270.927 149.524 267.699 145.316 267.699 138.529V106.522H274.804V139.494C274.804 142.088 275.784 143.702 278.363 143.702C280.957 143.702 281.923 142.088 281.923 139.494V106.522H288.393ZM312.964 121.394L307.791 148.876H304.548L299.375 121.394V148.876H293.567V106.522H301.969L306.494 130.444L310.702 106.522H319.752V148.876H313.281V121.394H312.964ZM324.277 106.522H334.941C342.06 106.522 344.64 110.081 344.64 115.903V124.953C344.64 130.775 342.06 134.652 334.941 134.652H331.382V149.193H324.277V106.522ZM331.382 112.344V129.147H333.976C336.555 129.147 337.535 127.864 337.535 125.602V115.903C337.535 113.641 336.555 112.344 333.976 112.344H331.382ZM346.902 106.522H365.983V112.344H360.161V148.876H353.042V112.344H347.234L346.902 106.522ZM369.211 106.522H376.33V148.876H369.211V106.522ZM380.523 137.88V117.186C380.523 110.398 383.766 105.873 391.202 105.873C398.638 105.873 402.183 110.73 402.183 117.186V137.88C402.183 144.351 398.955 149.193 391.202 149.193C383.766 149.524 380.523 144.668 380.523 137.88ZM395.079 139.177V116.22C395.079 113.641 394.113 111.695 391.519 111.695C388.94 111.695 387.96 113.641 387.96 116.22V139.177C387.96 141.757 388.94 143.702 391.519 143.702C393.782 143.371 395.079 141.757 395.079 139.177ZM412.53 122.359V149.193H406.391V106.839H413.51L421.264 131.092V106.839H427.086V149.193H420.947L412.53 122.359Z" fill="white"/>
<path d="M165.207 211.279L173.292 168.925H181.376L189.461 211.279H182.025L180.728 203.511H173.292L172.009 211.279H165.207ZM173.94 198.021H179.762L176.851 180.886L173.94 198.021ZM198.511 184.763V211.596H192.372V169.242H199.477L207.244 193.496V169.242H213.066V211.596H206.913L198.511 184.763ZM238.92 180.238V199.952C238.92 206.422 236.34 211.279 228.573 211.279H217.591V168.925H228.573C236.009 168.925 238.92 173.767 238.92 180.238ZM227.607 205.457C230.518 205.457 231.815 203.843 231.815 201.249V178.941C231.815 176.361 230.835 174.747 227.607 174.747H224.696V205.457H227.607ZM249.915 168.925H260.58C267.699 168.925 270.278 172.484 270.278 178.292V187.342C270.278 193.164 267.699 197.041 260.58 197.041H257.034V211.596H249.915V168.925ZM257.034 174.747V191.55H259.614C262.208 191.55 263.174 190.253 263.174 187.991V178.292C263.174 176.03 262.208 174.747 259.614 174.747H257.034ZM281.274 191.882V211.279H274.169V168.925H284.516C291.621 168.925 294.215 172.484 294.215 178.292V183.797C294.215 188.322 292.587 190.902 288.393 191.882L295.181 211.279H287.744L281.274 191.882ZM281.274 174.747V187.991H283.536C286.13 187.991 287.096 186.708 287.096 184.446V178.292C287.096 176.03 286.13 174.747 283.536 174.747H281.274ZM298.409 200.283V179.589C298.409 172.801 301.651 168.276 309.073 168.276C316.509 168.276 320.068 173.118 320.068 179.589V200.283C320.068 206.74 316.84 211.596 309.073 211.596C301.651 211.913 298.409 207.071 298.409 200.283ZM312.964 201.58V178.624C312.964 176.03 311.984 174.098 309.404 174.098C306.81 174.098 305.845 176.03 305.845 178.624V201.58C305.845 204.16 306.81 206.105 309.404 206.105C311.984 205.774 312.964 204.16 312.964 201.58ZM345.936 180.238V199.952C345.936 206.422 343.342 211.279 335.589 211.279H324.594V168.925H335.589C343.025 168.925 345.936 173.767 345.936 180.238ZM334.624 205.457C337.535 205.457 338.817 203.843 338.817 201.249V178.941C338.817 176.361 337.852 174.747 334.624 174.747H331.713V205.457H334.624ZM370.824 168.925V200.932C370.824 207.388 367.913 211.913 360.809 211.913C353.372 211.913 350.144 207.719 350.144 200.932V168.925H357.249V201.897C357.249 204.477 358.215 206.105 360.809 206.105C363.388 206.105 364.368 204.477 364.368 201.897V168.925H370.824ZM375.032 200.283V179.589C375.032 172.801 378.26 168.276 385.697 168.276C393.464 168.276 395.727 172.801 395.727 178.941V184.114H389.256V178.624C389.256 176.03 388.29 174.415 385.697 174.415C383.117 174.415 382.151 176.361 382.151 178.941V201.897C382.151 204.477 383.117 206.422 385.697 206.422C388.29 206.422 389.256 204.808 389.256 202.214V194.461H395.727V201.897C395.727 208.037 393.133 212.562 385.697 212.562C378.26 211.913 375.032 207.071 375.032 200.283ZM399.286 168.925H418.352V174.747H412.53V211.279H405.425V174.747H399.603L399.286 168.925ZM421.58 168.925H428.699V211.279H421.58V168.925ZM432.907 200.283V179.589C432.907 172.801 436.135 168.276 443.571 168.276C451.008 168.276 454.567 173.118 454.567 179.589V200.283C454.567 206.74 451.325 211.596 443.571 211.596C436.135 211.913 432.907 207.071 432.907 200.283ZM447.448 201.58V178.624C447.448 176.03 446.482 174.098 443.888 174.098C441.309 174.098 440.343 176.03 440.343 178.624V201.58C440.343 204.16 441.309 206.105 443.888 206.105C446.151 205.774 447.448 204.16 447.448 201.58ZM464.583 184.763V211.596H458.444V169.242H465.548L473.316 193.496V169.242H479.138V211.596H472.984L464.583 184.763Z" fill="white"/>
</svg>
