<svg width="521" height="522" viewBox="0 0 521 522" fill="none" xmlns="http://www.w3.org/2000/svg">
<mask id="mask0_1507_7055" style="mask-type:luminance" maskUnits="userSpaceOnUse" x="0" y="0" width="521" height="522">
<path d="M0.015625 0.845703H520.198V521.028H0.015625V0.845703Z" fill="white"/>
</mask>
<g mask="url(#mask0_1507_7055)">
<path d="M0.015625 0.845703H520.198V521.028H0.015625V0.845703Z" fill="#00689D"/>
</g>
<path d="M40.1094 63.5614V81.9932H40.4408L52.7191 69.0665V149.567H70.5023V44.4956H56.2786L40.1094 63.5614ZM132.254 124.347V108.827C132.254 91.6919 125.466 82.9588 112.857 82.9588C105.42 82.9588 100.895 86.5183 98.3013 91.3748V68.735C98.3013 62.2644 100.247 57.7394 106.717 57.7394C113.174 57.7394 114.788 61.2989 114.788 68.0865V75.2056H130.957V69.7006C130.957 54.1942 125.783 43.5156 106.386 43.5156C87.9542 43.5156 80.8495 55.4768 80.8495 71.9775V123.05C80.8495 139.22 87.9542 151.181 106.386 151.181C124.818 150.849 132.254 140.502 132.254 124.347ZM114.788 125.961C114.788 132.749 112.208 136.626 106.386 136.626C100.564 136.626 98.3013 132.749 98.3013 125.961V106.881C98.6328 101.073 101.212 97.1825 106.717 97.1825C112.857 97.1825 115.119 100.742 115.119 107.861L114.788 125.961Z" fill="white"/>
<path d="M166.188 44.4984H176.866C183.971 44.4984 186.565 48.0436 186.565 53.8656V62.9158C186.565 68.7379 183.971 72.6145 176.866 72.6145H173.307V87.1697H166.188V44.4984ZM173.307 50.3061V67.1238H175.886C178.48 67.1238 179.446 65.8268 179.446 63.5643V53.8656C179.446 51.6031 178.48 50.3061 175.886 50.3061H173.307ZM190.11 44.4984H207.245V50.3061H197.229V62.5988H204.348V68.4208H197.229V81.3476H207.245V87.1697H190.11V44.4984ZM210.156 87.1697L218.24 44.8155H226.325L234.41 87.1697H226.973L225.676 79.4021H218.24L216.943 87.1697H210.156ZM219.22 73.5944H225.028L222.117 56.4596L219.22 73.5944ZM236.989 76.174V55.4797C236.989 48.6921 240.232 44.167 247.668 44.167C255.421 44.167 257.683 48.6921 257.683 54.8456V60.0048H251.213V54.5141C251.213 51.9346 250.247 50.3061 247.668 50.3061C245.074 50.3061 244.108 52.2516 244.108 54.8456V77.788C244.108 80.382 245.074 82.3131 247.668 82.3131C250.247 82.3131 251.213 80.6991 251.213 78.1195V70.3519H257.683V77.788C257.683 83.9416 255.104 88.4666 247.668 88.4666C240.232 87.4867 236.989 82.6446 236.989 76.174ZM262.209 44.4984H279.343V50.3061H269.328V62.5988H276.432V68.4208H269.328V81.3476H279.343V87.1697H262.209V44.4984ZM290.987 80.6991L287.428 90.3977H283.551L284.517 80.382L290.987 80.6991ZM322.014 44.4984V77.471C322.014 83.6101 319.435 87.4867 312.316 87.4867C304.88 87.4867 302.949 83.2931 302.949 78.1195V69.7034H309.736V78.4365C309.736 80.6991 310.385 81.679 312.316 81.679C314.261 81.679 314.91 80.382 314.91 78.1195V44.4984H322.014ZM347.234 44.4984V76.5055C347.234 82.9616 344.323 87.4867 337.218 87.4867C329.782 87.4867 326.554 83.2931 326.554 76.5055V44.4984H333.659V77.471C333.659 80.0506 334.624 81.679 337.218 81.679C339.798 81.679 340.778 80.0506 340.778 77.471V44.4984H347.234ZM351.759 77.788V72.2974H358.547V78.1195C358.547 80.382 359.527 81.9961 362.106 81.9961C364.369 81.9961 365.349 80.382 365.349 78.1195V76.5055C365.349 73.9115 364.369 72.6145 362.106 70.3519L357.912 66.1583C353.704 62.2673 352.09 59.6877 352.09 54.8456V53.5486C352.09 48.375 355.319 44.167 362.106 44.167C369.225 44.167 372.136 47.7265 372.136 53.8656V57.4252H365.666V53.8656C365.666 51.2861 364.7 50.3061 362.438 50.3061C360.492 50.3061 359.195 51.2861 359.195 53.8656V54.8456C359.195 57.1081 360.492 58.7222 362.438 60.6533L366.963 65.1783C370.839 69.0693 372.785 71.6489 372.785 76.174V78.1195C372.785 83.9416 369.542 88.1352 362.438 88.1352C354.353 87.4867 351.759 83.6101 351.759 77.788ZM375.681 44.4984H394.762V50.3061H388.94V86.8382H381.835V50.3061H375.681V44.4984ZM398.638 44.4984H405.757V86.8382H398.638V44.4984ZM410.599 76.174V55.4797C410.599 48.6921 413.842 44.167 421.278 44.167C429.031 44.167 431.294 48.6921 431.294 54.8456V60.0048H424.823V54.5141C424.823 51.9346 423.858 50.3061 421.278 50.3061C418.684 50.3061 417.718 52.2516 417.718 54.8456V77.788C417.718 80.382 418.684 82.3131 421.278 82.3131C423.858 82.3131 424.823 80.6991 424.823 78.1195V70.3519H431.294V77.788C431.294 83.9416 428.714 88.4666 421.278 88.4666C413.842 87.4867 410.599 82.6446 410.599 76.174ZM435.819 44.4984H452.954V50.3061H442.938V62.5988H450.043V68.4208H442.938V81.3476H452.954V87.1697H435.819V44.4984Z" fill="white"/>
<path d="M164.902 150.847L172.973 108.507H181.057L189.142 150.847H181.706L180.409 143.093H172.973L171.69 150.847H164.902ZM173.953 137.271H179.775L176.864 120.137L173.953 137.271ZM198.84 124.013V150.847H192.701V108.507H199.806L207.574 132.746V108.507H213.396V150.847H207.242L198.84 124.013ZM239.581 119.82V139.534C239.581 146.005 236.987 150.847 229.233 150.847H218.238V108.507H229.233C236.987 108.175 239.581 113.032 239.581 119.82ZM228.585 145.039C231.496 145.039 232.793 143.411 232.793 140.831V118.523C232.793 115.943 231.813 114.315 228.585 114.315H225.674V145.039H228.585ZM251.21 141.796V135.974H258.012V141.796C258.012 144.059 258.978 145.673 261.557 145.673C263.82 145.673 264.8 144.059 264.8 141.796V140.182C264.8 137.603 263.82 136.306 261.557 134.043L257.364 129.835C253.156 125.959 251.542 123.365 251.542 118.523V117.226C251.542 112.052 254.77 107.858 261.557 107.858C268.677 107.858 271.588 111.404 271.588 117.557V121.102H265.117V117.557C265.117 114.963 264.151 113.998 261.889 113.998C259.943 113.998 258.646 114.963 258.646 117.557V118.523C258.646 120.785 259.943 122.399 261.889 124.345L266.414 128.87C270.291 132.746 272.236 135.34 272.236 139.865V141.796C272.236 147.619 268.994 151.827 261.889 151.827C254.121 151.178 251.21 147.302 251.21 141.796ZM274.499 108.175H293.564V113.998H287.742V150.53H280.638V113.998H274.816V108.175H274.499ZM304.56 131.449V150.847H297.455V108.507H307.788C314.907 108.507 317.487 112.052 317.487 117.874V123.365C317.487 127.904 315.873 130.484 311.679 131.449L318.467 150.847H311.031L304.56 131.449ZM304.56 113.998V127.256H306.823C309.417 127.256 310.382 125.959 310.382 123.696V117.557C310.382 115.295 309.417 113.998 306.823 113.998H304.56ZM322.012 139.865V119.171C322.012 112.383 325.254 107.858 332.691 107.858C340.127 107.858 343.686 112.701 343.686 119.171V139.865C343.686 146.322 340.444 151.178 332.691 151.178C325.254 151.178 322.012 146.322 322.012 139.865ZM336.567 140.831V117.874C336.567 115.295 335.602 113.349 333.008 113.349C330.428 113.349 329.448 115.295 329.448 117.874V140.831C329.448 143.411 330.428 145.356 333.008 145.356C335.27 145.356 336.567 143.411 336.567 140.831ZM354.35 124.013V150.847H348.211V108.507H355.316L363.083 132.746V108.507H368.891V150.847H362.752L354.35 124.013ZM384.743 128.221H394.759V150.847H389.585V146.322C388.62 149.564 386.674 151.495 382.798 151.495C376.659 151.495 373.748 146.653 373.748 140.182V119.488C373.748 112.701 376.976 108.175 384.412 108.175C392.179 108.175 394.759 112.701 394.759 118.84V122.731H388.288V118.523C388.288 115.943 387.323 114.315 384.743 114.315C382.149 114.315 381.184 116.26 381.184 118.84V141.796C381.184 144.39 382.149 146.322 384.743 146.322C387.006 146.322 388.288 145.039 388.288 142.128V133.712H385.06V128.221H384.743Z" fill="white"/>
<path d="M166.188 169.283H173.307V211.637H166.188V169.283ZM184.302 185.121V211.954H178.48V169.283H185.585L193.352 193.537V169.283H199.174V211.637H193.021L184.302 185.121ZM203.368 202.587V196.765H210.156V202.587C210.156 204.85 211.136 206.464 213.715 206.464C215.978 206.464 216.943 204.85 216.943 202.587V200.973C216.943 198.379 215.978 197.082 213.715 194.82L209.522 190.626C205.314 186.749 203.7 184.156 203.7 179.313V178.016C203.7 172.843 206.928 168.635 213.715 168.635C220.834 168.635 223.745 172.194 223.745 178.333V181.893H217.275V178.333C217.275 175.754 216.309 174.774 214.047 174.774C212.101 174.774 210.804 175.754 210.804 178.333V179.313C210.804 181.576 212.101 183.19 214.047 185.121L218.572 189.646C222.448 193.537 224.379 196.117 224.379 200.642V202.587C224.379 208.409 221.151 212.603 214.047 212.603C206.279 212.286 203.368 208.078 203.368 202.587ZM226.656 169.283H245.722V175.105H239.9V211.637H232.796V175.105H226.973L226.656 169.283ZM249.599 169.283H256.718V211.637H249.599V169.283ZM260.594 169.283H279.675V175.105H273.853V211.637H266.734V175.105H260.912V169.283H260.594ZM304.246 169.283V201.29C304.246 207.761 301.335 212.286 294.216 212.286C286.779 212.286 283.551 208.078 283.551 201.29V169.283H290.656V202.256C290.656 204.85 291.636 206.464 294.216 206.464C296.81 206.464 297.775 204.85 297.775 202.256V169.283H304.246ZM308.122 169.283H327.188V175.105H321.38V211.637H314.261V175.105H308.439V169.283H308.122ZM331.079 169.283H338.184V211.637H331.079V169.283ZM343.04 200.642V179.947C343.04 173.16 346.268 168.635 353.704 168.635C361.141 168.635 364.7 173.491 364.7 179.947V200.642C364.7 207.112 361.458 211.954 353.704 211.954C346.268 212.286 343.04 207.429 343.04 200.642ZM357.581 201.939V178.982C357.581 176.402 356.615 174.457 354.021 174.457C351.442 174.457 350.476 176.402 350.476 178.982V201.939C350.476 204.518 351.442 206.464 354.021 206.464C356.284 206.147 357.581 204.518 357.581 201.939ZM375.364 185.121V211.954H369.225V169.283H376.33L384.097 193.537V169.283H389.919V211.637H383.766L375.364 185.121ZM394.445 202.587V196.765H401.232V202.587C401.232 204.85 402.198 206.464 404.792 206.464C407.054 206.464 408.02 204.85 408.02 202.587V200.973C408.02 198.379 407.054 197.082 404.792 194.82L400.584 190.626C396.376 186.749 394.762 184.156 394.762 179.313V178.016C394.762 172.843 397.99 168.635 404.792 168.635C411.896 168.635 414.807 172.194 414.807 178.333V181.893H408.337V178.333C408.337 175.754 407.371 174.774 405.109 174.774C403.163 174.774 401.881 175.754 401.881 178.333V179.313C401.881 181.576 403.163 183.19 405.109 185.121L409.634 189.646C413.51 193.537 415.456 196.117 415.456 200.642V202.587C415.456 208.409 412.228 212.603 405.109 212.603C397.356 212.286 394.445 208.078 394.445 202.587Z" fill="white"/>
<path d="M336.252 256.906C336.252 256.906 331.712 262.713 333.009 268.536C334.306 274.358 340.777 277.586 340.777 277.586C340.777 277.586 345.302 271.778 344.005 265.956C342.708 260.134 336.252 256.906 336.252 256.906ZM329.133 289.878C329.133 289.878 333.658 284.056 332.361 278.234C331.078 272.412 324.607 269.184 324.607 269.184C324.607 269.184 320.082 275.006 321.379 280.497C322.662 286.65 329.133 289.878 329.133 289.878ZM347.233 283.739C347.233 283.739 351.758 288.264 357.263 287.933C362.437 287.616 366.313 282.111 366.313 282.111C366.313 282.111 361.788 277.586 356.283 277.917C351.124 278.234 347.233 283.739 347.233 283.739ZM354.669 258.837C350.475 263.045 351.124 270.798 351.124 270.798C351.124 270.798 358.546 271.447 363.085 267.253C367.279 263.045 366.63 255.277 366.63 255.277C366.63 255.277 358.877 254.643 354.669 258.837ZM345.302 301.191C350.475 301.84 355.317 297.314 355.317 297.314C355.317 297.314 351.758 291.824 346.584 291.175C341.425 290.527 336.569 295.052 336.569 295.052C336.569 295.052 340.128 300.543 345.302 301.191ZM349.827 392.039H310.701C307.79 392.039 305.21 394.618 305.21 397.529C305.21 400.44 307.79 403.034 310.701 403.034H349.827C352.738 403.034 355.317 400.44 355.317 397.529C355.649 394.618 353.055 392.039 349.827 392.039ZM349.827 453.459H310.701C307.79 453.459 305.21 456.053 305.21 458.964C305.21 461.875 307.79 464.454 310.701 464.454H349.827C352.738 464.454 355.317 461.875 355.317 458.964C355.649 455.721 353.055 453.459 349.827 453.459ZM173.623 378.78C172.657 378.463 171.691 378.132 171.043 378.132C171.043 378.132 172.009 378.463 173.623 378.78Z" fill="white"/>
<path d="M348.54 407.223H312.325C310.711 407.223 309.096 408.52 309.096 410.465V421.446L285.491 424.04L250.905 423.392V402.049C255.43 401.415 259.955 400.435 264.811 399.152C298.101 389.771 305.537 362.289 304.571 343.209C303.923 323.811 310.062 316.375 319.127 312.83C321.706 311.85 324.3 311.216 326.563 310.884C326.563 315.741 327.528 321.232 329.791 327.702C330.439 327.702 331.405 327.702 332.053 327.371C329.791 320.583 328.825 315.093 328.825 310.236C333.35 309.587 336.578 309.919 336.578 309.919C336.578 309.919 333.35 308.305 329.142 304.414C330.756 295.364 336.261 289.542 341.752 283.734C344.98 280.492 348.223 277.263 350.485 273.387L348.54 272.09C346.277 275.966 343.049 278.877 340.138 282.106C334.633 287.611 329.142 293.433 327.197 302.8C325.266 301.186 323.32 299.24 321.389 296.978C313.305 287.611 302.626 294.398 287.437 308.622C272.247 322.529 253.499 323.177 234.735 304.097C210.164 278.877 188.836 279.209 174.281 280.492C184.311 284.7 187.856 294.081 193.03 318.004C198.203 342.891 211.793 354.204 230.21 355.818C219.863 359.378 219.546 365.2 205.971 374.581C195.292 382.018 180.42 379.741 174.281 378.127C185.594 381.686 198.535 393.33 210.496 397.524C217.283 399.786 224.72 401.415 232.156 402.049V422.426L170.087 421.129V435.353L286.14 432.773L309.745 435.353V446.349C309.745 447.963 311.042 449.577 312.973 449.577H349.188C350.802 449.577 352.416 448.28 352.416 446.349V410.134C351.768 408.52 350.154 407.223 348.54 407.223ZM237.329 402.697C239.909 402.697 242.503 402.697 245.082 402.38V422.743L237.329 422.426V402.697ZM165.879 433.09C165.879 436.001 163.934 438.581 161.354 438.581H158.443C155.863 438.581 153.918 436.318 153.918 433.09V423.392C153.918 420.481 155.849 417.901 158.443 417.901H161.354C163.934 417.901 165.879 420.164 165.879 423.392V433.09Z" fill="white"/>
</svg>
