<svg width="521" height="521" viewBox="0 0 521 521" fill="none" xmlns="http://www.w3.org/2000/svg">
<mask id="mask0_1507_7000" style="mask-type:luminance" maskUnits="userSpaceOnUse" x="0" y="0" width="521" height="521">
<path d="M0.015625 0.298828H520.198V520.481H0.015625V0.298828Z" fill="white"/>
</mask>
<g mask="url(#mask0_1507_7000)">
<path d="M0.015625 0.298828H520.198V520.481H0.015625V0.298828Z" fill="#DD1367"/>
</g>
<path d="M50.4424 68.5349V148.704H67.9086V43.964H54.0019L37.5156 62.7128V81.1446H37.8327L50.4424 68.5349ZM132.557 121.87V71.1145C132.557 54.6282 124.472 42.667 106.372 42.667C88.5885 42.667 80.5039 54.6282 80.5039 71.1145V121.87C80.5039 138.04 88.5885 150.332 106.372 150.332C124.155 150.001 132.557 138.04 132.557 121.87ZM97.9701 124.464V68.2034C97.9701 61.7473 100.233 57.2222 106.372 57.2222C112.511 57.2222 114.773 61.7473 114.773 68.2034V124.464C114.773 130.935 112.511 135.46 106.372 135.46C100.233 135.46 97.9701 130.935 97.9701 124.464Z" fill="white"/>
<path d="M173.295 66.9247V86.322H166.176V43.6364H176.523C183.642 43.6364 186.222 47.1959 186.222 53.018V58.5086C186.222 63.0481 184.608 65.6277 180.414 66.5932L187.202 85.9906H179.765L173.295 66.9247ZM173.295 49.4585V62.7167H175.557C178.137 62.7167 179.117 61.4197 179.117 59.1571V53.018C179.117 50.7555 178.137 49.4585 175.557 49.4585H173.295ZM191.078 43.6364H208.213V49.4585H198.183V61.7511H205.302V67.5732H198.183V80.4999H208.213V86.322H191.078V43.6364ZM232.452 55.2805V75.0093C232.452 81.4655 229.873 86.322 222.105 86.322H211.124V43.6364H222.105C229.873 43.6364 232.452 48.4929 232.452 55.2805ZM221.14 80.4999C224.051 80.4999 225.348 78.8859 225.348 76.2919V53.9835C225.348 51.404 224.382 49.7899 221.14 49.7899H218.229V80.4999H221.14ZM258.003 43.6364V75.6434C258.003 82.114 255.092 86.639 247.973 86.639C240.537 86.639 237.309 82.4454 237.309 75.6434V43.6364H244.414V76.6233C244.414 79.2029 245.393 80.817 247.973 80.817C250.567 80.817 251.533 79.2029 251.533 76.6233V43.6364H258.003ZM262.528 75.3264V54.632C262.528 47.8444 265.756 43.3193 273.192 43.3193C280.946 43.3193 283.208 47.8444 283.208 53.9835V59.1571H276.752V53.3494C276.752 50.7555 275.786 49.1414 273.192 49.1414C270.613 49.1414 269.633 51.0725 269.633 53.6665V76.6233C269.633 79.2029 270.613 81.1484 273.192 81.1484C275.786 81.1484 276.752 79.5344 276.752 76.9404V69.1872H283.208V76.6233C283.208 82.7625 280.629 87.2875 273.192 87.2875C265.756 86.6391 262.528 81.7969 262.528 75.3264ZM287.748 43.6364H304.882V49.4585H294.852V61.7511H301.971V67.5732H294.852V80.4999H304.882V86.322H287.748V43.6364ZM330.736 55.2805V75.0093C330.736 81.4655 328.156 86.322 320.389 86.322H309.408V43.6364H320.389C328.156 43.6364 330.736 48.4929 330.736 55.2805ZM319.423 80.4999C322.334 80.4999 323.631 78.8859 323.631 76.2919V53.9835C323.631 51.404 322.651 49.7899 319.423 49.7899H316.512V80.4999H319.423Z" fill="white"/>
<path d="M166.176 105.717H173.295V148.071H166.176V105.717ZM183.959 121.238V148.071H177.82V105.717H184.939L192.692 129.956V105.717H198.514V148.071H192.375L183.959 121.238ZM202.708 105.717H219.843V111.539H209.827V123.817H216.946V129.639H209.827V142.566H219.843V148.388H202.708V105.717ZM230.521 150.982V148.071C224.699 147.091 222.437 142.897 222.437 137.075V116.381C222.437 109.593 225.665 105.068 233.101 105.068C240.537 105.068 244.096 109.91 244.096 116.381V137.075C244.096 141.6 242.482 145.477 238.923 147.091L244.096 148.071V153.245L230.521 150.982ZM236.977 138.689V115.416C236.977 112.822 236.012 110.89 233.432 110.89C230.838 110.89 229.873 112.822 229.873 115.416V138.689C229.873 141.283 230.838 143.214 233.432 143.214C235.695 142.897 236.977 141.283 236.977 138.689ZM268.667 105.717V137.724C268.667 144.18 265.756 148.705 258.652 148.705C251.216 148.705 247.973 144.511 247.973 137.724V105.717H255.092V138.689C255.092 141.283 256.058 142.897 258.652 142.897C261.231 142.897 262.197 141.283 262.197 138.689V105.717H268.667ZM270.93 148.071L279.015 105.717H287.099L295.184 148.071H287.748L286.451 140.303H279.015L277.718 148.071H270.93ZM279.98 134.481H285.802L282.891 117.347L279.98 134.481ZM298.412 105.717H305.517V142.249H313.933V148.071H298.412V105.717ZM317.161 105.717H324.28V148.071H317.161V105.717ZM327.508 105.717H346.588V111.539H340.766V148.071H333.647V111.539H327.825V105.717H327.508ZM349.816 105.717H356.921V148.071H349.816V105.717ZM361.129 105.717H378.264V111.539H368.248V123.817H375.353V129.639H368.248V142.566H378.264V148.388H361.129V105.717ZM381.175 139.006V133.199H387.962V139.006C387.962 141.283 388.928 142.897 391.522 142.897C393.784 142.897 394.75 141.283 394.75 139.006V137.392C394.75 134.813 393.784 133.516 391.522 131.253L387.314 127.045C383.12 123.169 381.492 120.589 381.492 115.733V114.436C381.492 109.276 384.734 105.068 391.522 105.068C398.626 105.068 401.538 108.628 401.538 114.767V118.327H395.081V114.767C395.081 112.173 394.101 111.207 391.839 111.207C389.908 111.207 388.611 112.173 388.611 114.767V115.733C388.611 117.995 389.908 119.609 391.839 121.555L396.364 126.08C400.255 129.956 402.186 132.55 402.186 137.075V139.006C402.186 144.829 398.958 149.037 391.839 149.037C383.754 148.705 381.175 144.511 381.175 139.006Z" fill="white"/>
<path d="M171.68 284.506L122.855 333.316L171.68 382.458V284.506ZM348.85 382.458L397.66 333.316L348.85 284.506V382.458ZM309.407 245.063L260.265 196.238L211.44 245.063H309.407ZM211.44 421.901L260.265 470.726L309.407 421.901H211.44ZM207.247 287.734H313.601V317.147H207.247V287.734ZM207.247 348.52H313.601V379.23H207.247V348.52Z" fill="white"/>
</svg>
