<svg width="521" height="522" viewBox="0 0 521 522" fill="none" xmlns="http://www.w3.org/2000/svg">
<mask id="mask0_1507_7045" style="mask-type:luminance" maskUnits="userSpaceOnUse" x="0" y="0" width="521" height="522">
<path d="M0.132812 0.845703H520.315V521.028H0.132812V0.845703Z" fill="white"/>
</mask>
<g mask="url(#mask0_1507_7045)">
<path d="M0.132812 0.845703H520.315V521.028H0.132812V0.845703Z" fill="#56C02B"/>
</g>
<path d="M38.2969 63.5666V81.9984L50.5751 69.0572H50.9066V149.558H68.3584V44.4863H54.4517L38.2969 63.5666ZM110.381 77.7903C103.276 77.7903 98.4199 80.3699 95.5089 84.9094V58.7101H125.902V44.4863H79.354V103.658H95.5089V101.396C95.5089 95.2422 98.4199 91.697 103.276 91.697C108.767 91.697 110.713 95.2422 110.713 101.064V126.284C110.713 131.774 108.767 135.665 103.276 135.665C97.1373 135.665 95.1918 131.774 95.1918 125.318V112.06H79.0226V124.021C79.0226 139.859 85.4932 150.206 103.276 150.206C121.06 150.206 128.496 140.839 128.496 126.284V100.747C128.496 84.578 119.763 77.7903 110.381 77.7903Z" fill="white"/>
<path d="M218.052 352.59C218.701 352.59 219.349 353.238 219.349 353.873V391.702C219.349 392.35 218.701 392.999 218.052 392.999H202.848C202.214 392.999 201.566 392.35 201.566 391.702V353.873C201.566 353.238 202.214 352.59 202.848 352.59H218.052ZM386.489 409.168H133.992C133.344 409.168 132.695 409.802 132.695 410.45V425.971C132.695 426.62 133.344 427.268 133.992 427.268H386.489C387.137 427.268 387.786 426.62 387.786 425.971V410.45C387.786 409.802 387.137 409.168 386.489 409.168ZM386.489 439.878H133.992C133.344 439.878 132.695 440.526 132.695 441.175V456.681C132.695 457.33 133.344 457.978 133.992 457.978H386.489C387.137 457.978 387.786 457.33 387.786 456.681V441.175C387.786 440.526 387.137 439.878 386.489 439.878ZM338.313 310.884C335.084 308.29 326.683 302.8 316.336 302.8C308.9 302.8 302.112 305.711 295.958 311.533C295.641 311.85 295.324 312.498 295.324 313.147V314.444C295.324 315.078 295.641 315.726 295.958 316.058C296.607 316.375 296.938 316.706 297.904 316.375H298.221C298.552 316.058 299.201 316.058 299.518 315.726C300.815 314.761 304.374 313.464 309.548 313.464C315.039 313.464 325.386 314.761 335.733 324.46L336.05 324.777C336.699 325.425 337.347 325.757 338.313 325.757C338.961 325.757 339.927 325.425 340.575 324.777L340.907 324.46C351.254 315.078 361.586 313.464 367.091 313.464C372.265 313.464 375.825 314.761 377.107 315.726C377.439 316.058 377.756 316.375 378.404 316.706C378.721 316.706 379.37 317.023 380.018 316.706C380.984 316.375 381.632 315.726 381.632 314.761V313.464C381.632 312.815 381.315 312.167 380.984 311.85C374.845 306.028 368.057 303.117 360.304 303.117C349.957 302.468 341.555 308.29 338.313 310.884ZM322.792 210.007C322.158 210.338 321.826 210.655 321.826 211.304L321.509 212.269C321.178 212.918 321.509 213.566 321.826 214.215C322.158 214.863 322.792 215.18 323.44 215.18H323.772C324.089 215.18 324.737 215.18 325.054 214.863C325.386 214.863 325.703 214.532 326.683 214.532C327.648 214.532 337.996 214.863 344.783 226.176V226.507C345.1 227.142 345.749 227.473 346.397 227.79H347.046C347.363 227.79 348.011 227.79 348.343 227.473H348.66C352.219 225.527 356.096 224.562 359.972 224.562C366.443 224.562 370.651 227.142 371.617 228.121L372.582 229.087C372.914 229.087 373.231 229.404 373.548 229.404H374.196C374.528 229.404 374.845 229.404 375.176 229.087C375.825 228.77 376.142 228.439 376.142 227.79L376.459 227.142V226.507C376.459 226.176 376.459 225.859 376.142 225.527C371.285 217.126 364.18 215.18 359.007 215.18C355.13 215.18 351.888 216.16 349.957 216.809C347.694 213.566 341.872 207.096 332.822 207.096C329.262 207.744 326.034 208.393 322.792 210.007ZM269.456 249.133V250.43C269.456 251.064 269.773 251.712 270.422 252.044C271.07 252.361 271.719 252.361 272.036 252.361H272.367C272.685 252.044 273.016 252.044 273.333 251.712C274.299 251.064 277.858 249.45 283.032 249.45C287.888 249.45 295.324 250.747 303.077 256.886L303.395 257.217C304.043 257.534 304.692 257.866 305.34 257.866H305.657C306.306 257.866 307.286 257.534 307.603 256.886L307.92 256.569C316.336 247.519 325.386 246.222 330.228 246.222C333.47 246.222 336.05 246.87 336.699 247.519C337.016 247.836 337.347 248.167 337.996 248.167H339.61C340.575 247.836 341.224 246.87 340.907 245.905V244.925C340.907 244.276 340.575 243.959 340.258 243.311C335.084 239.103 329.911 236.84 324.089 236.84C315.356 236.84 308.251 242.014 305.34 244.608C302.746 242.662 296.29 239.103 288.522 239.103C281.735 239.103 275.913 242.014 270.753 247.519C269.456 247.836 269.456 248.484 269.456 249.133ZM141.428 269.179C141.428 253.975 153.721 241.697 168.91 241.697H170.524C171.821 222.616 187.976 207.427 207.388 207.427C227.751 207.427 244.554 223.913 244.554 244.608C244.554 250.43 243.272 255.92 240.678 260.777C259.109 264.971 273.016 281.457 273.016 301.186C273.016 324.142 254.584 342.56 231.627 342.56C230.013 342.56 176.346 342.243 176.346 342.243C160.177 342.243 146.919 328.985 146.919 312.815C146.919 305.062 149.83 297.943 155.004 292.77C147.25 288.244 141.428 279.526 141.428 269.179Z" fill="white"/>
<path d="M166.316 44.4863H173.435V81.0184H181.837V86.8405H166.316V44.4863ZM186.045 44.4863H193.15V86.8405H186.045V44.4863ZM198.323 44.4863H215.141V50.3084H205.442V62.6011H212.547V68.4087H205.442V87.172H198.323V44.4863ZM219.018 44.4863H236.152V50.3084H226.137V62.6011H233.241V68.4087H226.137V81.3499H236.152V87.172H219.018V44.4863Z" fill="white"/>
<path d="M166.316 138.577V117.883C166.316 111.095 169.559 106.57 176.995 106.57C184.431 106.57 187.976 111.412 187.976 117.883V138.577C187.976 145.033 184.748 149.89 176.995 149.89C169.559 149.89 166.316 145.033 166.316 138.577ZM180.872 139.543V116.586C180.872 114.006 179.906 112.061 177.312 112.061C174.732 112.061 173.753 114.006 173.753 116.586V139.543C173.753 142.122 174.732 144.068 177.312 144.068C179.575 144.068 180.872 142.122 180.872 139.543ZM198.006 122.725V149.559H191.867V107.204H198.972L206.739 131.458V107.204H212.547V149.559H206.408L198.006 122.725ZM228.068 106.887H235.187V143.419H243.589V149.242H228.068V106.887ZM245.534 149.559L253.619 107.204H261.689L269.774 149.559H262.337L261.055 141.805H253.619L252.322 149.559H245.534ZM254.584 135.983H260.406L257.495 118.849L254.584 135.983ZM278.824 122.725V149.559H272.685V107.204H279.804L287.557 131.458V107.204H293.379V149.559H287.24L278.824 122.725ZM319.564 118.532V138.246C319.564 144.716 316.984 149.559 309.217 149.559H298.221V107.204H309.217C316.653 106.887 319.564 111.744 319.564 118.532ZM308.251 143.736C311.162 143.736 312.459 142.122 312.459 139.543V117.235C312.459 114.641 311.479 113.026 308.251 113.026H305.34V143.736H308.251Z" fill="white"/>
</svg>
