<svg width="510" height="510" viewBox="0 0 510 510" fill="none" xmlns="http://www.w3.org/2000/svg">
<mask id="mask0_1507_6908" style="mask-type:luminance" maskUnits="userSpaceOnUse" x="0" y="0" width="509" height="510">
<path d="M0.132812 0.485352H508.875V509.227H0.132812V0.485352Z" fill="white"/>
</mask>
<g mask="url(#mask0_1507_6908)">
<path d="M0.132812 0.485352H508.875V509.227H0.132812V0.485352Z" fill="#E5243B"/>
</g>
<path d="M72.5622 69.026L72.8792 149.209H90.331V44.4551H76.4388L60.2695 63.5353V81.9527L72.5622 69.026ZM424.308 263.331C432.378 263.331 438.532 256.86 438.532 248.775C438.532 240.691 432.061 234.235 424.308 234.235C416.223 234.235 409.753 240.691 409.753 248.775C409.753 256.86 416.223 263.331 424.308 263.331ZM441.111 268.821H407.49C397.791 269.787 390.038 277.871 390.038 287.901V327.662C390.038 330.573 392.618 333.152 395.529 333.152C398.757 333.152 401.019 330.573 401.019 327.662V293.392C401.019 292.095 401.351 290.481 403.613 290.481C405.228 290.481 405.545 292.095 405.545 293.392V396.201C405.545 400.726 409.104 404.285 413.629 404.285C418.154 404.285 421.714 400.726 421.714 396.201V336.712C421.714 336.063 422.045 334.449 423.976 334.449C425.922 334.449 426.239 336.063 426.239 336.712V395.884C426.239 400.409 429.798 403.954 434.323 403.954C438.849 403.954 442.408 400.409 442.408 395.884V293.075C442.408 292.095 442.725 290.164 444.339 290.164C446.602 290.164 446.933 291.778 446.933 293.075V327.345C446.933 330.241 449.513 332.835 452.424 332.835C455.666 332.835 457.929 330.241 457.929 327.345V287.901C458.577 277.871 450.81 269.47 441.111 268.821ZM310.504 270.118C317.94 270.118 324.079 263.979 324.079 256.543C324.079 249.107 317.94 242.953 310.504 242.953C303.067 242.953 296.928 249.107 296.928 256.543C296.928 263.979 303.067 270.118 310.504 270.118ZM326.673 295.006C328.604 294.358 328.935 296.952 328.935 296.952L337.985 327.662C337.985 327.662 339.599 334.132 345.422 332.518C351.244 330.89 349.298 324.102 349.298 324.102L337.985 287.253C337.985 287.253 333.777 276.574 325.044 276.574H295.948C286.898 276.574 283.022 287.253 283.022 287.253L271.709 324.102C271.709 324.102 269.763 330.89 275.585 332.518C281.408 334.132 283.022 327.662 283.022 327.662L292.072 296.952C292.072 296.952 292.72 294.689 294.334 295.006C296.28 295.655 295.3 297.917 295.3 297.917L279.462 355.792H294.334V397.166C294.334 401.043 297.577 404.285 301.453 404.285C305.33 404.285 308.558 401.043 308.558 397.166V355.792H312.435V397.166C312.435 401.043 315.677 404.285 319.554 404.285C323.43 404.285 326.673 401.043 326.673 397.166V355.792H341.545L325.693 297.917C325.693 297.917 325.044 295.655 326.673 295.006ZM228.706 270.118C236.142 270.118 242.281 263.979 242.281 256.543C242.281 249.107 236.142 242.953 228.706 242.953C221.27 242.953 215.131 249.107 215.131 256.543C215.131 263.979 221.27 270.118 228.706 270.118ZM256.188 287.253C256.188 287.253 252.312 276.574 243.261 276.574H214.165C205.101 276.574 201.224 287.253 201.224 287.253L189.912 324.102C189.912 324.102 189.595 325.082 189.595 326.365C188.946 325.399 187.649 324.751 186.352 324.751C184.738 324.751 183.441 325.399 182.807 326.696C182.475 327.013 177.302 336.395 175.371 338.009C173.425 339.954 171.811 339.623 171.811 339.623H158.236C158.236 339.623 156.608 339.954 154.677 338.009C153.062 336.395 147.557 326.696 147.24 326.696C146.592 325.399 145.295 324.751 143.681 324.751C142.384 324.751 141.101 325.399 140.453 326.696V287.901C140.453 277.871 132.685 269.787 122.987 268.821H89.3655C79.6668 269.787 71.9137 277.871 71.9137 287.901V327.662C71.9137 329.924 73.1963 331.538 74.8247 332.518C74.8247 332.518 74.4933 332.835 74.4933 333.152L61.5665 401.043C61.2351 402.34 62.215 403.32 63.1806 403.637H63.4976C64.4776 403.637 65.4431 402.988 65.4431 402.023L78.3698 334.132V333.484C80.9638 332.835 82.5779 330.573 82.5779 327.979V293.709C82.5779 292.427 82.8949 290.813 85.1719 290.813C86.7859 290.813 87.103 292.427 87.103 293.709V396.518C87.103 401.043 90.6625 404.602 95.1876 404.602C99.7127 404.602 103.272 401.043 103.272 396.518V336.712C103.272 336.063 103.589 334.449 105.535 334.449C107.466 334.449 107.797 336.063 107.797 336.712V395.884C107.797 400.409 111.357 403.954 115.882 403.954C120.407 403.954 123.966 400.409 123.966 395.884V293.075C123.966 292.095 124.284 290.164 125.898 290.164C128.16 290.164 128.492 291.778 128.492 293.075V327.345C128.492 330.241 131.071 332.835 133.982 332.835C136.245 332.835 138.19 331.538 139.156 329.607C139.156 329.924 139.473 330.241 139.473 330.241L150.8 350.936C150.8 350.936 151.434 352.233 151.434 353.53V357.723L145.295 380.032H151.434V398.146C151.434 401.374 154.028 403.637 156.939 403.637C160.167 403.637 162.43 401.043 162.43 398.146V380.032H165.672V398.146C165.672 401.374 168.252 403.637 171.163 403.637C174.391 403.637 176.653 401.043 176.653 398.146V380.032H182.807L176.653 357.723V353.847C176.653 352.55 177.302 351.267 177.302 351.267L187.966 332.187C187.966 332.187 188.615 330.89 188.946 329.607C189.595 330.89 190.56 331.87 192.174 332.518C197.996 334.132 199.61 327.662 199.61 327.662L208.66 296.952C208.66 296.952 209.309 294.689 210.923 295.006C212.868 295.655 211.903 297.917 211.903 297.917L196.051 355.792H210.923V397.166C210.923 401.043 214.165 404.285 218.042 404.285C221.919 404.285 225.147 401.043 225.147 397.166V355.792H229.038V397.166C229.038 401.043 232.266 404.285 236.142 404.285C240.019 404.285 243.261 401.043 243.261 397.166V355.792H258.134L242.281 297.917C242.281 297.917 241.633 295.338 243.261 295.006C245.192 294.358 245.524 296.952 245.524 296.952L254.574 327.662C254.574 327.662 256.188 334.132 262.01 332.518C267.832 330.89 265.887 324.102 265.887 324.102L256.188 287.253ZM369.992 332.518C376.132 332.518 381.305 327.345 381.305 321.191C381.305 315.052 376.132 309.878 369.992 309.878C363.839 309.878 358.68 315.052 358.68 321.191C358.68 327.662 363.522 332.518 369.992 332.518ZM396.826 364.842C396.826 364.511 389.707 347.059 388.741 344.479C386.147 337.043 381.622 337.043 377.097 337.043H361.259C355.437 337.36 353.506 340.271 347.036 357.075C346.07 359.352 342.828 367.422 342.828 367.753C342.179 369.05 341.862 371.947 344.442 373.244C347.684 374.541 349.298 371.63 349.298 371.63L355.437 351.915C355.437 351.915 356.403 350.618 356.403 351.915V398.146C356.403 401.374 358.997 403.954 362.225 403.954C365.467 403.954 368.047 401.374 368.047 398.146V379.714C368.047 379.714 367.73 377.12 369.661 377.12C371.606 377.12 371.275 379.714 371.275 379.714V398.146C371.275 401.374 373.869 403.954 377.097 403.954C380.34 403.954 382.919 401.374 382.919 398.146V351.915C382.919 350.618 383.568 351.584 383.568 351.584L388.41 365.159C388.41 365.159 390.355 371.313 391.004 371.313C393.266 372.278 395.846 371.313 396.494 369.05C397.791 367.753 397.474 366.139 396.826 364.842ZM106.183 263.331C114.268 263.331 120.724 256.86 120.724 248.775C120.724 240.691 114.268 234.235 106.183 234.235C98.0986 234.235 91.9595 240.691 91.9595 248.775C91.9595 256.86 98.4157 263.331 106.183 263.331Z" fill="white"/>
<path d="M161.622 324.967C167.634 324.967 172.701 319.911 172.701 313.898C172.701 307.898 167.634 302.842 161.622 302.842C155.596 302.842 150.529 307.898 150.529 313.898C150.529 320.221 155.596 324.967 161.622 324.967ZM152.434 57.989V84.2122H146.422V42.8213H153.38L160.987 66.5235V42.8213H166.689V84.2122H160.662L152.434 57.989ZM171.431 73.4666V53.2429C171.431 46.6097 174.592 42.1875 181.875 42.1875C189.158 42.1875 192.644 46.9336 192.644 53.2429V73.4666C192.644 79.79 189.482 84.522 181.875 84.522C174.592 84.522 171.431 79.79 171.431 73.4666ZM185.686 74.4243V51.9895C185.686 49.4545 184.726 47.5673 182.2 47.5673C179.659 47.5673 178.714 49.4545 178.714 51.9895V74.4243C178.714 76.9452 179.659 78.8465 182.2 78.8465C184.415 78.8465 185.686 76.9452 185.686 74.4243ZM146.732 104.112H157.19C164.148 104.112 166.689 107.591 166.689 113.28V122.125C166.689 127.814 164.148 131.603 157.19 131.603H153.704V145.827H146.732V104.112ZM153.704 109.802V126.237H156.231C158.771 126.237 159.717 124.969 159.717 122.758V113.28C159.717 111.069 158.771 109.802 156.231 109.802H153.704ZM170.796 135.081V114.858C170.796 108.224 173.971 103.802 181.254 103.802C188.537 103.802 192.008 108.534 192.008 114.858V135.081C192.008 141.391 188.847 146.137 181.254 146.137C173.971 146.137 170.796 141.391 170.796 135.081ZM185.051 136.025V113.59C185.051 111.069 184.091 109.168 181.565 109.168C179.038 109.168 178.078 111.069 178.078 113.59V136.025C178.078 138.56 179.038 140.447 181.565 140.447C183.78 140.447 185.051 138.56 185.051 136.025ZM217.977 104.112L210.06 145.503H202.467L194.549 104.112H201.507L206.263 133.18L211.33 104.112H217.977ZM221.463 104.112H238.244V109.802H228.421V121.815H235.393V127.49H228.421V140.137H238.244V145.827H221.463V104.112ZM249.323 126.547V145.503H242.351V104.112H252.485C259.457 104.112 261.983 107.591 261.983 113.28V118.646C261.983 123.068 260.403 125.603 256.281 126.547L262.929 145.503H255.646L249.323 126.547ZM249.323 109.802V122.758H251.539C254.066 122.758 255.025 121.491 255.025 119.28V113.28C255.025 111.069 254.066 109.802 251.539 109.802H249.323ZM265.159 104.112H283.831V109.802H278.129V145.827H271.171V110.126H265.469L265.159 104.112ZM301.247 129.701V145.503H294.275V129.701L286.371 104.112H293.654L297.761 119.913L301.882 104.112H308.53L301.247 129.701Z" fill="white"/>
</svg>
