<svg width="521" height="521" viewBox="0 0 521 521" fill="none" xmlns="http://www.w3.org/2000/svg">
<mask id="mask0_1507_7030" style="mask-type:luminance" maskUnits="userSpaceOnUse" x="0" y="0" width="521" height="521">
<path d="M0.132812 0.664062H520.315V520.846H0.132812V0.664062Z" fill="white"/>
</mask>
<g mask="url(#mask0_1507_7030)">
<path d="M0.132812 0.664062H520.315V520.846H0.132812V0.664062Z" fill="#3F7E44"/>
</g>
<path d="M65.7523 44.3064V149.378H47.9691V68.8773L35.6908 81.8184H35.3594V63.3866L51.5286 44.3064H65.7523ZM123.944 67.2632V76.3134C123.944 85.0465 119.102 90.8686 111.983 93.4481C120.716 95.3936 124.924 101.533 124.924 111.231V126.752C124.924 141.293 117.157 150.675 99.3734 150.675C81.5901 150.675 75.134 140.327 75.134 124.49V110.583H91.2888V125.455C91.2888 131.594 93.5657 135.802 99.3734 135.802C104.878 135.802 107.141 131.926 107.141 126.421V108.969C107.141 103.478 104.547 100.567 98.4079 100.567H90.9717V86.992H97.7594C103.581 86.992 107.141 84.0809 107.141 78.5759V67.2632C107.141 61.4411 105.195 57.896 99.7049 57.896C94.1998 57.896 92.2687 61.4411 92.2687 68.2288V78.9074H76.0995V69.5258C76.0995 54.005 82.5701 43.3408 100.67 43.3408C116.84 43.3408 123.944 52.391 123.944 67.2632ZM451.119 326.547C437.544 307.467 375.475 230.526 260.057 230.526C144.639 230.526 82.8871 307.15 68.9948 326.547C68.3463 327.513 68.0149 328.161 67.3664 328.81C67.6978 329.458 68.3463 330.107 68.9948 331.072C82.5701 350.153 144.639 427.093 260.057 427.093C375.144 427.093 437.227 350.47 451.119 331.072C451.768 330.107 452.099 329.458 452.733 328.81C452.099 328.161 451.768 327.196 451.119 326.547ZM195.726 279.02C196.691 277.406 200.251 273.198 200.568 272.563C201.534 271.266 203.162 271.266 204.445 270.935C205.742 270.618 207.356 271.266 207.356 272.232C207.687 273.198 207.039 276.757 206.39 277.406C204.776 279.02 200.251 281.614 197.988 281.282C196.36 280.965 195.394 279.668 195.726 279.02ZM191.835 287.104C192.166 286.787 192.166 286.787 192.166 286.456C193.463 284.842 196.36 284.525 198.637 284.193C200.568 283.876 203.162 284.842 203.479 286.139C203.796 287.436 198.637 290.015 197.34 290.664C194.429 293.243 190.221 298.417 187.641 299.065C186.661 299.397 186.027 299.065 185.696 298.748C187.31 295.189 189.572 290.981 191.835 287.104ZM234.838 375.689C233.224 381.828 231.609 384.091 229.995 386.036C228.367 387.967 222.559 390.561 219 390.23C215.44 389.913 214.792 380.214 214.792 375.372C214.792 373.744 212.212 378.917 210.915 368.253C209.95 361.465 205.742 368.902 205.425 364.376C205.093 359.851 202.831 360.817 200.568 357.906C198.305 354.995 195.394 358.237 192.483 359.52C189.255 360.817 190.552 361.782 186.344 360.168H186.027C181.819 350.47 179.557 340.123 179.557 328.81C179.557 326.23 179.557 323.319 179.874 320.725C179.874 320.408 180.205 320.077 180.522 320.077C184.73 314.903 184.73 313.938 184.73 313.938L189.572 312.324C189.572 312.324 197.008 313.621 202.831 315.552C207.356 317.166 214.792 321.374 219 319.428C222.228 318.146 224.49 316.532 224.173 313.938C223.842 310.71 221.262 310.061 218.351 311.992C217.054 312.641 214.792 307.15 212.861 307.467C210.915 307.799 215.123 314.269 213.495 314.269C211.881 314.586 208.653 307.467 208.004 306.502C207.356 305.536 205.093 302.625 202.831 304.888C197.988 309.413 190.552 309.096 188.938 310.378C184.082 313.938 183.116 309.096 183.116 306.502C183.433 305.853 183.433 305.205 183.765 304.57C185.379 302.942 190.869 302.294 192.815 303.591C194.746 304.888 196.36 303.273 197.34 302.294C198.305 301.328 197.988 300.031 197.34 299.065C196.691 298.1 198.305 297.134 199.602 296.803C200.568 296.486 204.128 293.892 205.742 293.243C207.039 292.278 214.475 291.629 218.034 293.243C221.262 294.857 224.49 293.575 226.104 291.629C228.05 289.05 230.63 287.436 231.927 286.787C233.224 286.139 229.016 282.579 225.787 286.456C222.559 290.664 220.931 290.981 219.317 290.981C217.703 290.981 208.653 288.718 207.356 285.807C206.39 282.896 210.267 280.634 213.826 279.02C217.386 277.406 226.753 277.406 229.016 276.757C233.872 275.792 240.011 273.198 243.239 275.46C246.482 277.406 230.313 281.282 235.486 284.193C237.432 285.159 245.833 279.351 248.744 277.737C255.532 274.178 241.957 272.881 243.888 265.761C245.833 257.691 227.084 260.602 218.034 261.568C230.63 253.483 245.185 248.958 261.354 248.958C299.169 248.958 330.859 275.143 339.26 310.378C339.26 311.992 338.943 313.289 338.943 313.938C338.295 316.849 332.804 319.428 329.562 314.586C328.596 313.289 325.368 310.061 325.368 315.883C325.368 321.374 330.859 322.022 325.685 325.25C320.511 328.493 319.546 327.844 317.283 328.493C315.021 329.458 312.758 334.949 313.075 338.192C313.724 341.103 320.829 349.504 315.669 349.173C314.372 349.173 304.674 342.385 303.06 338.192C301.431 333.666 299.5 329.458 298.203 325.899C296.906 322.671 293.361 321.691 290.767 323.636C287.856 325.582 291.415 327.513 289.47 331.721C287.539 335.929 285.925 339.474 283.014 336.246C275.246 327.196 263.934 331.721 262.002 321.691C261.023 316.2 256.497 316.849 252.621 313.621C248.744 310.71 246.482 308.764 245.833 311.027C245.185 312.972 258.111 323.319 259.091 325.899C260.374 329.775 255.2 333.335 251.324 333.983C247.447 334.949 245.833 331.721 241.957 327.844C238.066 323.968 236.452 321.057 236.452 324.285C236.135 328.81 240.011 335.28 243.888 337.543C247.13 339.474 250.675 340.454 249.71 343.999C248.744 347.242 249.71 345.296 246.15 349.173C242.605 352.732 241.957 354.029 241.957 358.871C242.274 364.045 240.977 364.045 240.011 368.253C238.397 373.095 236.452 369.55 234.838 375.689ZM321.16 343.682C323.74 343.365 327.948 347.242 326.334 348.539C324.72 349.821 320.829 349.504 318.566 347.89C316.635 346.262 319.863 343.682 321.16 343.682ZM317.6 341.103C316.635 340.771 315.986 339.806 315.338 337.86C314.689 335.929 316.303 334.632 317.932 335.598C319.546 336.563 321.808 338.826 321.808 340.123C321.808 341.737 318.566 341.737 317.6 341.103ZM282.034 341.103C280.42 342.385 276.543 342.068 274.281 340.454C272.335 338.826 275.578 336.246 276.86 336.246C279.771 335.929 283.662 339.806 282.034 341.103ZM249.393 356.94C248.413 358.871 245.185 372.13 243.239 370.516C241.308 368.902 244.219 354.995 244.536 353.698C247.764 348.207 254.566 348.539 249.393 356.94ZM260.374 409.31C252.621 409.31 244.868 408.013 237.749 406.082C236.783 405.102 236.135 403.82 236.783 402.206C239.363 395.735 246.799 393.141 252.621 392.507C265.548 391.21 282.682 400.909 285.593 399.295C288.187 397.666 293.678 390.561 301.763 390.878C307.253 391.21 307.253 392.175 309.199 392.824C295.624 403.171 278.489 409.31 260.374 409.31ZM316.952 386.036C316.303 385.705 315.338 385.388 314.372 385.071C309.847 382.794 310.496 386.353 308.233 385.705C305.971 385.071 310.813 379.897 304.025 384.091C297.555 388.299 299.169 383.442 296.589 376.338C293.678 369.219 299.817 361.134 304.991 359.203C312.11 356.609 316.303 356.292 319.546 355.326C329.245 353.064 331.176 347.242 333.121 350.801L334.087 352.732C334.735 353.698 335.384 355.96 335.384 357.906C331.176 368.57 325.037 377.952 316.952 386.036ZM338.943 345.628C336.681 344.979 327.631 332.686 335.067 324.285C336.349 322.988 332.804 319.111 333.77 318.794C337.646 318.463 339.592 321.057 340.874 324.285V328.81C340.557 334.632 339.909 340.123 338.943 345.628ZM165.981 75.9963V55.302C165.981 48.5144 169.21 43.9893 176.646 43.9893C184.399 43.9893 186.661 48.5144 186.661 54.6535V59.8271H180.205V54.3365C180.205 51.7425 179.225 50.1284 176.646 50.1284C174.066 50.1284 173.086 52.0739 173.086 54.6535V77.6104C173.086 80.19 174.066 82.1354 176.646 82.1354C179.225 82.1354 180.205 80.5214 180.205 77.9274V70.1743H186.661V77.6104C186.661 83.7495 184.082 88.2746 176.646 88.2746C169.21 87.309 165.981 82.4525 165.981 75.9963ZM191.201 44.3064H198.305V80.8385H206.707V86.6605H191.201V44.3064ZM210.915 44.3064H218.034V86.6605H210.915V44.3064ZM242.922 59.1786L237.749 86.6605H234.521L229.347 59.1786V86.6605H223.525V44.3064H231.927L236.452 68.2288L240.66 44.3064H249.71V86.6605H243.239L242.922 59.1786ZM253.269 86.992L261.354 44.6378H269.439L277.509 86.992H270.073L268.79 79.2244H261.354L260.057 86.992H253.269ZM262.002 73.4023H267.81L264.899 56.2676L262.002 73.4023ZM276.543 44.3064H295.624V50.1284H289.801V86.6605H282.682V50.1284H276.86L276.543 44.3064ZM299.5 44.3064H316.635V50.1284H306.605V62.4211H313.724V68.2288H306.605V81.1699H316.635V86.992H299.5V44.3064ZM164.684 148.412L172.769 106.058H180.854L188.938 148.412H181.819L180.522 140.659H173.086L171.804 148.412H164.684ZM173.735 134.837H179.557L176.646 117.702L173.735 134.837ZM191.201 137.416V116.722C191.201 109.934 194.429 105.409 201.865 105.409C209.618 105.409 211.881 109.934 211.881 116.088V121.262H205.425V115.757C205.425 113.177 204.445 111.563 201.865 111.563C199.271 111.563 198.305 113.494 198.305 116.088V139.03C198.305 141.624 199.271 143.555 201.865 143.555C204.445 143.555 205.425 141.941 205.425 139.362V131.594H211.881V139.03C211.881 145.184 209.301 149.709 201.865 149.709C194.097 149.061 191.201 143.887 191.201 137.416ZM214.475 106.058H233.541V111.88H227.733V148.412H220.614V111.88H214.792L214.475 106.058ZM237.432 106.058H244.536V148.412H237.432V106.058ZM249.393 137.416V116.722C249.393 109.934 252.621 105.409 260.057 105.409C267.493 105.409 271.053 110.266 271.053 116.722V137.416C271.053 143.887 267.81 148.729 260.057 148.729C252.621 149.061 249.393 143.887 249.393 137.416ZM263.617 138.713V115.757C263.617 113.177 262.637 111.231 260.057 111.231C257.463 111.231 256.497 113.177 256.497 115.757V138.713C256.497 141.293 257.463 143.238 260.057 143.238C262.637 142.921 263.617 141.293 263.617 138.713ZM281.717 121.579V148.412H275.578V106.058H282.682L290.45 130.312V106.058H296.272V148.412H290.118L281.717 121.579Z" fill="white"/>
</svg>
