<svg width="521" height="521" viewBox="0 0 521 521" fill="none" xmlns="http://www.w3.org/2000/svg">
<mask id="mask0_1507_7037" style="mask-type:luminance" maskUnits="userSpaceOnUse" x="0" y="0" width="521" height="521">
<path d="M0.015625 0.664062H520.198V520.846H0.015625V0.664062Z" fill="white"/>
</mask>
<g mask="url(#mask0_1507_7037)">
<path d="M0.015625 0.664062H520.198V520.846H0.015625V0.664062Z" fill="#0A97D9"/>
</g>
<path d="M67.9086 44.6456V149.385H50.1253V69.2165L37.8327 82.1432H37.5156V63.7114L53.6849 44.6456H67.9086ZM121.575 149.385V132.251H128.68V118.358H121.575V44.3141H104.109L73.7307 121.269V132.251H104.758V149.385H121.575ZM89.237 118.675L105.089 75.3556V118.675H89.237ZM400.574 380.539C394.103 371.82 351.764 317.822 292.592 317.822C241.187 317.822 185.907 364.384 185.907 364.384C185.907 364.384 165.212 322.03 122.872 317.822H121.893C120.927 317.822 120.278 318.802 120.278 319.436C120.278 320.085 120.927 321.065 120.927 321.065C126.418 330.115 140.324 355.968 140.324 381.519C140.324 407.373 126.418 433.24 120.927 442.291L120.596 442.939C120.596 443.271 120.278 443.588 120.278 443.905C120.278 444.885 120.927 445.533 121.893 445.533H122.541C164.895 441.642 185.907 398.971 185.907 398.971C185.907 398.971 240.87 445.533 292.592 445.533C351.764 445.533 394.103 391.535 400.574 382.802C400.905 382.485 400.905 382.485 400.905 382.168V380.871L400.574 380.539ZM325.247 388.624C315.549 388.624 307.795 380.871 307.795 371.172C307.795 361.473 315.549 354.037 325.247 354.037C334.946 354.037 342.714 361.79 342.714 371.172C342.714 380.871 334.946 388.624 325.247 388.624ZM121.244 216.31H120.927C119.961 216.31 119.313 216.959 119.313 217.924V229.886C119.313 230.534 119.63 230.866 119.961 231.183C148.726 256.071 175.559 232.797 182.03 226.658C182.03 226.34 182.347 226.34 182.347 226.34C182.678 226.009 182.995 226.009 183.327 226.009C183.644 226.009 184.292 226.34 184.61 226.34C216.948 257.051 250.886 232.148 258.005 226.34L258.654 225.692H259.936L260.585 226.34C267.704 232.148 301.642 257.051 333.98 226.34C334.297 226.009 334.629 226.009 335.277 226.009C335.594 226.009 335.911 226.009 336.243 226.34C336.56 226.34 336.56 226.658 336.56 226.658C342.714 232.797 369.864 256.071 398.643 231.183C398.96 230.866 399.277 230.534 399.277 229.886V217.924C399.277 216.959 398.643 216.31 397.663 216.31H397.346C397.014 216.31 396.697 216.642 396.38 216.642C387.647 221.167 360.165 231.5 335.594 208.226L334.946 207.577H333.649C333.332 207.577 333.015 207.909 332.683 208.226C325.247 213.731 291.309 236.673 261.233 208.557L260.916 208.226C260.585 207.909 260.268 207.577 259.619 207.577C259.302 207.577 258.654 207.909 258.322 208.226L258.005 208.557C227.944 236.673 193.991 213.731 186.555 208.226C186.238 207.909 186.238 207.577 185.589 207.577H184.292L183.644 208.226C158.756 231.831 131.591 221.167 122.872 216.642C121.893 216.642 121.575 216.31 121.244 216.31ZM181.698 269.329C181.698 269.012 182.03 269.012 182.03 269.012C182.347 268.68 182.678 268.68 182.995 268.68C183.327 268.68 183.975 269.012 184.292 269.012C216.617 299.722 250.569 274.834 257.674 269.012L258.322 268.363H259.619L260.268 269.012C267.372 274.834 301.325 299.722 333.649 269.012C333.98 268.68 334.297 268.68 334.946 268.68C335.277 268.68 335.594 268.68 335.911 269.012C336.243 269.012 336.243 269.329 336.243 269.329C342.382 275.468 369.547 298.756 398.311 273.854C398.643 273.537 398.96 273.205 398.96 272.571V260.61C398.96 259.63 398.311 258.982 397.346 258.982H397.014C396.697 258.982 396.38 259.313 396.049 259.313C387.316 263.838 359.848 274.185 335.277 250.897L334.629 250.263C334.297 250.263 334.297 249.931 333.98 249.931H333.332C333.015 249.931 332.683 250.263 332.366 250.58C324.93 256.071 290.978 279.027 260.916 250.897L260.585 250.58C260.268 250.263 259.936 250.263 259.302 250.263C258.971 250.263 258.322 250.58 258.005 250.58L257.674 250.897C227.612 279.027 193.674 256.071 186.238 250.58C185.907 250.263 185.907 249.931 185.258 249.931H184.61C184.292 249.931 184.292 249.931 183.975 250.263L183.327 250.897C158.425 274.185 131.274 263.838 122.541 259.313C122.224 259.313 121.893 258.982 121.575 258.982H121.244C120.278 258.982 119.63 259.63 119.63 260.61V272.571C119.63 273.205 119.961 273.537 120.278 273.854C148.409 298.756 175.559 275.468 181.698 269.329ZM166.192 44.3141H173.297V80.8462H181.698V86.6683H166.192V44.3141ZM185.258 44.3141H192.377V86.6683H185.258V44.3141ZM196.902 44.3141H213.706V50.1362H204.007V62.4288H211.126V68.2365H204.007V86.9997H196.902V44.3141ZM216.948 44.3141H234.083V50.1362H224.053V62.4288H231.172V68.2365H224.053V81.1777H234.083V86.9997H216.948V44.3141ZM247.341 44.3141H257.674C264.793 44.3141 267.055 47.5566 267.055 53.6957V57.9038C267.055 61.4489 265.758 63.7114 262.847 64.6914C266.407 65.6569 268.021 67.9195 268.021 71.796V77.3011C268.021 83.4402 265.441 86.6683 258.322 86.6683H247.341V44.3141ZM254.446 62.4288H257.04C259.302 62.4288 260.268 61.1318 260.268 58.8693V53.6957C260.268 51.4332 259.302 50.1362 256.708 50.1362H254.129V62.4288H254.446ZM254.446 67.9195V81.1777H257.674C259.936 81.1777 261.233 79.8807 261.233 77.6181V71.1475C261.233 68.885 260.268 67.6024 257.674 67.6024L254.446 67.9195ZM271.263 44.3141H288.398V50.1362H278.368V62.4288H285.487V68.2365H278.368V81.1777H288.398V86.9997H271.263V44.3141ZM292.923 44.3141H300.028V80.8462H308.444V86.6683H292.923V44.3141ZM311.341 76.0041V55.3098C311.341 48.5221 314.583 43.9971 322.019 43.9971C329.455 43.9971 333.015 48.8392 333.015 55.3098V76.0041C333.015 82.4602 329.772 87.3168 322.019 87.3168C314.583 87.3168 311.341 82.4602 311.341 76.0041ZM325.579 76.9696V54.0128C325.579 51.4332 324.599 49.4877 322.019 49.4877C319.425 49.4877 318.46 51.4332 318.46 54.0128V76.9696C318.46 79.5636 319.425 81.4947 322.019 81.4947C324.599 81.4947 325.579 79.5636 325.579 76.9696ZM351.764 60.4833L347.873 86.6683H341.085L335.277 44.3141H342.065L345.293 71.1475L348.853 44.3141H354.675L358.551 71.1475L361.779 44.3141H367.918L362.428 86.6683H355.64L351.764 60.4833Z" fill="white"/>
<path d="M181.693 122.88L177.817 149.065H171.029L165.207 106.711H171.995L175.237 133.544L178.797 106.711H184.604L188.495 133.544L191.723 106.711H197.863L192.372 149.065H185.584L181.693 122.88ZM197.545 149.382L205.63 107.028H213.7L221.785 149.382H214.349L213.066 141.629H205.63L204.333 149.382H197.545ZM206.264 135.807H212.086L209.175 118.672L206.264 135.807ZM220.171 106.711H239.251V112.533H233.429V149.065H226.31V112.533H220.502V106.711H220.171ZM242.479 106.711H259.614V112.533H249.598V124.811H256.703V130.633H249.598V143.56H259.614V149.382H242.479V106.711ZM270.61 129.668V149.065H263.491V106.711H273.838C280.957 106.711 283.536 110.27 283.536 116.093V121.583C283.536 126.108 281.922 128.702 277.714 129.668L284.502 149.065H277.066L270.61 129.668ZM270.61 112.533V125.791H272.872C275.452 125.791 276.432 124.494 276.432 122.232V116.093C276.432 113.83 275.452 112.533 272.872 112.533H270.61Z" fill="white"/>
</svg>
