<svg width="521" height="521" viewBox="0 0 521 521" fill="none" xmlns="http://www.w3.org/2000/svg">
<mask id="mask0_1507_7010" style="mask-type:luminance" maskUnits="userSpaceOnUse" x="0" y="0" width="521" height="521">
<path d="M0.132812 0.481445H520.315V520.664H0.132812V0.481445Z" fill="white"/>
</mask>
<g mask="url(#mask0_1507_7010)">
<path d="M0.132812 0.481445H520.315V520.664H0.132812V0.481445Z" fill="#FD9D24"/>
</g>
<path d="M37.6445 63.2023V81.6341L50.2542 68.693V148.876H68.0375V44.1221H53.7993L37.6445 63.2023ZM77.7361 63.2023V81.6341H78.0532L90.3314 68.693V148.876H108.115V44.1221H93.891L77.7361 63.2023Z" fill="white"/>
<path d="M86.1409 396.511H164.379C165.344 396.511 166.31 395.545 166.31 394.58C166.31 393.931 165.993 393.6 165.676 393.283L126.867 342.844L126.55 342.527C126.232 342.195 125.584 341.878 125.253 341.878C124.935 341.878 124.287 342.195 123.97 342.527L123.638 342.844L123.321 343.175L85.1609 392.951L84.5268 393.6C84.1954 393.931 84.1954 394.248 84.1954 394.58C84.1954 395.545 85.1609 396.511 86.1409 396.511ZM164.047 403.63H85.4924C84.5268 403.63 83.5469 404.595 83.5469 405.561V466.995C83.5469 467.961 84.5268 468.926 85.4924 468.926H110.712V430.463C110.712 429.483 111.677 428.518 112.643 428.518H135.931C136.897 428.518 137.862 429.483 137.862 430.463V468.926H163.73C164.696 468.926 165.676 467.961 165.676 466.995V405.561C165.993 404.595 165.344 403.63 164.047 403.63ZM434.975 387.461H357.386C356.406 387.461 355.441 388.426 355.441 389.406V467.644C355.441 468.609 356.406 469.575 357.386 469.575H434.975C435.941 469.575 436.907 468.609 436.907 467.644V389.406C436.907 388.426 436.272 387.461 434.975 387.461ZM392.621 438.865C392.621 439.83 391.656 440.81 390.676 440.81H367.402C366.436 440.81 365.471 439.83 365.471 438.865V424.641C365.471 423.676 366.436 422.696 367.402 422.696H390.676C391.656 422.696 392.621 423.676 392.621 424.641V438.865ZM392.621 412.68C392.621 413.645 391.656 414.611 390.676 414.611H367.402C366.436 414.611 365.471 413.645 365.471 412.68V398.456C365.471 397.476 366.436 396.511 367.402 396.511H390.676C391.656 396.511 392.621 397.476 392.621 398.456V412.68ZM428.188 438.865C428.188 439.83 427.208 440.81 426.242 440.81H402.968C402.003 440.81 401.023 439.83 401.023 438.865V424.641C401.023 423.676 402.003 422.696 402.968 422.696H426.242C427.208 422.696 428.188 423.676 428.188 424.641V438.865ZM428.188 412.68C428.188 413.645 427.208 414.611 426.242 414.611H402.968C402.003 414.611 401.023 413.645 401.023 412.68V398.456C401.023 397.476 402.003 396.511 402.968 396.511H426.242C427.208 396.511 428.188 397.476 428.188 398.456V412.68ZM254.578 205.766H178.919C177.954 205.766 176.988 206.731 176.988 207.711V467.312C176.988 468.278 177.954 469.258 178.919 469.258H254.895C255.875 469.258 256.84 468.278 256.84 467.312V207.711C256.509 206.414 255.875 205.766 254.578 205.766ZM209.644 439.513C209.644 440.162 209.312 440.479 208.664 440.479H191.212C190.564 440.479 190.232 440.162 190.232 439.513V420.116C190.232 419.468 190.564 419.15 191.212 419.15H208.664C209.312 419.15 209.644 419.468 209.644 420.116V439.513ZM209.644 394.897C209.644 395.545 209.312 395.862 208.664 395.862H191.212C190.564 395.862 190.232 395.545 190.232 394.897V375.499C190.232 374.851 190.564 374.534 191.212 374.534H208.664C209.312 374.534 209.644 374.851 209.644 375.499V394.897ZM209.644 350.28C209.644 350.928 209.312 351.245 208.664 351.245H191.212C190.564 351.245 190.232 350.928 190.232 350.28V330.883C190.232 330.234 190.564 329.917 191.212 329.917H208.664C209.312 329.917 209.644 330.234 209.644 330.883V350.28ZM209.644 305.995C209.644 306.643 209.312 306.96 208.664 306.96H191.212C190.564 306.96 190.232 306.643 190.232 305.995V286.597C190.232 285.949 190.564 285.617 191.212 285.617H208.664C209.312 285.617 209.644 285.949 209.644 286.597V305.995ZM209.644 261.378C209.644 262.026 209.312 262.344 208.664 262.344H191.212C190.564 262.344 190.232 262.026 190.232 261.378V241.981C190.232 241.332 190.564 241.001 191.212 241.001H208.664C209.312 241.001 209.644 241.332 209.644 241.981V261.378ZM243.582 439.513C243.582 440.162 243.265 440.479 242.616 440.479H225.15C224.502 440.479 224.185 440.162 224.185 439.513V420.116C224.185 419.468 224.502 419.15 225.15 419.15H242.616C243.265 419.15 243.582 419.468 243.582 420.116V439.513ZM243.582 394.897C243.582 395.545 243.265 395.862 242.616 395.862H225.15C224.502 395.862 224.185 395.545 224.185 394.897V375.499C224.185 374.851 224.502 374.534 225.15 374.534H242.616C243.265 374.534 243.582 374.851 243.582 375.499V394.897ZM243.582 350.28C243.582 350.928 243.265 351.245 242.616 351.245H225.15C224.502 351.245 224.185 350.928 224.185 350.28V330.883C224.185 330.234 224.502 329.917 225.15 329.917H242.616C243.265 329.917 243.582 330.234 243.582 330.883V350.28ZM243.582 305.995C243.582 306.643 243.265 306.96 242.616 306.96H225.15C224.502 306.96 224.185 306.643 224.185 305.995V286.597C224.185 285.949 224.502 285.617 225.15 285.617H242.616C243.265 285.617 243.582 285.949 243.582 286.597V305.995ZM243.582 261.378C243.582 262.026 243.265 262.344 242.616 262.344H225.15C224.502 262.344 224.185 262.026 224.185 261.378V241.981C224.185 241.332 224.502 241.001 225.15 241.001H242.616C243.265 241.001 243.582 241.332 243.582 241.981V261.378ZM436.907 379.707C436.907 380.673 436.272 381.321 435.292 381.321H357.055C356.089 381.321 355.441 380.673 355.441 379.707V364.187C355.441 363.207 356.089 362.573 357.055 362.573H435.292C436.272 362.573 436.907 363.207 436.907 364.187V379.707ZM346.391 254.59C346.073 253.61 345.425 253.293 344.445 253.293C344.128 253.293 343.811 253.293 343.48 253.61L342.831 254.259L268.153 348.983L267.836 349.314C267.504 349.631 267.187 350.28 267.187 350.928V467.312C267.187 468.278 268.153 469.258 269.118 469.258H345.094C346.073 469.258 347.039 468.278 347.039 467.312V255.239C346.708 255.239 346.708 254.907 346.391 254.59ZM315.032 305.995L315.681 305.346C320.854 298.876 329.256 288.211 333.464 283.038L334.112 282.389C334.429 282.072 335.078 281.741 335.726 281.741C336.692 281.741 337.657 282.389 337.657 283.355V307.277C337.657 308.574 336.692 309.223 335.726 309.54H316.978C315.681 309.54 315.032 308.574 315.032 307.277C314.715 306.96 314.715 306.312 315.032 305.995ZM303.071 438.548C303.071 439.513 302.105 440.479 301.125 440.479H278.5C277.534 440.479 276.554 439.513 276.554 438.548V424.31C276.554 423.344 277.534 422.379 278.5 422.379H301.125C302.105 422.379 303.071 423.344 303.071 424.31V438.548ZM303.071 412.68C303.071 413.645 302.105 414.611 301.125 414.611H278.5C277.534 414.611 276.554 413.645 276.554 412.68V398.456C276.554 397.476 277.534 396.511 278.5 396.511H301.125C302.105 396.511 303.071 397.476 303.071 398.456V412.68ZM303.071 386.495C303.071 387.461 302.105 388.426 301.125 388.426H278.5C277.534 388.426 276.554 387.461 276.554 386.495V372.271C276.554 371.291 277.534 370.326 278.5 370.326H301.125C302.105 370.326 303.071 371.291 303.071 372.271V386.495ZM303.388 328.937V359.979C303.388 360.944 302.422 361.924 301.457 361.924H278.817C277.851 361.924 276.886 360.944 276.886 359.979V355.136C276.886 355.136 276.886 354.805 277.203 354.805C277.203 354.805 277.203 354.488 277.534 354.488C280.445 350.28 293.372 334.111 298.863 327.655L299.511 327.006C299.843 326.675 300.477 326.358 301.125 326.358C302.105 326.358 303.071 327.006 303.071 327.972V328.937H303.388ZM337.989 438.548C337.989 439.513 337.009 440.479 336.043 440.479H313.418C312.438 440.479 311.472 439.513 311.472 438.548V424.31C311.472 423.344 312.438 422.379 313.418 422.379H336.043C337.009 422.379 337.989 423.344 337.989 424.31V438.548ZM337.989 412.68C337.989 413.645 337.009 414.611 336.043 414.611H313.418C312.438 414.611 311.472 413.645 311.472 412.68V398.456C311.472 397.476 312.438 396.511 313.418 396.511H336.043C337.009 396.511 337.989 397.476 337.989 398.456V412.68ZM337.989 386.495C337.989 387.461 337.009 388.426 336.043 388.426H313.418C312.438 388.426 311.472 387.461 311.472 386.495V372.271C311.472 371.291 312.438 370.326 313.418 370.326H336.043C337.009 370.326 337.989 371.291 337.989 372.271V386.495ZM337.989 360.31C337.989 361.276 337.009 362.241 336.043 362.241H313.418C312.438 362.241 311.472 361.276 311.472 360.31V346.072C311.472 345.106 312.438 344.141 313.418 344.141H336.043C337.009 344.141 337.989 345.106 337.989 346.072V360.31ZM337.989 334.111C337.989 335.091 337.009 336.056 336.043 336.056H313.418C312.438 336.056 311.472 335.091 311.472 334.111V319.887C311.472 318.921 312.438 317.956 313.418 317.956H336.043C337.009 317.956 337.989 318.921 337.989 319.887V334.111Z" fill="white"/>
<path d="M142.391 77.4203V71.5982H149.178V77.4203C149.178 79.6828 150.158 81.2969 152.738 81.2969C155 81.2969 155.966 79.6828 155.966 77.4203V75.8062C155.966 73.2122 155 71.9297 152.738 69.6671L148.544 65.4591C144.336 61.5825 142.722 58.9885 142.722 54.1464V52.8494C142.722 47.6758 145.95 43.4678 152.738 43.4678C159.857 43.4678 162.768 47.0273 162.768 53.1664V56.726H156.297V53.1664C156.297 50.5868 155.332 49.6213 153.069 49.6213C151.124 49.6213 149.827 50.5868 149.827 53.1664V54.1464C149.827 56.4089 151.124 58.023 153.069 59.9685L157.594 64.4935C161.471 68.3701 163.402 70.9497 163.402 75.4748V77.4203C163.402 83.2424 160.174 87.436 153.069 87.436C145.95 87.436 142.391 82.9109 142.391 77.4203ZM186.69 44.1163V76.1233C186.69 82.5939 183.779 87.1189 176.66 87.1189C169.224 87.1189 165.996 82.9109 165.996 76.1233V44.1163H173.101V77.1032C173.101 79.6828 174.081 81.2969 176.66 81.2969C179.254 81.2969 180.22 79.6828 180.22 77.1032V44.1163H186.69ZM190.567 77.4203V71.5982H197.354V77.4203C197.354 79.6828 198.32 81.2969 200.914 81.2969C203.177 81.2969 204.142 79.6828 204.142 77.4203V75.8062C204.142 73.2122 203.177 71.9297 200.914 69.6671L196.706 65.4591C192.512 61.5825 190.884 58.9885 190.884 54.1464V52.8494C190.884 47.6758 193.795 43.4678 200.914 43.4678C208.019 43.4678 210.93 47.0273 210.93 53.1664V56.726H204.474V53.1664C204.474 50.5868 203.494 49.6213 201.231 49.6213C199.3 49.6213 198.003 50.5868 198.003 53.1664V54.1464C198.003 56.4089 199.3 58.023 201.231 59.9685L205.756 64.4935C209.647 68.3701 211.578 70.9497 211.578 75.4748V77.4203C211.578 83.2424 208.35 87.436 201.231 87.436C193.146 87.1189 190.567 82.9109 190.567 77.4203ZM212.544 44.1163H231.624V49.9383H225.802V86.4704H218.697V49.9383H212.875V44.1163H212.544ZM230.327 86.4704L238.412 44.1163H246.496L254.581 86.4704H247.145L245.848 78.7173H238.412L237.115 86.4704H230.327ZM239.377 72.8952H245.199L242.288 55.7604L239.377 72.8952ZM257.492 44.1163H264.597V86.4704H257.492V44.1163ZM274.627 59.637V86.4704H268.473V44.1163H275.592L283.345 68.3701V44.1163H289.167V86.4704H283.028L274.627 59.637ZM291.761 86.4704L299.846 44.1163H307.916L316.001 86.4704H308.565L307.282 78.7173H299.846L298.549 86.4704H291.761ZM300.812 72.8952H306.634L303.723 55.7604L300.812 72.8952ZM318.263 44.1163H328.611C335.73 44.1163 337.992 47.3588 337.992 53.4979V57.7059C337.992 61.2511 336.695 63.5136 333.784 64.4935C337.344 65.4591 338.958 67.7216 338.958 71.5982V77.1032C338.958 83.2424 336.378 86.4704 329.259 86.4704H318.263V44.1163ZM325.383 61.8995H327.962C330.225 61.8995 331.205 60.6025 331.205 58.34V53.1664C331.205 50.9039 330.225 49.6213 327.645 49.6213H325.051L325.383 61.8995ZM325.383 67.4046V80.6484H328.611C330.873 80.6484 332.17 79.3658 332.17 77.1032V70.6327C332.17 68.3701 331.205 67.0731 328.611 67.0731H325.383V67.4046ZM342.186 44.1163H349.305V80.6484H357.707V86.4704H342.186V44.1163ZM360.618 44.1163H377.752V49.9383H367.737V62.231H374.841V68.0387H367.737V80.9798H377.752V86.8019H360.618V44.1163ZM389.714 75.4748V54.7949C389.714 47.9929 392.942 43.4678 400.378 43.4678C408.145 43.4678 410.408 47.9929 410.408 54.1464V59.32H403.937V53.4979C403.937 50.9039 402.972 49.2899 400.378 49.2899C397.798 49.2899 396.833 51.2353 396.833 53.8149V76.7718C396.833 79.3658 397.798 81.2969 400.378 81.2969C402.972 81.2969 403.937 79.6828 403.937 77.1032V69.3357H410.408V76.7718C410.408 82.9109 407.814 87.436 400.378 87.436C392.625 87.1189 389.714 81.9454 389.714 75.4748ZM413.636 44.1163H420.755V86.4704H413.636V44.1163ZM423.335 44.1163H442.415V49.9383H436.593V86.4704H429.488V49.9383H423.666V44.1163H423.335ZM445.326 44.1163H452.431V86.4704H445.326V44.1163ZM456.322 44.1163H473.456V49.9383H463.426V62.231H470.545V68.0387H463.426V80.9798H473.456V86.8019H456.322V44.1163ZM475.07 77.4203V71.5982H481.858V77.4203C481.858 79.6828 482.824 81.2969 485.418 81.2969C487.68 81.2969 488.646 79.6828 488.646 77.4203V75.8062C488.646 73.2122 487.68 71.9297 485.418 69.6671L481.21 65.4591C477.002 61.5825 475.387 58.9885 475.387 54.1464V52.8494C475.387 47.6758 478.616 43.4678 485.418 43.4678C492.522 43.4678 495.433 47.0273 495.433 53.1664V56.726H488.963V53.1664C488.963 50.5868 487.997 49.6213 485.735 49.6213C483.789 49.6213 482.507 50.5868 482.507 53.1664V54.1464C482.507 56.4089 483.789 58.023 485.735 59.9685L490.26 64.4935C494.136 68.3701 496.082 70.9497 496.082 75.4748V77.4203C496.082 83.2424 492.854 87.436 485.735 87.436C478.616 87.436 475.07 82.9109 475.07 77.4203Z" fill="white"/>
<path d="M142.391 148.876L150.475 106.522H158.56L166.644 148.876H159.525L158.243 141.108H150.807L149.51 148.876H142.391ZM151.441 135.618H157.263L154.352 118.483L151.441 135.618ZM175.695 122.359V149.193H169.556V106.839H176.66L184.428 131.092V106.839H190.235V149.193H184.096L175.695 122.359ZM215.786 117.834V137.563C215.786 144.019 213.192 148.876 205.439 148.876H194.443V106.522H205.439C212.875 106.522 215.786 111.378 215.786 117.834ZM204.474 143.054C207.37 143.054 208.667 141.44 208.667 138.846V116.537C208.667 113.958 207.702 112.344 204.474 112.344H201.563V143.054H204.474ZM226.133 137.88V117.186C226.133 110.398 229.361 105.873 236.798 105.873C244.551 105.873 246.813 110.398 246.813 116.537V121.711H240.357V116.22C240.357 113.641 239.377 112.012 236.798 112.012C234.204 112.012 233.238 113.958 233.238 116.537V139.494C233.238 142.088 234.204 144.019 236.798 144.019C239.377 144.019 240.357 142.405 240.357 139.826V132.058H246.813V139.494C246.813 145.648 244.234 150.173 236.798 150.173C229.044 149.524 226.133 144.668 226.133 137.88ZM250.704 137.88V117.186C250.704 110.398 253.932 105.873 261.368 105.873C268.805 105.873 272.364 110.73 272.364 117.186V137.88C272.364 144.351 269.122 149.193 261.368 149.193C253.932 149.524 250.704 144.668 250.704 137.88ZM264.928 139.177V116.22C264.928 113.641 263.948 111.695 261.368 111.695C258.775 111.695 257.809 113.641 257.809 116.22V139.177C257.809 141.757 258.775 143.702 261.368 143.702C263.948 143.371 264.928 141.757 264.928 139.177ZM295.955 121.394L290.782 148.876H287.553L282.38 121.394V148.876H276.558V106.522H284.974L289.499 130.444L293.693 106.522H302.743V148.876H296.287L295.955 121.394ZM326.031 121.394L320.857 148.876H317.615L312.441 121.394V148.876H306.634V106.522H315.035L319.56 130.444L323.768 106.522H332.819V148.876H326.348V121.394H326.031ZM357.39 106.522V138.529C357.39 144.999 354.478 149.524 347.359 149.524C339.923 149.524 336.695 145.316 336.695 138.529V106.522H343.814V139.494C343.814 142.088 344.78 143.702 347.359 143.702C349.953 143.702 350.919 142.088 350.919 139.494V106.522H357.39ZM367.088 122.359V149.193H360.949V106.839H368.054L375.807 131.092V106.839H381.629V149.193H375.49L367.088 122.359ZM385.837 106.522H392.942V148.876H385.837V106.522ZM396.184 106.522H415.25V112.344H409.442V148.876H402.006V112.344H396.184V106.522ZM418.493 106.522H425.597V148.876H418.493V106.522ZM429.488 106.522H446.609V112.344H436.593V124.622H443.712V130.444H436.593V143.371H446.609V149.193H429.488V106.522ZM449.52 139.826V134.003H456.322V139.826C456.322 142.088 457.287 143.702 459.867 143.702C462.129 143.702 463.109 142.088 463.109 139.826V138.212C463.109 135.618 462.129 134.321 459.867 132.058L455.673 127.864C451.465 123.973 449.851 121.394 449.851 116.537V115.255C449.851 110.081 452.762 105.873 459.867 105.873C466.986 105.873 469.897 109.433 469.897 115.572V119.131H463.426V115.572C463.426 112.992 462.461 112.012 460.198 112.012C458.253 112.012 456.956 112.992 456.956 115.572V116.537C456.956 118.8 458.253 120.428 460.198 122.359L464.723 126.884C468.6 130.775 470.545 133.355 470.545 137.88V139.826C470.545 145.648 467.303 149.841 460.198 149.841C452.431 149.524 449.52 145.316 449.52 139.826Z" fill="white"/>
</svg>
