<svg width="521" height="521" viewBox="0 0 521 521" fill="none" xmlns="http://www.w3.org/2000/svg">
<mask id="mask0_1507_6917" style="mask-type:luminance" maskUnits="userSpaceOnUse" x="0" y="0" width="521" height="521">
<path d="M0.273438 0.570312H520.456V520.753H0.273438V0.570312Z" fill="white"/>
</mask>
<g mask="url(#mask0_1507_6917)">
<path d="M0.273438 0.570312H520.456V520.753H0.273438V0.570312Z" fill="#DDA63A"/>
</g>
<path d="M97.5783 134.74H68.8138V129.898C68.8138 121.813 71.7249 118.571 76.2499 113.729L87.5626 101.768C96.6128 92.0689 98.5583 85.9298 98.5583 75.2512V65.2354C98.5583 50.3632 91.4392 43.2441 75.6014 43.2441C60.0807 43.2441 52.3275 51.3288 52.3275 66.201V78.8107H68.4824V65.5525C68.4824 59.0963 71.7249 57.4679 75.27 57.4679C78.8295 57.4679 81.7406 58.7649 81.7406 65.2354V73.9542C81.7406 82.6873 81.0921 85.9298 75.27 92.0689L65.2543 102.733C55.5556 113.08 51.9961 119.868 51.9961 130.215V149.612H97.9098L97.5783 134.74Z" fill="white"/>
<path d="M215.251 442.834V450.918C215.251 452.864 216.866 454.161 218.494 454.161H304.168C306.099 454.161 307.396 452.532 307.396 450.601V442.2C355.572 426.347 391.773 387.236 399.857 339.391V338.743C399.857 336.797 398.243 335.183 396.298 335.183H122.79C120.859 335.183 119.23 336.797 119.23 338.743L119.562 340.357C128.929 388.201 166.11 427.644 215.251 442.834ZM308.044 218.151C307.064 219.765 280.563 257.911 308.693 288.635C321.62 302.859 320.323 315.137 316.763 323.539H334.878C338.437 311.261 337.14 295.423 322.268 279.571C301.574 256.945 322.585 226.235 322.917 225.904C325.496 222.359 324.199 217.834 320.006 215.888C315.798 213.626 310.624 214.591 308.044 218.151ZM262.462 323.539H280.563C284.122 311.261 282.825 295.423 267.953 279.571C247.259 256.945 268.27 226.235 268.601 225.904C271.181 222.359 269.898 217.834 265.69 215.888C261.482 213.943 256.309 214.923 253.729 218.468C252.432 220.096 226.247 258.242 254.378 288.952C267.304 302.859 266.007 315.137 262.462 323.539ZM199.097 218.151C197.8 219.765 171.615 257.911 199.731 288.635C212.672 302.859 211.375 315.137 207.815 323.539H225.93C229.475 311.261 228.193 295.423 213.32 279.571C192.626 256.945 213.637 226.235 213.969 225.904C216.548 222.359 215.251 217.834 211.058 215.888C207.167 213.626 201.676 214.591 199.097 218.151Z" fill="white"/>
<path d="M156.1 81.0702H167.096V86.8923H148.664V81.0702L159.977 50.3602H149.961V44.5381H167.73V50.3602L156.1 81.0702ZM171.621 44.2211H188.756V50.0288H178.726V62.3214H185.845V68.1435H178.726V81.0702H188.756V86.8923H171.621V44.2211ZM200.385 67.1635V86.5609H193.281V44.2211H203.628C210.733 44.2211 213.327 47.7662 213.327 53.5883V59.0933C213.327 63.6184 211.698 66.198 207.505 67.1635L214.292 86.5609H206.856L200.385 67.1635ZM200.385 50.0288V63.287H202.648C205.242 63.287 206.208 61.99 206.208 59.7274V53.5883C206.208 51.3258 205.242 50.0288 202.648 50.0288H200.385ZM217.852 75.8967V55.2023C217.852 48.4147 221.08 43.8896 228.516 43.8896C235.952 43.8896 239.512 48.7462 239.512 55.2023V75.8967C239.512 82.3672 236.269 87.2094 228.516 87.2094C221.08 87.2094 217.852 82.3672 217.852 75.8967ZM232.392 76.8622V53.9198C232.392 51.3258 231.427 49.3947 228.833 49.3947C226.253 49.3947 225.288 51.3258 225.288 53.9198V76.8622C225.288 79.4562 226.253 81.3873 228.833 81.3873C231.427 81.3873 232.392 79.4562 232.392 76.8622Z" fill="white"/>
<path d="M162.879 130.215H156.092V148.964H148.973V106.61H156.092V124.725H162.879V106.61H169.998V148.964H162.879V130.215ZM195.535 106.61V138.617C195.535 145.088 192.624 149.613 185.505 149.613C178.069 149.613 174.841 145.405 174.841 138.617V106.61H181.96V139.597C181.96 142.177 182.925 143.791 185.505 143.791C188.099 143.791 189.064 142.177 189.064 139.597V106.61H195.535ZM206.199 122.462V149.296H200.377V106.941H207.496L215.249 131.181V106.941H221.071V149.296H214.932L206.199 122.462ZM236.592 126.339H246.608V148.964H241.434V144.439C240.469 147.667 238.523 149.613 234.647 149.613C228.507 149.613 225.596 144.756 225.596 138.3V117.606C225.596 110.818 228.824 106.293 236.261 106.293C244.028 106.293 246.608 110.818 246.608 116.957V120.834H240.152V116.64C240.152 114.046 239.172 112.432 236.592 112.432C233.998 112.432 233.032 114.378 233.032 116.957V139.914C233.032 142.494 233.998 144.439 236.592 144.439C238.855 144.439 240.152 143.142 240.152 140.231V132.795H236.909V126.339H236.592ZM251.464 106.61H268.599V112.432H258.569V124.725H265.688V130.532H258.569V143.474H268.599V149.296H251.464V106.61ZM279.912 129.567V148.964H272.793V106.61H283.14C290.259 106.61 292.838 110.17 292.838 115.992V121.482C292.838 126.007 291.224 128.601 287.031 129.567L293.818 148.964H286.382L279.912 129.567ZM279.912 112.432V125.69H282.174C284.768 125.69 285.734 124.393 285.734 122.131V115.992C285.734 113.729 284.768 112.432 282.174 112.432H279.912Z" fill="white"/>
</svg>
