<svg width="521" height="521" viewBox="0 0 521 521" fill="none" xmlns="http://www.w3.org/2000/svg">
<mask id="mask0_1507_6927" style="mask-type:luminance" maskUnits="userSpaceOnUse" x="0" y="0" width="521" height="521">
<path d="M0.132812 0.75293H520.315V520.935H0.132812V0.75293Z" fill="white"/>
</mask>
<g mask="url(#mask0_1507_6927)">
<path d="M0.132812 0.75293H520.315V520.935H0.132812V0.75293Z" fill="#4C9F38"/>
</g>
<path d="M74.1652 150.759C91.9485 150.759 99.7161 141.391 99.7161 126.836V111.315C99.7161 101.617 95.508 95.4776 86.7749 93.5465C93.894 91.2696 98.7361 85.4619 98.7361 76.4118V67.3472C98.7361 52.475 91.6314 43.4248 75.4622 43.4248C57.3619 43.4248 50.8913 54.1034 50.8913 69.6097V78.9913H67.0606V68.3271C67.0606 61.8566 68.9916 57.98 74.4967 57.98C79.9873 57.98 81.9328 61.5395 81.9328 67.3472V78.6743C81.9328 84.1649 78.3733 87.076 72.5512 87.076H65.7636V100.651H73.1997C79.3388 100.651 81.9328 103.562 81.9328 109.053V126.519C81.9328 132.01 79.3388 135.886 74.1652 135.886C68.0261 135.886 66.0806 132.01 66.0806 125.539V110.667H49.9258V124.574C49.9258 140.411 56.3819 150.759 74.1652 150.759Z" fill="white"/>
<path d="M434.651 325.986C434.651 311.446 425.27 299.484 411.046 299.484C403.941 299.484 395.208 307.238 390.683 312.094C386.158 307.238 378.073 299.484 370.954 299.484C356.731 299.484 346.715 311.446 346.715 325.986C346.715 333.422 349.626 339.893 354.151 344.75L390.683 381.282L427.215 344.75C431.74 339.893 434.651 333.422 434.651 325.986Z" fill="white"/>
<path d="M279.469 440.748C276.226 440.431 273.964 438.485 273.647 435.906L255.215 327.923L227.084 379.976C225.802 382.239 223.208 383.536 220.628 382.887C218.034 382.556 216.103 380.293 215.772 377.714L203.81 294.302L182.151 343.113C181.185 345.375 178.922 346.672 176.66 346.672H91.9516C88.7235 346.672 85.8125 344.093 85.8125 340.533C85.8125 337.305 88.3921 334.394 91.9516 334.394H172.783L201.548 270.049C202.513 267.469 205.107 266.172 207.687 266.503C210.281 266.82 212.544 269.083 212.861 271.677L225.153 357.668L252.952 306.264C254.249 304.001 256.512 302.704 259.091 303.353C261.685 303.67 263.616 305.615 263.948 308.209L281.083 408.107L343.483 200.544C344.117 198.281 346.394 196.336 348.656 196.336C351.236 196.019 353.498 197.633 354.464 199.578L387.451 267.786C388.733 270.697 387.768 274.257 384.54 275.871C381.629 277.168 378.069 276.202 376.455 272.96L350.27 218.644L284.959 435.906C284.311 439.134 282.048 440.748 279.469 440.748Z" fill="white"/>
<path d="M159.519 64.1171H169.535V86.7425H164.361V82.2174C163.396 85.4599 161.45 87.391 157.574 87.391C151.434 87.391 148.523 82.5489 148.523 76.0783V55.384C148.523 48.5964 151.752 44.0713 159.188 44.0713C166.955 44.0713 169.535 48.5964 169.535 54.7355V58.6265H163.079V54.4184C163.079 51.8389 162.099 50.2104 159.519 50.2104C156.925 50.2104 155.96 52.1559 155.96 54.7355V77.6923C155.96 80.2863 156.925 82.2174 159.519 82.2174C161.782 82.2174 163.079 80.9348 163.079 78.0238V70.5877H159.836V64.1171H159.519ZM174.391 76.0783V55.384C174.391 48.5964 177.619 44.0713 185.056 44.0713C192.492 44.0713 196.051 48.9278 196.051 55.384V76.0783C196.051 82.5489 192.809 87.391 185.056 87.391C177.619 87.391 174.391 82.5489 174.391 76.0783ZM188.932 77.0438V54.1014C188.932 51.5074 187.967 49.5763 185.373 49.5763C182.793 49.5763 181.827 51.5074 181.827 54.1014V77.0438C181.827 79.6378 182.793 81.5689 185.373 81.5689C187.65 81.5689 188.932 79.6378 188.932 77.0438ZM200.576 76.0783V55.384C200.576 48.5964 203.804 44.0713 211.24 44.0713C218.677 44.0713 222.236 48.9278 222.236 55.384V76.0783C222.236 82.5489 219.008 87.391 211.24 87.391C203.804 87.391 200.576 82.5489 200.576 76.0783ZM215.117 77.0438V54.1014C215.117 51.5074 214.152 49.5763 211.572 49.5763C208.978 49.5763 208.012 51.5074 208.012 54.1014V77.0438C208.012 79.6378 208.978 81.5689 211.572 81.5689C214.152 81.5689 215.117 79.6378 215.117 77.0438ZM248.421 55.7154V75.4298C248.421 81.9004 245.841 86.7425 238.074 86.7425H227.078V44.4027H238.074C245.51 44.4027 248.421 49.2449 248.421 55.7154ZM237.108 80.9348C240.019 80.9348 241.316 79.3064 241.316 76.7268V54.4184C241.316 51.8389 240.336 50.2104 237.108 50.2104H234.197V80.9348H237.108ZM276.869 68.3251H270.081V87.074H262.976V44.7198H270.081V62.8201H276.869V44.7198H283.988V87.074H276.869V68.3251ZM289.161 44.4027H306.296V50.2104H296.266V62.5031H303.385V68.3251H296.266V81.2519H306.296V87.074H289.161V44.4027ZM309.524 87.074L317.609 44.7198H325.693L333.778 87.074H326.342L325.045 79.3064H317.609L316.312 87.074H309.524ZM318.574 73.4987H324.396L321.485 56.3639L318.574 73.4987ZM337.323 44.4027H344.442V80.9348H352.844V86.7425H337.323V44.4027ZM351.878 44.4027H370.944V50.2104H365.136V86.7425H358.017V50.2104H352.195V44.4027H351.878ZM389.059 68.3251H382.271V87.074H375.152V44.7198H382.271V62.8201H389.059V44.7198H396.163V87.074H389.059V68.3251Z" fill="white"/>
<path d="M147.559 149.145L155.643 106.791H163.713L171.798 149.145H164.362L163.079 141.392H155.643L154.346 149.145H147.559ZM156.609 135.887H162.431L159.52 118.752L156.609 135.887ZM180.848 122.643V149.476H174.709V107.122H181.828L189.581 131.362V107.122H195.403V149.476H189.264L180.848 122.643ZM221.92 118.103V137.832C221.92 144.303 219.326 149.145 211.573 149.145H200.577V106.791H211.573C219.326 106.791 221.92 111.647 221.92 118.103ZM210.593 143.323C213.504 143.323 214.801 141.709 214.801 139.129V116.821C214.801 114.227 213.835 112.613 210.593 112.613H207.682V143.323H210.593ZM249.387 122.96L245.511 149.145H238.723L232.901 106.791H239.689L242.931 133.624L246.476 106.791H252.298L256.175 133.624L259.417 106.791H265.557L260.066 149.145H253.278L249.387 122.96ZM269.433 106.791H286.568V112.613H276.552V124.905H283.657V130.713H276.552V143.654H286.568V149.476H269.433V106.791ZM291.093 106.791H298.212V143.323H306.614V149.145H291.093V106.791ZM310.49 106.791H317.609V143.323H326.011V149.145H310.49V106.791ZM325.362 124.257H335.393V130.079H325.362V124.257ZM339.586 106.791H349.933C357.052 106.791 359.315 110.033 359.315 116.172V120.38C359.315 123.925 358.018 126.188 355.107 127.168C358.666 128.133 360.281 130.396 360.281 134.273V139.778C360.281 145.917 357.701 149.145 350.582 149.145H339.586V106.791ZM346.705 124.574H349.285C351.547 124.574 352.527 123.277 352.527 121.014V115.841C352.527 113.578 351.547 112.296 348.968 112.296H346.388L346.705 124.574ZM346.705 130.079V143.323H349.933C352.196 143.323 353.493 142.04 353.493 139.778V133.307C353.493 131.045 352.527 129.748 349.933 129.748H346.705V130.079ZM364.806 106.791H381.94V112.613H371.925V124.905H379.029V130.713H371.925V143.654H381.94V149.476H364.806V106.791ZM386.148 106.791H393.253V149.145H386.148V106.791ZM404.58 122.643V149.476H398.427V107.122H405.546L413.299 131.362V107.122H419.121V149.476H412.982L404.58 122.643ZM434.959 126.519H444.989V149.145H439.815V144.62C438.85 147.848 436.904 149.793 433.028 149.793C426.889 149.793 423.978 144.937 423.978 138.481V117.786C423.978 110.999 427.206 106.474 434.642 106.474C442.395 106.474 444.989 110.999 444.989 117.138V121.014H438.518V116.821C438.518 114.227 437.553 112.613 434.959 112.613C432.379 112.613 431.414 114.558 431.414 117.138V140.095C431.414 142.674 432.379 144.62 434.959 144.62C437.221 144.62 438.518 143.323 438.518 140.412V132.976H435.29V126.519H434.959Z" fill="white"/>
</svg>
