<svg width="521" height="521" viewBox="0 0 521 521" fill="none" xmlns="http://www.w3.org/2000/svg">
<mask id="mask0_1507_6938" style="mask-type:luminance" maskUnits="userSpaceOnUse" x="0" y="0" width="521" height="521">
<path d="M0.015625 0.75293H520.198V520.935H0.015625V0.75293Z" fill="white"/>
</mask>
<g mask="url(#mask0_1507_6938)">
<path d="M0.015625 0.75293H520.198V520.935H0.015625V0.75293Z" fill="#C5192D"/>
</g>
<path d="M81.4829 149.473H98.2862V132.338H105.405V118.431H98.2862V44.4014H80.8344L50.4414 121.342V132.006H81.4829V149.473ZM65.9621 118.431L81.7999 75.1114V118.431H65.9621Z" fill="white"/>
<path d="M228.266 279.75L134.824 225.766V400.342L228.266 428.473V279.75ZM238.281 280.082V428.473L332.357 400.025V225.766L238.281 280.082ZM405.421 221.558C405.421 215.419 400.579 210.577 394.44 210.577C388.286 210.577 383.444 215.419 383.444 221.558V233.52H405.421V221.558ZM383.444 397.114L394.44 435.577L405.421 397.114V241.936H383.444V397.114Z" fill="white"/>
<path d="M352.398 233.521L342.382 225.451V404.869L238.593 438.49H228.261L124.804 409.725V225.437L114.773 233.521V416.513L227.612 447.872H239.242L343.031 414.899L352.398 411.988V233.521Z" fill="white"/>
<path d="M148.73 106.795H165.865V112.617H155.835V124.91H162.954V130.717H155.835V143.659H165.865V149.481H148.73V106.795ZM191.402 118.108V137.836C191.402 144.307 188.822 149.149 181.055 149.149H170.073V106.795H181.055C188.822 106.795 191.402 111.652 191.402 118.108ZM180.089 143.327C183 143.327 184.297 141.713 184.297 139.133V116.825C184.297 114.231 183.317 112.617 180.089 112.617H177.178V143.327H180.089ZM216.938 106.795V138.802C216.938 145.273 214.041 149.798 206.922 149.798C199.486 149.798 196.258 145.59 196.258 138.802V106.795H203.363V139.782C203.363 142.362 204.343 143.976 206.922 143.976C209.502 143.976 210.482 142.362 210.482 139.782V106.795H216.938ZM221.463 138.153V117.474C221.463 110.672 224.706 106.146 232.142 106.146C239.895 106.146 242.157 110.672 242.157 116.825V121.999H235.701V116.494C235.701 113.914 234.721 112.3 232.142 112.3C229.548 112.3 228.582 114.231 228.582 116.825V139.782C228.582 142.362 229.548 144.307 232.142 144.307C234.721 144.307 235.701 142.679 235.701 140.099V132.346H242.157V139.782C242.157 145.921 239.578 150.446 232.142 150.446C224.706 149.798 221.463 144.941 221.463 138.153ZM244.751 149.149L252.836 106.795H260.906L268.991 149.149H261.555L260.272 141.396H252.836L251.539 149.149H244.751ZM253.47 135.891H259.292L256.381 118.756L253.47 135.891ZM268.025 106.795H287.106V112.617H281.284V149.149H274.165V112.617H268.342V106.795H268.025ZM290.982 106.795H298.087V149.149H290.982V106.795ZM302.943 138.153V117.474C302.943 110.672 306.172 106.146 313.608 106.146C321.044 106.146 324.603 111.003 324.603 117.474V138.153C324.603 144.624 321.375 149.481 313.608 149.481C306.172 149.798 302.943 144.941 302.943 138.153ZM317.484 139.45V116.494C317.484 113.914 316.519 111.969 313.939 111.969C311.345 111.969 310.38 113.914 310.38 116.494V139.45C310.38 142.044 311.345 143.976 313.939 143.976C316.202 143.659 317.484 142.044 317.484 139.45ZM335.267 122.647V149.481H329.128V107.126H336.233L344.001 131.366V107.126H349.823V149.481H343.669L335.267 122.647Z" fill="white"/>
<path d="M156.815 89.66V86.749C150.993 85.7834 148.73 81.5754 148.73 75.7678V55.0734C148.73 48.2858 151.959 43.7607 159.395 43.7607C166.831 43.7607 170.39 48.6029 170.39 55.0734V75.7678C170.39 80.2928 168.776 84.1694 165.217 85.7835L170.39 86.749V91.9226L156.815 89.66ZM163.271 77.3818V54.1079C163.271 51.5139 162.306 49.5828 159.726 49.5828C157.132 49.5828 156.167 51.5139 156.167 54.1079V77.3818C156.167 79.9614 157.132 81.9069 159.726 81.9069C161.989 81.9069 163.271 79.9614 163.271 77.3818ZM195.61 44.4092V76.4162C195.61 82.8724 192.699 87.3975 185.58 87.3975C178.143 87.3975 174.915 83.2039 174.915 76.4162V44.4092H182.034V77.3818C182.034 79.9614 183 81.5754 185.58 81.5754C188.174 81.5754 189.139 79.9614 189.139 77.3818V44.4092H195.61ZM198.521 86.749L206.605 44.4092H214.676L222.76 86.749H215.324L214.041 78.9958H206.605L205.308 86.749H198.521ZM207.239 73.5052H213.062L210.15 56.3704L207.239 73.5052ZM226.003 44.4092H233.107V80.9413H241.509V86.749H226.003V44.4092ZM245.069 44.4092H252.188V86.749H245.069V44.4092ZM255.733 44.4092H274.813V50.2169H268.991V86.749H261.886V50.2169H256.064L255.733 44.4092ZM291.948 70.5942V86.749H284.843V70.5942L276.759 44.4092H284.195L288.388 60.5641L292.596 44.4092H299.384L291.948 70.5942Z" fill="white"/>
</svg>
