<svg width="521" height="522" viewBox="0 0 521 522" fill="none" xmlns="http://www.w3.org/2000/svg">
<mask id="mask0_1507_6949" style="mask-type:luminance" maskUnits="userSpaceOnUse" x="0" y="0" width="521" height="522">
<path d="M0.132812 0.93457H520.315V521.117H0.132812V0.93457Z" fill="white"/>
</mask>
<g mask="url(#mask0_1507_6949)">
<path d="M0.132812 0.93457H520.315V521.117H0.132812V0.93457Z" fill="#FF3A21"/>
</g>
<path d="M82.9003 77.8769C75.7812 77.8769 70.9247 80.4709 68.028 84.996V58.8111H98.4066V44.2559H51.8588V103.428H68.028V101.151C68.028 95.0117 70.9247 91.4521 75.7812 91.4521C81.2718 91.4521 83.2173 95.3431 83.2173 100.834V126.053C83.2173 131.544 81.2718 135.42 75.7812 135.42C69.6421 135.42 67.6966 131.544 67.6966 125.088V111.829H51.5273V123.791C51.5273 139.628 57.9979 149.976 75.7812 149.976C93.5645 149.976 101.001 140.594 101.001 126.053V101.151C101.001 84.3475 92.5989 77.8769 82.9003 77.8769Z" fill="white"/>
<path d="M379.043 197.82H314.38C314.063 197.82 313.415 198.152 313.415 198.786V220.129C313.415 220.46 313.732 221.094 314.38 221.094H340.248L311.801 249.556C297.246 238.229 279.145 231.441 259.417 231.441C212.869 231.441 174.723 269.587 174.723 316.15C174.723 359.152 207.047 394.704 248.435 400.21V425.097H222.884C222.567 425.097 221.919 425.429 221.919 426.063V449.02C221.919 449.351 222.236 450 222.884 450H248.435V474.239C248.435 474.571 248.752 475.205 249.401 475.205H272.358C272.675 475.205 273.323 474.888 273.323 474.239V450H298.86C299.191 450 299.84 449.668 299.84 449.02V426.063C299.84 425.746 299.508 425.097 298.86 425.097H273.323V399.878C313.415 393.422 344.125 358.504 344.125 316.467C344.125 298.366 338.303 281.563 328.604 267.656L356.735 239.526V263.448C356.735 263.78 357.052 264.428 357.7 264.428H379.043C379.36 264.428 380.008 264.097 380.008 263.448V198.786C380.008 198.152 379.36 197.82 379.043 197.82ZM259.417 378.55C225.147 378.55 197.031 350.419 197.031 316.15C197.031 281.88 224.83 253.75 259.417 253.75C293.686 253.75 321.817 281.563 321.817 316.15C321.817 350.419 293.686 378.55 259.417 378.55Z" fill="white"/>
<path d="M297.898 290.613H222.571C222.24 290.613 221.605 290.93 221.605 291.262V309.679C221.605 310.011 221.923 310.328 222.571 310.328H298.215C298.546 310.328 299.195 310.011 299.195 309.679V291.262C298.863 290.93 298.546 290.613 297.898 290.613ZM297.898 323.269H222.571C222.24 323.269 221.605 323.586 221.605 323.903V342.335C221.605 342.666 221.923 342.983 222.571 342.983H298.215C298.546 342.983 299.195 342.666 299.195 342.335V323.903C298.863 323.586 298.546 323.269 297.898 323.269Z" fill="white"/>
<path d="M148.543 106.978H165.678V112.8H155.648V125.092H162.767V130.9H155.648V143.841H165.678V149.663H148.543V106.978ZM176.99 152.243V149.332C171.168 148.366 168.906 144.158 168.906 138.336V117.656C168.906 110.854 172.134 106.329 179.57 106.329C187.006 106.329 190.566 111.186 190.566 117.656V138.336C190.566 142.861 188.952 146.752 185.392 148.366L190.566 149.332V154.505L176.99 152.243ZM183.447 139.965V116.676C183.447 114.097 182.481 112.151 179.901 112.151C177.307 112.151 176.342 114.097 176.342 116.676V139.965C176.342 142.544 177.307 144.49 179.901 144.49C182.481 144.49 183.447 142.544 183.447 139.965ZM216.102 106.978V138.985C216.102 145.455 213.191 149.98 206.086 149.98C198.65 149.98 195.408 145.772 195.408 138.985V106.978H202.527V139.965C202.527 142.544 203.492 144.158 206.086 144.158C208.666 144.158 209.646 142.544 209.646 139.965V106.978H216.102ZM219.662 149.332L227.746 106.978H235.831L243.916 149.332H236.479L235.182 141.579H227.746L226.449 149.332H219.662ZM228.712 136.074H234.534L231.623 118.939L228.712 136.074ZM247.461 106.978H254.58V143.51H262.981V149.332H247.461V106.978ZM266.858 106.978H273.977V149.332H266.858V106.978ZM277.854 106.978H296.934V112.8H291.112V149.332H283.993V112.8H278.185V106.978H277.854ZM314.717 133.163V149.332H307.598V133.163L299.513 106.978H306.95L311.158 123.147L315.351 106.978H322.153L314.717 133.163Z" fill="white"/>
<path d="M159.524 64.3017H169.554V86.9271H164.381V82.402C163.415 85.6445 161.47 87.5756 157.593 87.5756C151.44 87.5756 148.543 82.7334 148.543 76.2629V55.5686C148.543 48.7809 151.771 44.2559 159.207 44.2559C166.96 44.2559 169.554 48.7809 169.554 54.9201V58.811H163.084V54.603C163.084 52.0234 162.118 50.395 159.524 50.395C156.945 50.395 155.979 52.3405 155.979 54.9201V77.8769C155.979 80.4709 156.945 82.402 159.524 82.402C161.787 82.402 163.084 81.1194 163.084 78.2084V70.7722H159.856V64.3017H159.524ZM174.396 44.5873H191.531V50.395H181.516V62.6876H188.62V68.5097H181.516V81.4364H191.531V87.2585H174.396V44.5873ZM201.878 60.4251V87.2585H195.739V44.9044H202.844L210.611 69.1582V44.9044H216.434V87.2585H210.28L201.878 60.4251ZM242.619 55.9V75.6144C242.619 82.0849 240.025 86.9271 232.271 86.9271H221.276V44.5873H232.271C240.025 44.5873 242.619 49.4294 242.619 55.9ZM231.306 81.1194C234.217 81.1194 235.499 79.491 235.499 76.9114V54.603C235.499 52.0234 234.534 50.395 231.306 50.395H228.395V81.1194H231.306ZM247.461 44.5873H264.595V50.395H254.58V62.6876H261.684V68.5097H254.58V81.4364H264.595V87.2585H247.461V44.5873ZM275.908 67.5298V86.9271H268.803V44.5873H279.151C286.255 44.5873 288.849 48.1324 288.849 53.9545V59.4595C288.849 63.9846 287.235 66.5642 283.027 67.5298L289.815 86.9271H282.379L275.908 67.5298ZM275.908 50.395V63.6532H278.185C280.765 63.6532 281.73 62.3562 281.73 60.0936V53.9545C281.73 51.692 280.765 50.395 278.185 50.395H275.908Z" fill="white"/>
</svg>
