<svg width="521" height="522" viewBox="0 0 521 522" fill="none" xmlns="http://www.w3.org/2000/svg">
<mask id="mask0_1507_6960" style="mask-type:luminance" maskUnits="userSpaceOnUse" x="0" y="0" width="521" height="522">
<path d="M0.015625 0.93457H520.198V521.117H0.015625V0.93457Z" fill="white"/>
</mask>
<g mask="url(#mask0_1507_6960)">
<path d="M0.015625 0.93457H520.198V521.117H0.015625V0.93457Z" fill="#26BDE2"/>
</g>
<path d="M78.8942 150.969C97.643 150.969 104.762 140.622 104.762 124.453V108.932C104.762 91.7976 97.9745 83.0789 85.3648 83.0789C77.9287 83.0789 73.4036 86.624 70.8096 91.4805V68.8407C70.8096 62.3846 72.7551 57.8595 79.2257 57.8595C85.6818 57.8595 87.3103 61.7361 87.3103 68.2066V75.3113H103.465V69.8207C103.465 54.2999 98.2915 43.6357 78.8942 43.6357C60.4768 43.6357 53.3578 55.5969 53.3578 72.0832V123.156C53.0407 139.008 60.1454 150.969 78.8942 150.969ZM70.8096 106.67C71.141 100.848 73.7206 96.9712 79.2257 96.9712C85.3648 96.9712 87.6273 100.531 87.6273 107.65V125.75C87.6273 132.538 85.0477 136.414 79.2257 136.414C73.4036 136.414 71.141 132.538 71.141 125.75L70.8096 106.67ZM356.279 211.424C355.962 211.093 355.313 210.775 354.665 210.775H165.865C165.217 210.775 164.568 211.093 164.251 211.424C163.92 212.072 163.603 212.721 163.92 213.355L195.61 405.08C195.927 406.046 196.575 407.011 197.872 407.011H236.667L239.246 438.37H222.76L260.906 476.516L299.067 438.37H282.58L285.16 407.343H324.603C325.569 407.343 326.549 406.694 326.866 405.397L356.61 213.687C356.927 212.39 356.61 211.741 356.279 211.424ZM283.546 364.988C283.546 364.988 274.813 373.722 260.906 372.742C247.014 373.722 238.281 364.988 238.281 364.988C224.057 350.765 229.231 333.298 234.073 324.248C236.984 318.426 258.975 285.785 260.589 283.191C262.535 286.102 284.194 318.758 287.106 324.248C292.596 333.298 297.453 350.765 283.546 364.988ZM343.352 251.833C338.178 249.57 331.708 250.536 325.569 252.798C302.295 262.18 286.126 265.739 261.555 257.972C246.048 253.13 231.493 243.1 214.358 249.253C203.046 253.447 192.381 257.323 179.44 257.006L172.004 218.86H348.526L343.352 251.833Z" fill="white"/>
<path d="M148.09 149.34L156.174 107H164.259L172.344 149.34H164.908L163.611 141.587H156.174L154.877 149.34H148.09ZM157.14 136.096H162.962L160.051 118.961L157.14 136.096ZM181.394 122.838V149.671H175.255V107.317H182.359L190.113 131.571V107.317H195.935V149.671H189.796L181.394 122.838ZM222.451 118.313V138.027C222.451 144.498 219.857 149.34 212.104 149.34H201.108V107H212.104C219.857 107 222.451 111.842 222.451 118.313ZM211.455 143.532C214.366 143.532 215.663 141.918 215.663 139.324V117.016C215.663 114.436 214.683 112.808 211.455 112.808H208.544V143.532H211.455ZM238.62 140.29V134.482H245.408V140.29C245.408 142.552 246.373 144.181 248.953 144.181C251.216 144.181 252.196 142.552 252.196 140.29V138.676C252.196 136.096 251.216 134.799 248.953 132.536L244.759 128.328C240.551 124.452 238.937 121.872 238.937 117.016V115.719C238.937 110.545 242.165 106.352 248.953 106.352C256.072 106.352 258.983 109.911 258.983 116.05V119.61H252.513V116.05C252.513 113.456 251.547 112.491 249.284 112.491C247.339 112.491 246.056 113.456 246.056 116.05V117.016C246.056 119.278 247.339 120.892 249.284 122.838L253.81 127.363C257.686 131.24 259.632 133.833 259.632 138.359V140.29C259.632 146.112 256.389 150.32 249.284 150.32C241.2 149.988 238.62 145.795 238.62 140.29ZM261.246 149.34L269.33 107H277.415L285.485 149.34H278.049L276.766 141.587H269.33L268.033 149.34H261.246ZM269.979 136.096H275.786L272.89 118.961L269.979 136.096ZM294.867 122.838V149.671H288.728V107.317H295.832L303.6 131.571V107.317H309.422V149.671H303.268L294.867 122.838ZM315.23 107H322.349V149.34H315.23V107ZM325.908 107H344.974V112.808H339.152V149.34H332.047V112.808H326.225L325.908 107ZM343.043 149.34L351.128 107H359.198L367.282 149.34H359.846L358.564 141.587H351.128L349.831 149.34H343.043ZM352.093 136.096H357.915L355.004 118.961L352.093 136.096ZM365.02 107H384.1V112.808H378.278V149.34H371.159V112.808H365.351L365.02 107ZM387.977 107H395.096V149.34H387.977V107ZM399.621 138.359V117.664C399.621 110.877 402.849 106.352 410.285 106.352C417.721 106.352 421.281 111.194 421.281 117.664V138.359C421.281 144.815 418.038 149.671 410.285 149.671C403.166 149.988 399.621 145.146 399.621 138.359ZM414.162 139.641V116.699C414.162 114.105 413.196 112.174 410.602 112.174C408.023 112.174 407.057 114.105 407.057 116.699V139.641C407.057 142.235 408.023 144.181 410.602 144.181C413.196 143.849 414.162 142.235 414.162 139.641ZM432.262 122.838V149.671H426.123V107.317H433.242L440.995 131.571V107.317H446.817V149.671H440.678L432.262 122.838Z" fill="white"/>
<path d="M149.047 75.6428V54.9484C149.047 48.1608 152.289 43.6357 159.725 43.6357C167.479 43.6357 169.741 48.1608 169.741 54.2999V59.4735H163.271V53.9829C163.271 51.3889 162.305 49.7749 159.725 49.7749C157.131 49.7749 156.166 51.7059 156.166 54.2999V77.2568C156.166 79.8364 157.131 81.7819 159.725 81.7819C162.305 81.7819 163.271 80.1678 163.271 77.5738V69.8207H169.741V77.2568C169.741 83.3959 167.162 87.921 159.725 87.921C151.958 87.2725 149.047 82.4304 149.047 75.6428ZM174.266 44.2698H181.385V80.8163H189.787V86.624H174.266V44.2698ZM193.664 44.2698H210.798V50.0919H200.783V62.3846H207.887V68.2066H200.783V81.1334H210.798V86.9554H193.664V44.2698ZM214.041 86.624L222.111 44.2698H230.196L238.28 86.624H230.844L229.547 78.8708H222.111L220.828 86.624H214.041ZM223.091 73.3802H228.913L226.002 56.2454L223.091 73.3802ZM247.979 60.122V86.9554H241.84V44.6013H248.944L256.712 68.8407V44.6013H262.534V86.9554H256.381L247.979 60.122ZM293.244 60.4391L289.368 86.624H282.58L276.758 44.2698H283.545L286.774 71.1177L290.333 44.2698H296.155L300.032 71.1177L303.26 44.2698H309.413L303.908 86.624H297.121L293.244 60.4391ZM309.73 86.624L317.815 44.2698H325.9L333.984 86.624H326.548L325.251 78.8708H317.815L316.518 86.624H309.73ZM318.464 73.3802H324.286L321.375 56.2454L318.464 73.3802ZM333.004 44.2698H352.085V50.0919H346.263V86.624H339.143V50.0919H333.336L333.004 44.2698ZM355.313 44.2698H372.447V50.0919H362.432V62.3846H369.536V68.2066H362.432V81.1334H372.447V86.9554H355.313V44.2698ZM383.443 67.2267V86.624H376.324V44.2698H386.671C393.79 44.2698 396.37 47.8294 396.37 53.6514V59.1421C396.37 63.6816 394.756 66.2611 390.548 67.2267L397.35 86.624H389.914L383.443 67.2267ZM383.443 50.0919V63.3501H385.706C388.285 63.3501 389.265 62.0531 389.265 59.7906V53.6514C389.265 51.3889 388.285 50.0919 385.706 50.0919H383.443Z" fill="white"/>
</svg>
