<svg width="521" height="521" viewBox="0 0 521 521" fill="none" xmlns="http://www.w3.org/2000/svg">
<mask id="mask0_1507_6969" style="mask-type:luminance" maskUnits="userSpaceOnUse" x="0" y="0" width="521" height="521">
<path d="M0.132812 0.117188H520.315V520.299H0.132812V0.117188Z" fill="white"/>
</mask>
<g mask="url(#mask0_1507_6969)">
<path d="M0.132812 0.117188H520.315V520.299H0.132812V0.117188Z" fill="#FCC30B"/>
</g>
<path d="M53.4688 58.003H80.6336L57.0283 148.519H74.4945L97.7684 59.9485V43.7793H53.4688V58.003Z" fill="white"/>
<path d="M147.559 86.1365L155.629 43.7823H163.713L171.798 86.1365H164.362L163.065 78.3689H155.629L154.346 86.1365H147.559ZM156.609 72.5612H162.431L159.52 55.4264L156.609 72.5612ZM174.392 43.7823H191.195V49.6044H181.497V61.8826H188.616V67.7047H181.497V86.4535H174.392V43.7823ZM194.106 43.7823H210.924V49.6044H201.225V61.8826H208.33V67.7047H201.225V86.4535H194.106V43.7823ZM212.855 75.1408V54.4465C212.855 47.6589 216.098 43.1338 223.534 43.1338C230.97 43.1338 234.515 47.9903 234.515 54.4465V75.1408C234.515 81.6114 231.287 86.4535 223.534 86.4535C216.098 86.785 212.855 81.6114 212.855 75.1408ZM227.41 76.4378V53.4809C227.41 50.8869 226.43 48.9559 223.851 48.9559C221.271 48.9559 220.291 50.8869 220.291 53.4809V76.4378C220.291 79.0174 221.271 80.9629 223.851 80.9629C226.43 80.6314 227.41 79.0174 227.41 76.4378ZM245.511 66.7391V86.1365H238.392V43.7823H248.739C255.858 43.7823 258.437 47.3418 258.437 53.1639V58.6545C258.437 63.1796 256.823 65.7592 252.63 66.7391L259.417 86.1365H251.981L245.511 66.7391ZM245.511 49.6044V62.8626H247.773C250.367 62.8626 251.333 61.5656 251.333 59.303V53.1639C251.333 50.8869 250.367 49.6044 247.773 49.6044H245.511ZM283.657 55.095V74.8238C283.657 81.2799 281.077 86.1365 273.31 86.1365H262.328V43.7823H273.31C280.746 43.7823 283.657 48.6244 283.657 55.095ZM272.344 80.3144C275.255 80.3144 276.552 78.7003 276.552 76.1063V53.798C276.552 51.2184 275.572 49.6044 272.344 49.6044H269.433V80.3144H272.344ZM285.271 86.1365L293.356 43.7823H301.44L309.525 86.1365H302.089L300.792 78.3689H293.356L292.073 86.1365H285.271ZM294.335 72.5612H300.143L297.232 55.4264L294.335 72.5612ZM312.104 43.7823H322.451C329.571 43.7823 331.833 47.0104 331.833 53.1639V57.3575C331.833 60.9171 330.536 63.1796 327.625 64.1451C331.185 65.1251 332.799 67.3876 332.799 71.2642V76.7548C332.799 82.894 330.219 86.1365 323.1 86.1365H312.104V43.7823ZM319.223 61.5656H321.803C324.066 61.5656 325.045 60.2686 325.045 58.006V52.8324C325.045 50.5699 324.066 49.2729 321.486 49.2729H318.906V61.5656H319.223ZM319.223 67.0562V80.3144H322.451C324.714 80.3144 326.011 79.0174 326.011 76.7548V70.2987C326.011 68.0217 325.045 66.7391 322.451 66.7391H319.223V67.0562ZM336.358 43.7823H343.463V80.3144H351.879V86.1365H336.358V43.7823ZM355.107 43.7823H372.242V49.6044H362.226V61.8826H369.331V67.7047H362.226V80.6314H372.242V86.4535H355.107V43.7823ZM380.643 86.1365L388.728 43.7823H396.813L404.897 86.1365H397.461L396.164 78.3689H388.728L387.431 86.1365H380.643ZM389.708 72.5612H395.516L392.605 55.4264L389.708 72.5612ZM413.63 59.303V86.1365H407.477V43.7823H414.596L422.349 68.0217V43.7823H428.171V86.1365H422.032L413.63 59.303ZM453.391 55.095V74.8238C453.391 81.2799 450.811 86.1365 443.043 86.1365H432.048V43.7823H443.043C450.811 43.7823 453.391 48.6244 453.391 55.095ZM442.395 80.3144C445.306 80.3144 446.603 78.7003 446.603 76.1063V53.798C446.603 51.2184 445.637 49.6044 442.395 49.6044H439.484V80.3144H442.395Z" fill="white"/>
<path d="M148.531 137.539V117.161C148.531 110.705 151.759 105.849 159.195 105.849C166.963 105.849 169.226 110.374 169.226 116.527V121.369H162.755V115.879C162.755 113.285 161.789 111.671 159.195 111.671C156.616 111.671 155.636 113.616 155.636 116.196V138.821C155.636 141.415 156.616 143.361 159.195 143.361C161.789 143.361 162.755 141.732 162.755 139.153V131.385H169.226V138.821C169.226 144.975 166.632 149.5 159.195 149.5C151.759 149.168 148.531 144.326 148.531 137.539ZM173.751 106.18H180.855V142.712H189.271V148.52H173.751V106.18ZM193.148 106.18H209.951V111.988H200.253V123.963H207.372V129.771H200.253V142.712H209.951V148.52H193.148V106.18ZM213.511 148.52L221.595 106.18H229.68L237.765 148.52H230.329L229.032 140.767H221.595L220.298 148.52H213.511ZM222.561 135.276H228.383L225.472 118.141L222.561 135.276ZM247.132 122.018V148.52H240.993V106.18H248.112L255.865 130.42V106.18H261.687V148.52H255.534L247.132 122.018ZM280.753 106.18H297.571V111.988H287.872V123.963H294.977V129.771H287.872V142.712H297.571V148.52H280.753V106.18ZM307.918 122.018V148.52H301.779V106.18H308.883L316.636 130.42V106.18H322.459V148.52H316.319L307.918 122.018ZM327.315 106.18H344.118V111.988H334.42V123.963H341.539V129.771H334.42V142.712H344.118V148.52H327.315V106.18ZM355.763 129.123V148.52H348.643V106.18H358.991C366.11 106.18 368.689 109.725 368.689 115.547V121.052C368.689 125.577 367.075 128.157 362.882 129.123L369.669 148.203H362.233L355.763 129.123ZM355.763 111.988V125.246H358.025C360.605 125.246 361.585 123.963 361.585 121.686V115.547C361.585 113.285 360.605 111.988 358.025 111.988H355.763ZM383.893 125.894H393.909V148.52H388.735V143.995C387.77 147.237 385.824 149.168 381.947 149.168C375.808 149.168 372.897 144.326 372.897 137.856V117.493C372.897 111.022 376.125 106.18 383.562 106.18C391.329 106.18 393.592 110.705 393.592 116.844V120.721H387.121V116.527C387.121 113.933 386.156 112.319 383.562 112.319C380.982 112.319 380.016 114.25 380.016 116.844V139.47C380.016 142.064 380.982 143.995 383.562 143.995C385.824 143.995 387.121 142.712 387.121 139.801V132.365H383.893V125.894ZM412.34 132.365V148.52H405.221V132.365L397.137 106.18H404.573L408.781 122.335L412.989 106.18H419.777L412.34 132.365Z" fill="white"/>
<path d="M260.711 460.508C264.27 460.508 266.864 457.597 266.864 454.685V421.396C266.864 418.485 263.953 415.574 260.711 415.574C257.166 415.574 254.572 418.802 254.572 421.396V454.685C254.572 457.279 257.483 460.508 260.711 460.508ZM260.077 252.311C218.039 252.311 183.77 286.58 183.77 328.603C183.77 370.64 218.039 404.895 260.077 404.895C302.099 404.895 336.369 370.64 336.369 328.603C336.369 286.249 302.416 252.311 260.077 252.311ZM254.572 282.372C254.572 279.793 257.166 277.199 260.394 277.199C263.622 277.199 265.884 280.11 265.884 282.372V308.557C265.884 311.151 263.305 313.731 260.394 313.731C257.166 313.731 254.572 310.82 254.572 308.557V282.372ZM260.077 367.398C238.085 367.398 220.302 349.614 220.302 327.637C220.302 309.854 231.946 294.665 248.115 289.808V304.681C239.699 308.889 233.877 317.607 233.877 327.637C233.877 341.861 245.521 353.505 259.745 353.505C273.969 353.505 285.613 341.861 285.613 327.637C285.613 317.607 279.791 308.889 271.389 304.364V289.491C287.544 294.333 299.188 309.537 299.188 327.306C299.837 349.614 282.053 367.398 260.077 367.398ZM172.774 327.637C172.774 324.078 169.878 321.498 166.967 321.498H133.346C130.434 321.498 127.523 324.395 127.523 327.637C127.523 331.197 130.752 333.777 133.346 333.777H166.635C169.546 334.094 172.774 331.197 172.774 327.637ZM392.947 327.637C392.947 324.078 390.036 321.498 387.125 321.498H353.821C350.91 321.498 348.013 324.395 348.013 327.637C348.013 331.197 351.241 333.777 353.821 333.777H387.125C389.719 334.094 392.947 331.197 392.947 327.637ZM260.077 240.35C263.622 240.35 266.216 237.438 266.216 234.527V201.223C266.216 198.312 263.305 195.401 260.077 195.401C256.517 195.401 253.923 198.644 253.923 201.223V234.196C253.923 237.107 256.834 240.35 260.077 240.35ZM184.101 284.318C185.715 281.407 184.418 277.199 182.156 275.902L153.06 259.415C150.48 258.133 146.589 258.767 144.975 262.009C143.361 264.92 144.658 269.114 146.921 270.411L176.017 286.897C178.279 288.194 182.473 287.229 184.101 284.318ZM375.481 393.583C377.109 390.671 375.812 386.478 373.549 385.181L344.453 368.695C341.859 367.398 337.983 368.046 336.369 371.274C334.755 374.185 336.052 378.393 338.314 379.69L367.41 396.177C369.673 397.474 373.549 396.825 375.481 393.583ZM303.713 251.662C306.624 253.276 310.501 251.979 312.115 249.717L328.616 220.621C329.898 218.041 329.25 214.165 326.022 212.536C323.111 210.922 318.917 212.219 317.62 214.482L301.134 243.578C299.837 246.157 300.802 250.048 303.713 251.662ZM194.117 443.056C197.028 444.67 200.905 443.373 202.519 441.11L219.005 412.014C220.302 409.435 219.653 405.544 216.425 403.93C213.514 402.316 209.306 403.613 208.024 405.875L191.537 434.971C190.24 437.234 191.206 441.11 194.117 443.056ZM216.425 251.979C219.336 250.365 220.302 246.157 219.005 243.895L202.519 214.799C201.236 212.219 197.028 210.922 194.117 212.868C191.206 214.482 190.24 218.69 191.537 221.269L208.024 250.365C209.638 252.311 213.514 253.593 216.425 251.979ZM326.339 442.724C329.25 441.11 330.23 436.902 328.933 434.64L312.446 405.544C311.149 402.964 306.941 401.667 304.045 403.613C301.134 405.227 300.154 409.435 301.451 412.014L317.937 441.11C319.234 443.373 323.442 444.67 326.339 442.724ZM336.052 283.986C337.666 286.897 341.859 287.863 344.122 286.58L373.218 270.094C375.812 268.797 377.109 264.589 375.163 261.678C373.549 258.767 369.341 257.801 366.762 259.098L337.666 275.585C335.72 277.199 334.423 281.075 336.052 283.986ZM145.307 393.914C146.921 396.825 151.114 397.791 153.377 396.494L182.473 380.007C185.067 378.71 186.364 374.517 184.418 371.606C182.804 368.695 178.596 367.729 176.017 369.012L146.921 385.498C144.658 386.795 143.361 391.003 145.307 393.914Z" fill="white"/>
</svg>
