<svg width="521" height="521" viewBox="0 0 521 521" fill="none" xmlns="http://www.w3.org/2000/svg">
<mask id="mask0_1507_6991" style="mask-type:luminance" maskUnits="userSpaceOnUse" x="0" y="0" width="521" height="521">
<path d="M0.132812 0.298828H520.315V520.481H0.132812V0.298828Z" fill="white"/>
</mask>
<g mask="url(#mask0_1507_6991)">
<path d="M0.132812 0.298828H520.315V520.481H0.132812V0.298828Z" fill="#FD6925"/>
</g>
<path d="M95.5137 70.149C95.5137 53.9797 88.3946 42.0186 69.9629 42.0186C51.214 42.0186 44.1094 52.3657 44.1094 68.5349V84.0557C44.1094 101.19 50.897 109.909 63.5067 109.909C70.9428 109.909 75.4679 106.364 78.0475 101.507V124.147C78.0475 130.603 75.4679 134.811 69.3288 134.811C62.8582 134.811 60.5957 131.252 60.5957 124.464V117.345H44.4264V122.85C44.4264 138.371 49.9315 149.035 69.6458 149.035C88.0776 149.035 95.5137 137.074 95.5137 120.588V70.149ZM78.0475 86.3182C77.7304 92.1403 75.1364 96.0169 69.6458 96.0169C63.5067 96.0169 61.2441 92.4573 61.2441 85.3383V67.2379C61.2441 60.4503 63.8237 56.5737 69.6458 56.5737C75.4679 56.5737 77.7304 60.4503 77.7304 67.2379V86.3182H78.0475ZM390.35 342.36L328.599 306.808V235.358C328.599 233.744 327.964 232.447 326.336 231.798L262.336 194.949C261.039 194.3 259.425 194.3 258.128 194.949L194.114 231.798C192.817 232.447 191.852 234.061 191.852 235.358V306.808L130.1 342.36C128.803 343.008 127.838 344.622 127.838 345.919V419.632C127.838 421.246 128.486 422.543 130.1 423.192L194.114 460.041C194.763 460.372 195.411 460.689 196.377 460.689C197.025 460.689 197.991 460.372 198.639 460.041L260.391 424.489L322.142 460.041C322.791 460.372 323.439 460.689 324.405 460.689C325.37 460.689 326.019 460.372 326.667 460.041L390.681 423.192C391.964 422.543 392.944 420.929 392.944 419.632V345.919C392.295 344.305 391.647 343.008 390.35 342.36ZM255.866 412.513L204.461 382.783L255.866 353.038V412.513ZM315.672 309.07L264.267 338.815V279.643L315.672 309.07ZM255.866 338.483L204.461 308.739L255.866 278.994V338.483ZM268.793 345.919L324.405 313.912L380.003 345.919L324.405 377.926L268.793 345.919ZM319.88 301.634L268.475 271.89L319.88 242.145V301.634ZM251.658 272.207L200.253 301.951V242.794L251.658 272.207ZM192.169 449.377L136.571 417.37V353.356L192.169 385.363V449.377ZM200.585 449.377V390.219L251.989 419.949L200.585 449.377ZM383.894 417.37L328.281 449.377V385.363L383.894 353.356V417.37Z" fill="white"/>
<path d="M123.004 44.6117H129.792V84.0549H123.004V44.6117ZM139.159 59.484V84.3719H133.668V44.9288H140.139L147.243 67.5686V44.9288H152.734V84.3719H146.926L139.159 59.484ZM176.671 55.2759V73.7077C176.671 79.8468 174.077 84.3719 166.972 84.3719H156.625V44.9288H166.972C174.408 44.6117 176.671 49.1368 176.671 55.2759ZM166.324 78.8813C168.903 78.8813 170.2 77.2672 170.2 75.0047V54.3104C170.2 52.0478 169.235 50.4338 166.324 50.4338H163.413V79.1983L166.324 78.8813ZM200.262 44.6117V74.3562C200.262 80.4953 197.682 84.3719 190.895 84.3719C183.775 84.3719 180.864 80.4953 180.864 74.3562V44.6117H187.652V75.0047C187.652 77.2672 188.632 78.8813 190.895 78.8813C193.157 78.8813 194.123 77.2672 194.123 75.0047V44.6117H200.262ZM203.821 75.6388V70.4796H209.96V75.9702C209.96 78.2328 210.94 79.5298 213.203 79.5298C215.134 79.5298 216.1 78.2328 216.1 75.9702V74.3562C216.1 72.0937 215.134 70.7967 213.203 68.8512L209.312 64.9746C205.435 61.098 203.821 58.8355 203.821 54.3104V53.0134C203.821 48.1713 206.732 44.2803 213.203 44.2803C219.991 44.2803 222.57 47.5228 222.57 53.3448V56.5729H216.431V53.0134C216.431 50.7508 215.465 49.7853 213.203 49.7853C211.257 49.7853 209.96 50.7508 209.96 53.0134V53.9789C209.96 56.2415 211.257 57.5385 213.203 59.484L217.397 63.6776C220.956 67.2371 222.902 69.4997 222.902 74.0247V75.9702C222.902 81.4609 219.991 85.3374 213.203 85.3374C206.401 84.7034 203.821 80.8124 203.821 75.6388ZM224.516 44.6117H242.299V50.1023H236.794V84.0549H230.006V50.1023H224.516V44.6117ZM251.998 65.9401V84.0549H245.527V44.6117H255.226C262.013 44.6117 264.276 47.8398 264.276 53.3448V58.504C264.276 62.712 262.662 65.306 259.102 66.2716L265.573 84.0549H258.454L251.998 65.9401ZM251.998 50.1023V62.395H254.26C256.523 62.395 257.488 61.098 257.488 59.1525V53.3448C257.488 51.0679 256.523 50.1023 254.26 50.1023H251.998ZM279.797 69.1826V84.0549H273.009V69.1826L265.573 44.6117H272.36L276.237 59.484L280.114 44.6117H286.584L279.797 69.1826ZM293.703 78.2328L290.461 87.2829H286.584L287.55 77.9013H293.703V78.2328ZM304.367 44.6117H311.155V84.0549H304.367V44.6117ZM320.537 59.484V84.3719H315.032V44.9288H321.502L328.607 67.5686V44.9288H334.112V84.3719H328.29L320.537 59.484ZM343.811 59.484V84.3719H338.306V44.9288H344.776L351.895 67.5686V44.9288H357.386V84.3719H351.564L343.811 59.484ZM361.594 74.0247V54.9589C361.594 48.8054 364.505 44.2803 371.61 44.2803C378.729 44.2803 381.64 48.8054 381.64 54.9589V74.0247C381.64 80.1783 378.729 84.7034 371.61 84.7034C364.505 84.7034 361.594 80.1783 361.594 74.0247ZM375.169 75.0047V53.6619C375.169 51.3993 374.204 49.4539 371.61 49.4539C369.347 49.4539 368.381 51.0679 368.381 53.6619V75.0047C368.381 77.2672 369.347 79.1983 371.61 79.1983C373.872 79.1983 375.169 77.5843 375.169 75.0047ZM407.176 44.6117L399.74 84.0549H392.621L385.185 44.6117H391.972L396.512 72.0937L401.037 44.6117H407.176ZM406.211 84.0549L413.647 44.6117H421.083L428.504 84.0549H421.717L420.434 76.9358H413.647L412.35 84.0549H406.211ZM414.281 71.7622H419.454L416.875 55.9244L414.281 71.7622ZM427.87 44.6117H445.639V50.1023H440.149V84.0549H433.361V50.1023H427.87V44.6117ZM448.882 44.6117H455.669V84.0549H448.882V44.6117ZM459.877 74.0247V54.9589C459.877 48.8054 462.774 44.2803 469.893 44.2803C477.012 44.2803 479.909 48.8054 479.909 54.9589V74.0247C479.909 80.1783 477.012 84.7034 469.893 84.7034C462.774 84.7034 459.877 80.1783 459.877 74.0247ZM473.121 75.0047V53.6619C473.121 51.3993 472.156 49.4539 469.576 49.4539C467.314 49.4539 466.334 51.0679 466.334 53.6619V75.0047C466.334 77.2672 467.314 79.1983 469.576 79.1983C472.156 79.1983 473.121 77.5843 473.121 75.0047ZM489.607 59.484V84.3719H484.117V44.9288H490.587L497.692 67.5686V44.9288H503.197V84.3719H497.375L489.607 59.484Z" fill="white"/>
<path d="M121.699 146.77L129.135 107.327H136.571L144.008 146.77H137.22L135.923 139.651H129.135L127.838 146.77H121.699ZM130.101 134.161H135.274L132.695 118.323L130.101 134.161ZM152.409 121.868V146.77H146.919V107.327H153.375L160.494 129.953V107.327H165.984V146.77H160.162L152.409 121.868ZM189.907 117.674V136.106C189.907 142.245 187.327 146.77 180.208 146.77H169.861V107.327H180.208C187.327 107.327 189.907 111.852 189.907 117.674ZM179.56 141.28C182.154 141.28 183.451 139.651 183.451 137.389V116.709C183.451 114.432 182.471 112.818 179.56 112.818H176.663V141.597L179.56 141.28ZM200.254 107.327H207.042V146.77H200.254V107.327ZM216.74 121.868V146.77H211.25V107.327H217.72L224.825 129.953V107.327H230.33V146.77H224.508L216.74 121.868ZM234.524 107.327H250.044V112.818H240.994V124.145H247.782V129.636H240.994V147.087H234.207L234.524 107.327ZM259.743 128.67V146.77H252.955V107.327H262.654C269.442 107.327 271.704 110.555 271.704 116.06V121.234C271.704 125.428 270.09 128.022 266.531 128.987L273.001 146.77H265.882L259.743 128.67ZM259.743 112.501V124.779H262.005C264.268 124.779 265.234 123.496 265.234 121.551V115.729C265.234 113.466 264.268 112.501 262.005 112.501H259.743ZM274.932 146.77L282.368 107.327H289.804L297.241 146.77H290.453L289.17 139.651H282.051L280.754 146.77H274.932ZM283.017 134.161H288.19L285.611 118.323L283.017 134.161ZM299.503 138.037V132.864H305.657V138.369C305.657 140.631 306.622 141.914 308.885 141.914C310.83 141.914 311.796 140.631 311.796 138.369V136.74C311.796 134.478 310.83 133.195 308.885 131.25L305.008 127.373C301.132 123.496 299.503 121.234 299.503 116.709V115.412C299.503 110.555 302.414 106.679 308.885 106.679C315.672 106.679 318.266 109.907 318.266 115.729V118.971H312.113V115.412C312.113 113.149 311.147 112.169 308.885 112.169C306.939 112.169 305.657 113.149 305.657 115.412V116.377C305.657 118.64 306.939 119.937 308.885 121.868L313.093 126.076C316.638 129.636 318.583 131.898 318.583 136.423V138.369C318.583 143.859 315.672 147.736 308.885 147.736C302.097 147.736 299.503 143.211 299.503 138.037ZM320.529 107.327H338.298V112.818H332.807V146.77H326.019V112.818H320.529V107.327ZM348.328 128.67V146.77H341.54V107.327H351.239C358.026 107.327 360.289 110.555 360.289 116.06V121.234C360.289 125.428 358.675 128.022 355.115 128.987L361.586 146.77H354.467L348.328 128.67ZM348.328 112.501V124.779H350.59C352.853 124.779 353.818 123.496 353.818 121.551V115.729C353.818 113.466 352.853 112.501 350.59 112.501H348.328ZM383.563 107.327V137.072C383.563 143.211 380.983 147.087 374.196 147.087C367.077 147.087 364.166 143.211 364.166 137.072V107.327H370.953V137.72C370.953 139.983 371.933 141.597 374.196 141.597C376.458 141.597 377.424 139.983 377.424 137.72V107.327H383.563ZM387.771 136.423V117.343C387.771 111.204 390.682 106.679 397.787 106.679C405.223 106.679 407.168 110.887 407.168 116.709V121.234H401.029V116.06C401.029 113.466 400.049 112.169 397.787 112.169C395.524 112.169 394.559 113.798 394.559 116.377V137.72C394.559 139.983 395.524 141.914 397.787 141.914C400.049 141.914 401.029 140.3 401.029 138.037V130.601H407.168V137.389C407.168 142.894 404.906 147.087 397.787 147.087C390.682 147.087 387.771 142.562 387.771 136.423ZM408.465 107.327H426.234V112.818H420.744V146.77H413.956V112.818H408.465V107.327ZM448.874 107.327V137.072C448.874 143.211 446.28 147.087 439.492 147.087C432.388 147.087 429.477 143.211 429.477 137.072V107.327H436.264V137.72C436.264 139.983 437.23 141.597 439.492 141.597C441.755 141.597 442.735 139.983 442.735 137.72V107.327H448.874ZM459.538 128.67V146.77H452.751V107.327H462.449C469.237 107.327 471.499 110.555 471.499 116.06V121.234C471.499 125.428 469.885 128.022 466.326 128.987L472.796 146.77H465.677L459.538 128.67ZM459.538 112.501V124.779H461.801C464.063 124.779 465.043 123.496 465.043 121.551V115.729C465.043 113.466 464.063 112.501 461.801 112.501H459.538ZM475.707 107.327H491.545V112.818H482.495V124.145H488.966V129.636H482.495V141.597H491.545V147.087H475.707V107.327Z" fill="white"/>
</svg>
